<svg width="150" height="150" viewBox="0 0 150 150" fill="none" xmlns="http://www.w3.org/2000/svg">
<path d="M51.425 93.8125H37.5V81.25H51.6312C63.3687 81.25 64.15 93.8125 51.425 93.8125ZM93.6625 77.0813H112.525C111.794 66.3625 95.4625 64.725 93.6625 77.0813ZM51.1375 56.25H37.5V68.75H52.4312C62.8875 68.75 64.5375 56.25 51.1375 56.25V56.25ZM150 31.25V118.75C150 136.006 136.013 150 118.75 150H31.25C13.9875 150 0 136.006 0 118.75V31.25C0 13.9938 13.9875 0 31.25 0H118.75C136.013 0 150 13.9938 150 31.25ZM87.5 50H118.75V43.75H87.5V50ZM65.3 72.6125C77.2187 66.525 76.7813 44.175 53.9688 43.8375H25V106.2H51.9437C80.2062 106.2 79.725 77.8625 65.3 72.6125V72.6125ZM124.594 76.375C122.881 65.3563 115.044 57.9375 102.2 57.9375C89.1125 57.9375 81.25 66.3125 81.25 82.6063C81.25 99.05 89.7938 106.25 102.6 106.25C115.406 106.25 122.012 99.1563 123.85 93.75H110.656C106.056 99.0938 92.575 97.0063 93.3625 85.2938H124.987C125.05 81.3313 124.912 78.4875 124.594 76.375Z" fill="#0010FF"/>
</svg>
