<svg width="105" height="83" viewBox="0 0 105 83" fill="none" xmlns="http://www.w3.org/2000/svg">
<path d="M95.5 60.3607C95.9088 61.7023 96.1111 63.0982 96.1 64.5007C96.1 73.5007 87.38 80.7307 76.61 80.7307C68.72 80.7307 61.93 76.8307 58.87 71.2107C48.93 77.2107 38.72 80.6507 32.44 67.2107C30.5 63.1707 30.5 59.7007 31.74 56.7307C28.5022 58.1052 25.0174 58.8028 21.5 58.7807C10.72 58.7807 2 52.6607 2 45.1207C2 41.6107 3.9 38.4207 7 36.0007C5.71308 33.8653 5.02242 31.4238 5 28.9307C5.04 21.6607 10.8 15.5007 18.73 13.5007C21.55 7.40068 28.61 3.10068 36.9 3.10068C40.2156 3.08479 43.4938 3.80189 46.5 5.20068C49.7747 3.08101 53.5993 1.96842 57.5 2.00068C64.12 2.00068 69.89 5.00068 72.93 9.48068C74.4369 9.0201 76.0043 8.78752 77.58 8.79068C86.07 8.79068 92.96 15.3807 92.96 23.5207C92.9702 25.9736 92.3393 28.3866 91.13 30.5207V30.5207C97.73 31.3407 102.88 38.0607 102.88 46.2107C102.85 52.4207 99.83 57.8107 95.5 60.3607Z" fill="#BDFB0F"/>
<path d="M68.7903 49.6707H68.7803" stroke="black" stroke-width="4" stroke-linecap="round" stroke-linejoin="round"/>
<path d="M95.5001 60.3607C95.9089 61.7023 96.1112 63.0983 96.1001 64.5007C96.1001 73.5007 87.3801 80.7307 76.6101 80.7307C68.7201 80.7307 61.9301 76.8307 58.8701 71.2107" stroke="black" stroke-width="4" stroke-linecap="round" stroke-linejoin="round"/>
<path d="M31.74 56.7307C28.5022 58.1052 25.0174 58.8028 21.5 58.7807C10.72 58.7807 2 52.6607 2 45.1207C2 41.6107 3.9 38.4207 7 36.0007C5.71308 33.8653 5.02242 31.4238 5 28.9307C5.04 21.6607 10.8 15.5007 18.73 13.5007C21.55 7.40068 28.61 3.10068 36.9 3.10068C40.2156 3.08479 43.4938 3.80189 46.5 5.20068C49.7747 3.08101 53.5993 1.96842 57.5 2.00068C64.12 2.00068 69.89 5.00068 72.93 9.48068" stroke="black" stroke-width="4" stroke-linecap="round" stroke-linejoin="round"/>
<path d="M91.1002 30.5006C92.3096 28.3665 92.9404 25.9535 92.9302 23.5006C92.9302 15.3606 86.0402 8.77063 77.5502 8.77063C75.9725 8.78042 74.4051 9.02649 72.9002 9.50063C69.871 10.4064 67.1956 12.2261 65.2402 14.7106" stroke="black" stroke-width="4" stroke-linecap="round" stroke-linejoin="round"/>
<path d="M89.7305 30.3906C96.9705 30.3906 102.85 37.4606 102.85 46.1706C102.85 52.4206 99.8505 57.8106 95.4505 60.3606C93.7215 61.3955 91.7454 61.9448 89.7305 61.9506C83.2105 61.9506 77.7905 56.2206 76.7305 48.7106" stroke="black" stroke-width="4" stroke-linecap="round" stroke-linejoin="round"/>
<path d="M96.1003 56.7107C96.1003 49.1407 89.5203 42.9907 81.4003 42.9907H81.2703C78.7991 42.9811 76.3645 43.5867 74.1857 44.7529C72.007 45.919 70.1528 47.6091 68.7903 49.6707V49.6707C68.2653 50.4799 67.8327 51.3453 67.5003 52.2507C67.291 52.8185 67.1206 53.3998 66.9903 53.9907C65.1916 53.8865 63.3872 53.9501 61.6003 54.1807C61.2803 54.1807 60.9503 54.2607 60.6003 54.3107C49.4503 56.0907 41.3703 63.5907 42.6003 71.0707" stroke="black" stroke-width="4" stroke-linecap="round" stroke-linejoin="round"/>
<path d="M40.9696 12.7406C38.7121 12.7282 36.5158 13.4739 34.7326 14.8583C32.9494 16.2427 31.6825 18.1856 31.135 20.3757C30.5874 22.5658 30.7909 24.8764 31.7129 26.937C32.6348 28.9977 34.2218 30.6893 36.2196 31.7406C35.1789 33.0196 34.4675 34.5341 34.1477 36.1517C33.8278 37.7693 33.9093 39.4406 34.3849 41.0194C34.8605 42.5982 35.7158 44.0363 36.8759 45.2081C38.036 46.3798 39.4656 47.2493 41.0396 47.7406" stroke="black" stroke-width="4" stroke-linecap="round" stroke-linejoin="round"/>
<path d="M50.5501 43.8207C49.6378 42.0317 49.189 40.0423 49.2449 38.0349C49.3008 36.0274 49.8596 34.0661 50.8701 32.3307C49.9427 31.4413 49.2002 30.3774 48.6854 29.2001C48.1705 28.0229 47.8935 26.7554 47.8701 25.4707C47.8701 19.3307 54.1301 14.3607 61.8701 14.3607C63.0083 14.3569 64.144 14.4675 65.2601 14.6907C71.3401 15.8907 75.8501 20.2607 75.8501 25.4707C75.8423 26.0554 75.7787 26.6381 75.6601 27.2107C78.2431 28.8103 80.2527 31.1875 81.4001 34.0007C81.8443 35.1433 82.1107 36.3473 82.1901 37.5707C82.1901 37.8307 82.1901 38.0907 82.1901 38.3507C82.1888 39.9435 81.8727 41.5204 81.2601 42.9907" stroke="black" stroke-width="4" stroke-linecap="round" stroke-linejoin="round"/>
<path d="M31.1002 24.7806L30.7902 25.0306C28.396 26.9155 25.4374 27.9403 22.3902 27.9403C19.3431 27.9403 16.3845 26.9155 13.9902 25.0306" stroke="black" stroke-width="4" stroke-linecap="round" stroke-linejoin="round"/>
<path d="M15.29 46.1707C17.518 43.3685 20.6159 41.3883 24.0945 40.5426C27.5731 39.6969 31.2343 40.0341 34.5 41.5007" stroke="black" stroke-width="4" stroke-linecap="round" stroke-linejoin="round"/>
<path d="M58.8695 23.5607C61.2455 25.7164 62.8725 28.5733 63.5145 31.7166C64.1564 34.8599 63.7799 38.1259 62.4395 41.0407C58.4157 41.6863 54.4425 42.6153 50.5495 43.8207C47.2585 44.8166 44.0705 46.1259 41.0295 47.7307C33.5595 51.7807 28.1195 57.9907 32.4396 67.2507C38.7196 80.6807 48.9295 77.2507 58.8695 71.2507C67.4995 66.0107 75.8996 58.7807 81.3996 58.7807" stroke="black" stroke-width="4" stroke-linecap="round" stroke-linejoin="round"/>
</svg>
