<svg width="121" height="94" viewBox="0 0 121 94" fill="none" xmlns="http://www.w3.org/2000/svg">
<path d="M97.0198 27.8948L87.6598 4.31481C87.3955 3.64589 86.9399 3.06968 86.3499 2.65817C85.76 2.24667 85.0619 2.0181 84.3428 2.00103C83.6238 1.98396 82.9156 2.17914 82.3068 2.56219C81.6981 2.94525 81.2156 3.49918 80.9198 4.15481L73.1998 21.2448C68.8295 20.7692 64.4359 20.5388 60.0398 20.5548C55.6437 20.5395 51.2502 20.7699 46.8798 21.2448L39.1698 4.15481C38.874 3.49918 38.3916 2.94525 37.7828 2.56219C37.174 2.17914 36.4659 1.98396 35.7468 2.00103C35.0277 2.0181 34.3296 2.24667 33.7397 2.65817C33.1498 3.06968 32.6942 3.64589 32.4298 4.31481L23.0698 27.8948C13.7298 34.1448 10.0698 43.5048 10.0698 54.5948C10.0698 75.0548 22.5698 90.7348 60.0698 91.6448C97.5698 92.5548 110.07 75.0548 110.07 54.6448C110.04 43.5048 106.36 34.1448 97.0198 27.8948Z" fill="#BDFB0F" stroke="black" stroke-width="4" stroke-miterlimit="10"/>
<path d="M50.5 61.8049C50.9388 62.7139 51.6103 63.4906 52.4463 64.0561C53.2823 64.6216 54.253 64.9559 55.26 65.0249C56.269 64.9586 57.2423 64.6256 58.0803 64.0598C58.9184 63.4941 59.5912 62.7159 60.03 61.8049" stroke="black" stroke-width="4" stroke-linecap="round" stroke-linejoin="round"/>
<path d="M60.04 61.8049C60.4805 62.7147 61.1537 63.4917 61.9915 64.0572C62.8292 64.6227 63.8016 64.9566 64.81 65.0249C65.819 64.9586 66.7923 64.6256 67.6304 64.0598C68.4685 63.4941 69.1413 62.7159 69.58 61.8049" stroke="black" stroke-width="4" stroke-linecap="round" stroke-linejoin="round"/>
<path d="M61.0802 57.5248C62.1351 57.5248 62.9902 56.6697 62.9902 55.6148C62.9902 54.56 62.1351 53.7048 61.0802 53.7048H59.0102C57.9554 53.7048 57.1002 54.56 57.1002 55.6148C57.1002 56.6697 57.9554 57.5248 59.0102 57.5248H61.0802Z" fill="black" stroke="black" stroke-width="4" stroke-linecap="round" stroke-linejoin="round"/>
<path d="M50.2698 49.2147C50.2698 48.6072 49.7773 48.1147 49.1698 48.1147C48.5623 48.1147 48.0698 48.6072 48.0698 49.2147V49.9447C48.0698 50.5523 48.5623 51.0447 49.1698 51.0447C49.7773 51.0447 50.2698 50.5523 50.2698 49.9447V49.2147Z" fill="black" stroke="black" stroke-width="4" stroke-linecap="round" stroke-linejoin="round"/>
<path d="M72.0198 49.2147C72.0198 48.6072 71.5273 48.1147 70.9198 48.1147C70.3123 48.1147 69.8198 48.6072 69.8198 49.2147V49.9447C69.8198 50.5523 70.3123 51.0447 70.9198 51.0447C71.5273 51.0447 72.0198 50.5523 72.0198 49.9447V49.2147Z" fill="black" stroke="black" stroke-width="4" stroke-linecap="round" stroke-linejoin="round"/>
<path d="M22.26 54.6147H2" stroke="black" stroke-width="4" stroke-linecap="round" stroke-linejoin="round"/>
<path d="M22.26 63.3647H2" stroke="black" stroke-width="4" stroke-linecap="round" stroke-linejoin="round"/>
<path d="M118.09 54.6147H97.8301" stroke="black" stroke-width="4" stroke-linecap="round" stroke-linejoin="round"/>
<path d="M118.09 63.3647H97.8301" stroke="black" stroke-width="4" stroke-linecap="round" stroke-linejoin="round"/>
</svg>
