<svg width="120" height="120" viewBox="0 0 120 120" fill="none" xmlns="http://www.w3.org/2000/svg">
<rect width="120" height="120" rx="60" fill="black"/>
<path d="M54.4026 22.8092C53.5718 22.4029 52.8902 21.7828 52.3789 20.9702C51.8676 20.1576 51.5694 19.1954 51.4842 18.1262C51.399 17.0356 51.5481 16.052 51.9315 15.1753C52.315 14.2772 52.8901 13.5715 53.6357 13.037C54.4026 12.5024 55.276 12.1816 56.2986 12.0961C57.2998 12.0105 58.2158 12.1388 59.0253 12.4382C59.8348 12.7376 60.4952 13.208 60.9852 13.8281C61.4751 14.4483 61.7521 15.1753 61.816 15.9879L59.8987 16.1375C59.8561 15.6457 59.6857 15.2181 59.3875 14.8545C59.0892 14.491 58.6632 14.213 58.1519 14.042C57.6406 13.8709 57.0655 13.8068 56.4264 13.8495C55.766 13.8923 55.1908 14.1061 54.7009 14.491C54.2109 14.8545 53.8488 15.3464 53.5931 15.9451C53.3375 16.5438 53.2523 17.2281 53.3162 17.9765C53.3801 18.7249 53.5718 19.3878 53.9127 19.9438C54.2535 20.4998 54.6796 20.9274 55.2334 21.2054C55.7873 21.5048 56.3838 21.6117 57.0442 21.5689C57.6832 21.5262 58.2371 21.3765 58.7058 21.1199C59.1744 20.8633 59.5366 20.5425 59.7922 20.1149C60.0478 19.7086 60.1331 19.2595 60.1117 18.7677L62.029 18.618C62.0929 19.452 61.9438 20.2004 61.539 20.8847C61.1556 21.5689 60.5804 22.1249 59.8135 22.5526C59.0466 22.9802 58.1732 23.2368 57.172 23.3224C56.1708 23.3865 55.2334 23.2368 54.4026 22.8092Z" fill="#BDFB0F"/>
<path d="M66.502 12.5453L68.3128 12.9516L66.4168 21.5905L73.2976 23.1087L72.9141 24.8194L64.2227 22.8948L66.502 12.5453Z" fill="#BDFB0F"/>
<path d="M75.3 24.8406C75.5131 24.7551 75.8113 24.7123 76.2161 24.6696C76.2587 24.6696 76.3652 24.6482 76.5143 24.6482C76.6634 24.6268 76.7486 24.6054 76.7699 24.5626C76.7912 24.5199 76.7486 24.4343 76.6634 24.3274C76.5782 24.1991 76.5143 24.135 76.493 24.0922C76.28 23.7501 76.1309 23.4721 76.0456 23.2583C75.8752 22.8092 75.8965 22.3602 76.1096 21.9325C76.3013 21.5048 76.6421 21.2268 77.0895 21.0558C77.3025 20.9702 77.6007 20.9275 78.0055 20.8847C78.0481 20.8847 78.1546 20.8633 78.3037 20.8633C78.4528 20.8633 78.5381 20.8205 78.5594 20.7992C78.5807 20.7564 78.5381 20.6709 78.4528 20.5426C78.3676 20.4143 78.3037 20.3287 78.2824 20.3073C78.0694 19.9652 77.9203 19.6872 77.8351 19.4734C77.6646 19.0243 77.6859 18.5753 77.899 18.1476C78.0907 17.72 78.4315 17.4206 78.8789 17.2709C79.0493 17.2068 79.241 17.1426 79.4328 17.1212C79.6245 17.0998 79.7523 17.0785 79.7949 17.0785C80.1144 17.0357 80.3062 17.0143 80.3275 16.9929L81.8613 17.72C81.6695 18.1476 81.3287 18.447 80.8813 18.5967C80.7109 18.6608 80.5192 18.725 80.3275 18.7464C80.1357 18.7677 80.0079 18.7891 79.9653 18.7891C79.6245 18.7891 79.4541 18.8319 79.4328 18.8747C79.4115 18.9174 79.4328 19.003 79.5393 19.1313C79.6458 19.2596 79.6884 19.3237 79.7097 19.3665C79.9227 19.7086 80.0718 19.9866 80.1358 20.179C80.2849 20.6495 80.2636 21.0985 80.0718 21.5048C79.8801 21.9325 79.5393 22.2319 79.0919 22.3815C78.8789 22.4671 78.5807 22.5312 78.1759 22.574C78.1333 22.574 78.0481 22.574 77.899 22.5954C77.7499 22.6168 77.6646 22.6381 77.6433 22.6809C77.622 22.7237 77.6433 22.8092 77.7499 22.9375C77.8351 23.0658 77.899 23.13 77.9203 23.1727C78.1333 23.5149 78.2824 23.7928 78.3463 23.9853C78.5168 24.4343 78.4954 24.8834 78.2824 25.3111C78.0907 25.7173 77.7499 26.0167 77.2812 26.2092C77.1108 26.2733 76.9404 26.3161 76.7486 26.3375C76.5569 26.3588 76.4291 26.3802 76.3865 26.3802L75.8539 26.4658L74.2988 25.7173C74.5332 25.2897 74.8527 24.9903 75.3 24.8406Z" fill="#BDFB0F"/>
<path d="M81.6697 29.3099C81.3501 28.4331 81.2862 27.5137 81.478 26.5728C81.6697 25.6319 82.117 24.7338 82.7987 23.8785C83.4804 23.0445 84.2686 22.4244 85.1633 22.0609C86.058 21.6974 86.9527 21.5691 87.8688 21.6974C88.7848 21.8471 89.6369 22.232 90.4251 22.8735C91.192 23.515 91.7884 24.2206 92.1506 25.0118C92.534 25.803 92.6832 26.5728 92.5979 27.364C92.534 28.1552 92.2358 28.8608 91.7032 29.5023L90.212 28.2835C90.5103 27.8986 90.6807 27.4709 90.7233 27.0005C90.7446 26.53 90.6381 26.0382 90.4038 25.5678C90.1481 25.076 89.786 24.6483 89.296 24.242C88.7848 23.8143 88.2309 23.5791 87.6131 23.4936C86.9954 23.4294 86.3989 23.515 85.8024 23.7716C85.2059 24.0282 84.6734 24.4558 84.2047 25.0332C83.736 25.6105 83.4165 26.2307 83.2674 26.8508C83.1183 27.4709 83.1396 28.091 83.3313 28.6897C83.523 29.2671 83.8852 29.7803 84.3964 30.208C84.8864 30.6143 85.3977 30.8922 85.9089 31.0419C86.4202 31.1916 86.9314 31.213 87.3788 31.0847C87.8262 30.9564 88.2309 30.6998 88.5291 30.3363L90.0203 31.5551C89.4878 32.1966 88.8487 32.6243 88.1031 32.8595C87.3575 33.0947 86.548 33.0947 85.7172 32.8809C84.8864 32.6671 84.0769 32.2394 83.2887 31.5979C82.5431 30.9564 81.9892 30.1866 81.6697 29.3099Z" fill="#BDFB0F"/>
<path d="M97.5402 30.379L98.5628 31.94L94.7922 34.4205L101.226 36.0242L102.589 38.1198L97.2846 36.8154C97.1142 37.1576 96.8799 37.4355 96.5816 37.6494C96.4751 37.7135 96.3473 37.7991 96.1982 37.8632C96.0491 37.9274 95.9639 37.9701 95.8999 38.0129C95.7295 38.077 95.5804 38.1626 95.4739 38.2267C95.3461 38.3123 95.2822 38.3764 95.2609 38.462C95.2396 38.5475 95.2609 38.633 95.3035 38.7399C95.3461 38.8469 95.4526 39.0393 95.6017 39.3387C95.8573 39.8091 96.0278 40.2154 96.113 40.5575C96.2195 40.8997 96.1982 41.2204 96.0704 41.5625C95.9425 41.9047 95.7082 42.204 95.3461 42.4179C95.197 42.5248 95.0265 42.6103 94.8774 42.6745C94.5792 42.7814 94.1744 42.8883 93.6632 42.9525L93.1306 43.0594L92.1933 41.6267C92.3424 41.5198 92.4915 41.4556 92.6619 41.4129C92.8324 41.3701 93.088 41.3273 93.4075 41.2632C93.4714 41.2632 93.578 41.2418 93.7484 41.2204C93.9188 41.199 94.0466 41.1776 94.1105 41.1563C94.1744 41.1349 94.2596 41.1135 94.3022 41.0707C94.3875 41.028 94.4088 40.9424 94.3662 40.8141C94.3235 40.7072 94.2383 40.472 94.0466 40.1512C93.8123 39.7236 93.6632 39.3601 93.5567 39.0393C93.4501 38.7399 93.4501 38.4406 93.514 38.1198C93.6419 37.5638 93.9827 37.0934 94.494 36.7727C94.6644 36.6657 94.8774 36.5588 95.1544 36.4305L95.3035 36.3664L92.7685 35.7463L89.6583 37.7777L88.6357 36.2167L97.5402 30.379Z" fill="#BDFB0F"/>
<path d="M97.3698 54.863C97.8172 54.3712 98.435 54.0718 99.2658 54.0077C99.9261 53.9435 100.629 54.0077 101.375 54.2215C102.099 54.414 102.823 54.6919 103.484 55.0341C104.783 53.7083 105.38 52.4681 105.294 51.3134L96.4751 52.1045L96.3047 50.2656L106.828 49.3247L106.999 51.1637C107.084 52.019 106.935 52.853 106.551 53.6655C106.168 54.4781 105.657 55.2479 105.017 55.9749C105.784 56.5523 106.445 57.1938 106.956 57.9208C107.467 58.6479 107.766 59.4177 107.829 60.2516L108 62.0906L97.4763 63.0315L97.3059 61.1925L106.104 60.4013C106.061 59.824 105.827 59.268 105.422 58.7334C105.017 58.1988 104.442 57.6642 103.718 57.1724C103.122 57.6428 102.461 58.0705 101.758 58.434C101.034 58.7975 100.352 59.0114 99.6492 59.0541C98.861 59.1183 98.2006 58.9686 97.7107 58.5623C97.2207 58.156 96.9225 57.5787 96.8586 56.8089C96.752 56.0177 96.9438 55.3762 97.3698 54.863ZM98.6906 55.9536C98.5415 56.0819 98.4989 56.3171 98.5202 56.6378C98.5415 56.9372 98.6267 57.1296 98.7758 57.2366C98.9249 57.3435 99.1592 57.3649 99.4575 57.3435C99.8196 57.3007 100.224 57.1938 100.672 57.0013C101.119 56.8089 101.566 56.5523 102.014 56.2529C101.545 56.0391 101.076 55.8894 100.608 55.8039C100.16 55.697 99.7557 55.6756 99.3936 55.7183C99.074 55.7397 98.8397 55.8253 98.6906 55.9536Z" fill="#BDFB0F"/>
<path d="M107.063 68.3558L104.613 77.3155L102.93 76.845L104.89 69.6816L103.292 69.2325C103.122 69.5533 102.866 69.8099 102.547 70.0023C102.419 70.0665 102.078 70.1948 101.545 70.3872C101.268 70.4728 101.119 70.5155 101.055 70.5583C101.013 70.5797 100.992 70.6011 100.992 70.6224C100.992 70.6438 100.992 70.6866 101.013 70.708C101.034 70.7721 101.162 70.9004 101.354 71.0929C101.418 71.157 101.524 71.2853 101.694 71.4778C101.865 71.6702 101.971 71.8413 102.035 71.9482C102.291 72.3973 102.355 72.8463 102.227 73.3381C102.121 73.7444 101.929 74.0438 101.631 74.2362C101.332 74.4501 100.949 74.6211 100.438 74.7922C100.352 74.8136 100.246 74.8564 100.097 74.9205C99.9477 74.9847 99.8625 75.0274 99.8199 75.0488L98.1583 74.5998C98.2861 74.1293 98.563 73.7658 99.0104 73.5092C99.1382 73.4451 99.479 73.3168 100.012 73.1243C100.289 73.0388 100.438 72.996 100.502 72.9532C100.544 72.9319 100.565 72.9105 100.565 72.8891C100.565 72.8677 100.565 72.8249 100.544 72.8036C100.523 72.7394 100.395 72.6111 100.203 72.4187C100.139 72.3545 100.033 72.2262 99.8625 72.0338C99.6921 71.8413 99.5855 71.6702 99.5216 71.5633C99.266 71.1143 99.2021 70.6652 99.3299 70.1734C99.4577 69.703 99.7347 69.3394 100.182 69.0828C100.31 69.0187 100.672 68.869 101.226 68.6766L98.0304 67.7998L96.0706 74.9633L94.3877 74.4928L96.8375 65.5332L107.063 68.3558Z" fill="#BDFB0F"/>
<path d="M84.3969 87.4298C84.8443 87.387 85.2277 87.4726 85.5686 87.665C85.7177 87.4084 85.8881 87.1946 86.1012 87.0021C86.5485 86.6172 87.0598 86.4675 87.6562 86.5317C87.9332 86.5531 88.1888 86.6386 88.4444 86.7669C88.7001 86.8952 88.9131 87.0663 89.1048 87.3015C89.2539 87.4726 89.3605 87.6436 89.4244 87.8361C89.4457 87.8789 89.4883 87.943 89.5096 88.0499L89.7226 88.0072C90.1061 87.9216 90.4895 87.9644 90.8516 88.0927C91.2351 88.221 91.5333 88.4348 91.789 88.7342C92.0446 89.0336 92.1937 89.3757 92.2576 89.782C92.3215 90.1669 92.2789 90.5518 92.1298 90.9153C92.1085 90.9581 92.0872 91.0222 92.0446 91.1077C92.1511 91.1719 92.215 91.2147 92.2363 91.236C92.4067 91.343 92.5559 91.4713 92.705 91.6637C92.8754 91.8775 93.0245 92.1128 93.1097 92.3908C93.1949 92.6687 93.2162 92.9253 93.1949 93.2247C93.131 93.8234 92.8541 94.3153 92.4067 94.6788C92.1937 94.8498 91.9807 94.9781 91.7037 95.0851L91.7464 95.2561C91.8316 95.6196 91.8103 96.0045 91.6824 96.3681C91.5546 96.7316 91.3416 97.0523 91.0434 97.3089C90.7451 97.5655 90.4256 97.7152 90.0634 97.7794C89.7013 97.8435 89.3392 97.8007 88.9557 97.6724C88.8918 97.6511 88.8066 97.6297 88.7001 97.5655C88.551 97.8435 88.3592 98.0787 88.1249 98.2712C87.6775 98.6561 87.145 98.8271 86.5698 98.763C86.2929 98.7416 86.0159 98.6561 85.7603 98.5278C85.5047 98.3995 85.2917 98.2284 85.1212 98.0146C84.9721 97.8435 84.8656 97.6511 84.8017 97.48C84.7804 97.4586 84.7591 97.3945 84.7165 97.2662C84.6313 97.2875 84.5461 97.3089 84.5035 97.3303C84.12 97.4158 83.7366 97.3731 83.3744 97.2448C82.991 97.1165 82.6927 96.9026 82.4371 96.6033C82.1815 96.3039 82.0323 95.9618 81.9684 95.5769C81.9045 95.192 81.9471 94.8071 82.0963 94.4436L82.1815 94.2297C82.0963 94.1869 82.0323 94.1442 81.9897 94.1014C81.8193 93.9945 81.6702 93.8662 81.5211 93.6951C81.3507 93.4813 81.2015 93.2247 81.1163 92.9681C81.0311 92.6901 81.0098 92.4121 81.0311 92.1555C81.095 91.5568 81.3294 91.065 81.7767 90.7015C81.9897 90.509 82.2454 90.3807 82.5223 90.2952C82.501 90.2524 82.501 90.1669 82.4797 90.0813C82.3945 89.6751 82.4371 89.2902 82.5436 88.948C82.6714 88.6059 82.8845 88.2851 83.204 88.0285C83.5661 87.6222 83.9709 87.4512 84.3969 87.4298ZM90.106 89.6323C89.9569 89.6537 89.7652 89.7392 89.5096 89.8461C89.2752 89.953 89.0835 90.0386 88.9344 90.0813C88.764 90.1241 88.6149 90.1027 88.487 90.0386C88.4231 90.0172 88.3805 89.953 88.3166 89.9103C88.2527 89.8247 88.1888 89.7178 88.1462 89.5895C88.1036 89.4612 88.061 89.2902 88.0397 89.0977C88.0397 89.0763 88.0184 88.9908 87.9971 88.8839C87.9758 88.777 87.9545 88.67 87.9119 88.5845C87.8906 88.499 87.848 88.4348 87.8054 88.3921C87.7415 88.3065 87.6349 88.2638 87.5071 88.2424C87.4006 88.2424 87.2941 88.2638 87.2089 88.3279C87.145 88.3921 87.0811 88.4776 87.0385 88.5631C86.9959 88.6487 86.932 88.7983 86.868 88.9908C86.8041 89.1832 86.7402 89.3329 86.6763 89.4612C86.6124 89.5895 86.5485 89.6751 86.4633 89.7606C86.3994 89.8034 86.3355 89.8461 86.2716 89.8675C86.1225 89.9103 85.9733 89.8889 85.8242 89.8247C85.6751 89.7606 85.5047 89.6537 85.2916 89.504C85.036 89.3329 84.8443 89.226 84.7165 89.1619C84.5674 89.1191 84.4395 89.1405 84.3117 89.2474C84.1839 89.3543 84.1413 89.4826 84.1626 89.6323C84.1839 89.782 84.2691 89.9958 84.3969 90.2738C84.5035 90.509 84.5887 90.7015 84.6313 90.8511C84.6739 91.0222 84.6526 91.1505 84.5887 91.3002C84.5461 91.3643 84.5035 91.4285 84.4608 91.4713C84.3756 91.5354 84.2691 91.5996 84.1413 91.6423C84.0135 91.6851 83.8431 91.7065 83.6513 91.7492C83.4383 91.7706 83.2892 91.8134 83.1827 91.8348C83.0762 91.8562 82.991 91.8989 82.9271 91.9631C82.8419 92.0272 82.7992 92.1341 82.7779 92.2411C82.7566 92.3694 82.7992 92.4763 82.8631 92.5618C82.9271 92.626 83.0123 92.6901 83.0975 92.7329C83.204 92.7756 83.3318 92.8398 83.5235 92.904C83.7153 92.9681 83.8644 93.0322 83.9922 93.0964C84.0987 93.1605 84.2052 93.2247 84.2691 93.3102C84.3117 93.3744 84.3543 93.4385 84.3756 93.5027C84.4182 93.6524 84.3969 93.8021 84.333 93.9517C84.2691 94.1014 84.1626 94.2725 84.0135 94.4863C83.8431 94.7215 83.7366 94.8926 83.694 95.0423C83.63 95.192 83.6727 95.3203 83.7792 95.4486C83.8857 95.5769 84.0135 95.6196 84.1626 95.5983C84.3117 95.5769 84.5248 95.4913 84.7804 95.3844C85.0147 95.2775 85.2064 95.192 85.3556 95.1492C85.526 95.1064 85.6751 95.1278 85.8029 95.192C85.8668 95.2347 85.9307 95.2775 85.9733 95.3203C86.0372 95.4058 86.1011 95.5127 86.1438 95.641C86.1864 95.7693 86.2077 95.9404 86.2503 96.1328C86.2716 96.3467 86.3142 96.4964 86.3355 96.6033C86.3568 96.7102 86.3994 96.7957 86.4633 96.8599C86.5272 96.9454 86.6337 96.9882 86.7615 96.9882C86.8894 97.0096 86.9959 96.9668 87.0598 96.9026C87.1237 96.8385 87.1876 96.753 87.2302 96.6674C87.2728 96.5605 87.3367 96.4322 87.4006 96.2398C87.4645 96.0473 87.5284 95.8976 87.5923 95.7693C87.6562 95.641 87.7202 95.5555 87.8054 95.47C87.8693 95.4272 87.9119 95.3844 87.9971 95.363C88.1462 95.3203 88.2953 95.3203 88.4231 95.3844C88.5723 95.4272 88.764 95.5341 89.0196 95.7052C89.2539 95.8549 89.4457 95.9618 89.5735 96.0045C89.7226 96.0473 89.8504 96.0259 89.9569 95.9404C90.0847 95.8335 90.1274 95.7052 90.106 95.5769C90.0847 95.4272 89.9995 95.2347 89.8717 94.9995C89.7439 94.7643 89.6587 94.5505 89.6374 94.4008C89.5948 94.2511 89.6161 94.1014 89.7013 93.9517C89.7226 93.8876 89.7865 93.8448 89.8291 93.7807C89.9143 93.7165 90.0208 93.6524 90.1487 93.6096C90.2765 93.5668 90.4469 93.5454 90.6386 93.5027C90.8516 93.4813 91.0008 93.4385 91.1073 93.4172C91.2138 93.3958 91.299 93.353 91.3629 93.2888C91.4481 93.2247 91.4907 93.1178 91.4907 92.9895C91.512 92.8612 91.4694 92.7543 91.4055 92.6901C91.3416 92.626 91.2564 92.5618 91.1712 92.519C91.0647 92.4763 90.9369 92.4121 90.7451 92.348C90.5534 92.2838 90.4043 92.2197 90.2765 92.1555C90.1487 92.0914 90.0634 92.0272 89.9782 91.9417C89.9356 91.8775 89.893 91.8348 89.8717 91.7492C89.8291 91.5996 89.8504 91.4499 89.9143 91.3002C89.9782 91.1505 90.0847 90.9794 90.2339 90.7656C90.4043 90.5304 90.5108 90.3379 90.5534 90.1883C90.596 90.0386 90.5747 89.9103 90.4682 89.782C90.383 89.6537 90.2552 89.6109 90.106 89.6323Z" fill="#BDFB0F"/>
<path d="M65.7781 97.202C66.6089 97.6083 67.2906 98.2284 67.8232 99.041C68.3344 99.8536 68.654 100.816 68.7392 101.885C68.8244 102.954 68.6966 103.959 68.3131 104.857C67.9297 105.755 67.3758 106.461 66.6089 107.017C65.842 107.552 64.9686 107.872 63.9461 107.958C62.9448 108.043 62.0288 107.936 61.2193 107.637C60.4098 107.338 59.7495 106.889 59.2595 106.269C58.7695 105.648 58.4926 104.943 58.4074 104.109L60.3246 103.959C60.3672 104.451 60.5377 104.857 60.8572 105.242C61.1554 105.606 61.5815 105.884 62.0927 106.055C62.604 106.226 63.1792 106.29 63.8183 106.247C64.4786 106.183 65.0538 105.969 65.5438 105.606C66.0337 105.242 66.3959 104.75 66.6515 104.13C66.8858 103.532 66.9924 102.847 66.9284 102.099C66.8645 101.35 66.6728 100.688 66.332 100.132C65.9911 99.5756 65.5438 99.1479 65.0112 98.8699C64.4573 98.592 63.8609 98.4636 63.2005 98.5278C62.5614 98.5706 62.0075 98.7416 61.5389 98.9982C61.0702 99.2548 60.7081 99.597 60.4524 100.003C60.2181 100.41 60.1116 100.859 60.1542 101.35L58.237 101.5C58.1731 100.666 58.3222 99.9177 58.7056 99.2335C59.0891 98.5492 59.6642 97.9932 60.4098 97.5442C61.1554 97.1165 62.0501 96.8599 63.0514 96.7744C64.01 96.6247 64.926 96.7744 65.7781 97.202Z" fill="#BDFB0F"/>
<path d="M53.6993 107.509L51.8886 107.124L53.7419 98.4637L46.8398 96.9669L47.202 95.2562L55.8935 97.138L53.6993 107.509Z" fill="#BDFB0F"/>
<path d="M44.8592 95.2561C44.6462 95.3417 44.348 95.3844 43.9432 95.4486C43.9006 95.4486 43.7941 95.47 43.645 95.47C43.4959 95.4913 43.4107 95.5127 43.3894 95.5555C43.3681 95.5983 43.4107 95.6838 43.4959 95.7907C43.5811 95.919 43.645 95.9832 43.6663 96.0259C43.8793 96.3681 44.0284 96.646 44.1137 96.8599C44.2841 97.3089 44.2628 97.758 44.0497 98.1856C43.858 98.6133 43.5172 98.9127 43.0698 99.0624C42.8568 99.1479 42.5586 99.1907 42.1538 99.2548C42.1112 99.2548 42.0047 99.2762 41.8556 99.2762C41.7065 99.2762 41.6212 99.319 41.5999 99.3403C41.5786 99.3831 41.6212 99.4686 41.7065 99.5969C41.7917 99.7252 41.8556 99.8108 41.8769 99.8322C42.0899 100.174 42.239 100.452 42.3242 100.666C42.4947 101.115 42.4733 101.564 42.2816 101.992C42.0899 102.42 41.7491 102.719 41.3017 102.869C41.1313 102.933 40.9396 102.997 40.7478 103.018C40.5561 103.04 40.4283 103.061 40.3857 103.061C40.0662 103.104 39.8744 103.125 39.8531 103.168L38.3193 102.441C38.5111 102.013 38.8519 101.714 39.2993 101.564C39.4697 101.479 39.6614 101.436 39.8531 101.415C40.0448 101.393 40.1727 101.372 40.2153 101.372C40.5561 101.372 40.7265 101.329 40.7478 101.265C40.7691 101.222 40.7265 101.137 40.6413 101.008C40.5561 100.88 40.4922 100.816 40.4709 100.773C40.2579 100.431 40.1088 100.153 40.0448 99.9605C39.8744 99.49 39.8957 99.041 40.1088 98.6347C40.3005 98.207 40.6413 97.9077 41.0887 97.758C41.3017 97.6724 41.5999 97.6083 41.9834 97.5655C42.026 97.5655 42.1112 97.5655 42.2603 97.5441C42.4094 97.5441 42.4947 97.5014 42.516 97.4586C42.5373 97.4158 42.516 97.3303 42.4094 97.202C42.3242 97.0737 42.2603 97.0096 42.239 96.9668C42.026 96.6247 41.8769 96.3467 41.813 96.1542C41.6425 95.7052 41.6638 95.2561 41.8556 94.8285C42.0473 94.4222 42.3881 94.1228 42.8355 93.9303C43.0059 93.8662 43.1763 93.8234 43.3681 93.7807C43.5598 93.7593 43.6876 93.7379 43.7302 93.7379L44.2628 93.631L45.8179 94.358C45.6474 94.8071 45.3066 95.1064 44.8592 95.2561Z" fill="#BDFB0F"/>
<path d="M38.4684 90.8084C38.7879 91.6851 38.8518 92.6046 38.6601 93.5455C38.4684 94.4864 38.0423 95.3845 37.3393 96.2398C36.6577 97.0737 35.8695 97.6939 34.9748 98.0788C34.08 98.4637 33.1853 98.592 32.2693 98.4423C31.3533 98.314 30.5012 97.9077 29.6917 97.2662C28.9035 96.6247 28.3283 95.919 27.9449 95.1279C27.5614 94.3367 27.4123 93.5669 27.4762 92.7757C27.5401 91.9845 27.8384 91.2788 28.3709 90.6373L29.8621 91.8562C29.5639 92.2411 29.3935 92.6688 29.3509 93.1392C29.3296 93.6096 29.4361 94.1015 29.6917 94.5719C29.9473 95.0637 30.3095 95.4914 30.7994 95.8977C31.3107 96.3253 31.8646 96.5605 32.4823 96.6247C33.1001 96.6888 33.6966 96.6033 34.2931 96.3253C34.8895 96.0473 35.4221 95.6411 35.8908 95.0423C36.3594 94.465 36.679 93.8449 36.8068 93.2034C36.9559 92.5618 36.9133 91.9631 36.7216 91.3644C36.5298 90.787 36.1677 90.2738 35.6564 89.8675C35.1665 89.4613 34.6552 89.1833 34.1439 89.055C33.6114 88.9053 33.1214 88.9053 32.6741 89.0336C32.2054 89.1619 31.822 89.4185 31.5237 89.782L30.0325 88.5632C30.5651 87.9217 31.1829 87.4726 31.9498 87.2588C32.6954 87.0236 33.5049 87.0236 34.3357 87.2374C35.1878 87.4512 35.9973 87.8789 36.7642 88.5204C37.595 89.1619 38.1488 89.9317 38.4684 90.8084Z" fill="#BDFB0F"/>
<path d="M22.5972 89.8034L21.5747 88.2638L25.3239 85.762L18.8905 84.1796L17.5059 82.084L22.8102 83.367C22.9806 83.0249 23.215 82.7469 23.5132 82.5331C23.6197 82.4689 23.7475 82.3834 23.8967 82.3193C24.0458 82.2551 24.131 82.2123 24.1949 82.1696C24.3653 82.1054 24.4931 82.0199 24.6209 81.9557C24.7488 81.8916 24.8127 81.806 24.834 81.7205C24.8553 81.635 24.834 81.5494 24.7914 81.4425C24.7488 81.3356 24.6422 81.1432 24.4931 80.8438C24.2375 80.3734 24.0671 79.9671 23.9606 79.6249C23.854 79.2828 23.8753 78.9621 24.0032 78.6199C24.131 78.2778 24.3653 77.9784 24.7062 77.7432C24.8553 77.6363 25.0257 77.5508 25.1748 77.4866C25.473 77.3797 25.8778 77.2728 26.3678 77.1872L26.9003 77.0803L27.8376 78.513C27.6885 78.6199 27.5394 78.6841 27.369 78.7268C27.1986 78.7696 26.9429 78.8124 26.6234 78.8765C26.5595 78.8765 26.453 78.8979 26.2825 78.9193C26.1121 78.9407 25.9843 78.9621 25.9204 78.9834C25.8565 79.0048 25.7713 79.0262 25.7287 79.069C25.6435 79.1117 25.6222 79.1973 25.6648 79.3256C25.7074 79.4539 25.7926 79.6677 25.9843 79.9885C26.2186 80.4161 26.3891 80.7796 26.4743 81.1004C26.5595 81.4211 26.5808 81.6991 26.5169 82.0199C26.3891 82.5759 26.0482 83.0463 25.537 83.3884C25.3665 83.4953 25.1535 83.6023 24.8766 83.7306L24.7275 83.7947L27.2625 84.4148L30.3514 82.362L31.3739 83.9016L22.5972 89.8034Z" fill="#BDFB0F"/>
<path d="M22.6615 65.3195C22.2354 65.8327 21.5963 66.1106 20.7655 66.1962C20.1051 66.2603 19.4021 66.1962 18.6566 66.0037C17.9323 65.8113 17.208 65.5333 16.5476 65.1912C15.2481 66.5169 14.6517 67.7572 14.7582 68.9332L23.5775 68.0993L23.7479 69.9383L13.2244 70.9433L13.054 69.1043C12.9687 68.249 13.1179 67.415 13.5013 66.6025C13.8848 65.7899 14.396 65.0201 15.0351 64.2931C14.2469 63.7371 13.6078 63.0956 13.0966 62.3685C12.5853 61.6415 12.2871 60.8717 12.2019 60.0378L12.0527 58.156L22.5762 57.151L22.7467 58.99L13.9487 59.8239C14.0126 60.4013 14.2256 60.9572 14.6517 61.4918C15.0564 62.0264 15.6316 62.561 16.3559 63.0314C16.9523 62.5396 17.5914 62.1333 18.3157 61.7698C19.04 61.4063 19.7217 61.1925 20.4034 61.1283C21.1916 61.0428 21.852 61.2138 22.3632 61.6201C22.8745 62.0264 23.1514 62.6038 23.2153 63.3736C23.2792 64.1861 23.1088 64.8276 22.6615 65.3195ZM21.3407 64.2289C21.4898 64.1006 21.5324 63.8654 21.5111 63.5446C21.4898 63.2453 21.4046 63.0528 21.2555 62.9459C21.1064 62.839 20.872 62.8176 20.5525 62.839C20.1903 62.8818 19.7856 62.9887 19.3382 63.1811C18.8909 63.3736 18.4435 63.6302 17.9962 63.9295C18.4648 64.1434 18.9335 64.2717 19.4021 64.3786C19.8495 64.4641 20.2756 64.5069 20.6164 64.4641C20.9572 64.4641 21.2129 64.3786 21.3407 64.2289Z" fill="#BDFB0F"/>
<path d="M12.9258 51.8693L15.333 42.9097L17.0159 43.3587L15.0987 50.5222L16.6963 50.9498C16.8668 50.6291 17.1011 50.3725 17.4419 50.18C17.5698 50.0945 17.9106 49.9662 18.4432 49.7951C18.7201 49.7096 18.8692 49.6454 18.9331 49.6241C18.9757 49.6027 18.997 49.5813 18.997 49.5599C18.997 49.5385 18.997 49.4958 18.9757 49.4744C18.9544 49.4102 18.8266 49.2819 18.6349 49.0895C18.571 49.0253 18.4645 48.897 18.294 48.7046C18.1236 48.5121 18.0171 48.341 17.9532 48.2341C17.6976 47.7851 17.6337 47.336 17.7615 46.8442C17.868 46.4379 18.0597 46.1386 18.358 45.9247C18.6562 45.7109 19.0396 45.5398 19.5509 45.3688C19.6361 45.3474 19.7426 45.3046 19.8917 45.2405C20.0409 45.1763 20.1261 45.1335 20.1687 45.1122L21.8303 45.5612C21.7025 46.0316 21.4255 46.3952 20.9782 46.6518C20.8504 46.7373 20.5095 46.8656 19.977 47.0367C19.7 47.1222 19.5509 47.1863 19.487 47.2077C19.4444 47.2291 19.4231 47.2505 19.4231 47.2719C19.4231 47.2933 19.4231 47.336 19.4444 47.3574C19.4657 47.4216 19.5935 47.5499 19.7852 47.7423C19.8491 47.8065 19.9557 47.9348 20.1261 48.1272C20.2965 48.3197 20.403 48.4907 20.4669 48.5976C20.7225 49.0467 20.7865 49.4958 20.6586 49.9876C20.5308 50.458 20.2539 50.8215 19.8065 51.0781C19.6787 51.1637 19.3166 51.292 18.7627 51.4844L21.9581 52.3397L23.8753 45.1763L25.5582 45.6254L23.1297 54.6278L12.9258 51.8693Z" fill="#BDFB0F"/>
<path d="M35.5069 32.7097C35.0596 32.7525 34.6761 32.6669 34.3353 32.4959C34.1861 32.7525 34.0157 32.9663 33.8027 33.1588C33.3553 33.5437 32.8441 33.6933 32.2476 33.6506C31.9707 33.6292 31.715 33.5437 31.4594 33.4154C31.2038 33.2871 30.9907 33.116 30.799 32.9022C30.6499 32.7311 30.5434 32.56 30.4795 32.3676C30.4582 32.3248 30.4156 32.2607 30.3943 32.1537L30.1812 32.1965C29.7978 32.282 29.4144 32.2607 29.0522 32.1324C28.6688 32.0041 28.3705 31.7902 28.1149 31.4909C27.8593 31.1915 27.7101 30.8494 27.6462 30.4431C27.5823 30.0582 27.6249 29.6733 27.7527 29.3097C27.774 29.267 27.7954 29.2028 27.838 29.1173C27.7314 29.0531 27.6675 29.0104 27.6462 28.989C27.4758 28.8821 27.3267 28.7538 27.1776 28.5827C26.9859 28.3689 26.858 28.1337 26.7728 27.8557C26.6876 27.5777 26.645 27.3211 26.6876 27.0217C26.7515 26.423 27.0072 25.9312 27.4545 25.5463C27.6462 25.3752 27.8806 25.2469 28.1575 25.14L28.1149 24.9689C28.0297 24.6054 28.051 24.2205 28.1788 23.857C28.3066 23.4935 28.5196 23.1727 28.8179 22.8947C29.1161 22.6381 29.4357 22.4884 29.7978 22.4243C30.1599 22.3601 30.5221 22.4029 30.9055 22.5098C30.9694 22.5312 31.0547 22.5526 31.1612 22.6167C31.3103 22.3388 31.502 22.1035 31.7363 21.9111C32.1837 21.5262 32.7163 21.3551 33.2914 21.3979C33.5684 21.4193 33.8453 21.5048 34.1009 21.6331C34.3566 21.7614 34.5696 21.9325 34.74 22.1463C34.8891 22.3174 34.9956 22.5098 35.0596 22.6809C35.0809 22.7023 35.1022 22.7664 35.1448 22.8947C35.23 22.8733 35.3152 22.852 35.3578 22.8306C35.7412 22.745 36.1247 22.7664 36.4868 22.9161C36.8703 23.0444 37.1685 23.2582 37.4241 23.5576C37.6798 23.857 37.8289 24.1991 37.8928 24.584C37.9567 24.9689 37.9141 25.3538 37.765 25.7173L37.6798 25.9312C37.765 25.9739 37.8289 26.0167 37.8715 26.0595C38.0419 26.1664 38.191 26.2947 38.3402 26.4658C38.5319 26.6796 38.6597 26.9362 38.7449 27.1928C38.8301 27.4708 38.8727 27.7488 38.8301 28.0054C38.7875 28.6041 38.5319 29.0959 38.0845 29.4594C37.8715 29.6519 37.6159 29.7802 37.3389 29.8657C37.3602 29.9085 37.3602 29.994 37.3815 30.0796C37.4668 30.4858 37.4454 30.8707 37.3176 31.2129C37.1898 31.5764 36.9768 31.8758 36.6573 32.1324C36.3377 32.4959 35.9543 32.6669 35.5069 32.7097ZM29.7978 30.5286C29.9469 30.5072 30.1386 30.4217 30.3943 30.2934C30.6286 30.1865 30.8203 30.1009 30.9694 30.0582C31.1399 30.0154 31.2677 30.0368 31.4168 30.1009C31.4807 30.1223 31.5233 30.1865 31.5872 30.2292C31.6511 30.3148 31.715 30.4217 31.7576 30.55C31.8002 30.6783 31.8429 30.8494 31.8642 31.0418C31.8642 31.0632 31.8855 31.1487 31.9068 31.2556C31.9281 31.3626 31.9494 31.4695 31.992 31.555C32.0133 31.6405 32.0559 31.7047 32.0985 31.7475C32.1624 31.833 32.2689 31.8758 32.3967 31.8971C32.5032 31.8971 32.6097 31.8758 32.695 31.7902C32.7589 31.7261 32.8228 31.6405 32.8654 31.555C32.908 31.4481 32.9719 31.3198 33.0358 31.1273C33.0997 30.9349 33.1636 30.7852 33.2062 30.6569C33.2701 30.5286 33.334 30.4431 33.4192 30.3575C33.4832 30.3148 33.5471 30.272 33.611 30.2506C33.7601 30.2078 33.9092 30.2292 34.0583 30.2934C34.2074 30.3575 34.3779 30.4645 34.5909 30.6141C34.8465 30.7852 35.0382 30.8921 35.1661 30.9563C35.3152 30.999 35.443 30.9777 35.5708 30.8707C35.6986 30.7638 35.7412 30.6355 35.7199 30.4858C35.6986 30.3361 35.6134 30.1223 35.4856 29.8443C35.3791 29.6091 35.2939 29.4167 35.2513 29.267C35.2087 29.0959 35.23 28.9676 35.2939 28.8179C35.3365 28.7538 35.3791 28.6896 35.4217 28.6469C35.5069 28.5827 35.6134 28.5186 35.7412 28.4758C35.8691 28.433 36.0395 28.4116 36.2312 28.3689C36.4442 28.3261 36.5933 28.3047 36.6786 28.2833C36.7851 28.262 36.8703 28.2192 36.9342 28.155C37.0194 28.0909 37.062 27.984 37.0833 27.8771C37.0833 27.7488 37.062 27.6418 36.9981 27.5563C36.9342 27.4922 36.849 27.428 36.7638 27.3852C36.6573 27.3425 36.5294 27.2783 36.3377 27.2142C36.146 27.15 35.9969 27.0859 35.8691 27.0217C35.7625 26.9576 35.656 26.8934 35.5921 26.8079C35.5495 26.7437 35.5069 26.6796 35.4856 26.6154C35.443 26.4658 35.4643 26.3161 35.5282 26.1664C35.5921 26.0167 35.6986 25.8456 35.8477 25.6318C36.0182 25.3966 36.1247 25.2041 36.1673 25.0758C36.2099 24.9262 36.1886 24.7979 36.0821 24.6696C35.9756 24.5413 35.8477 24.4985 35.6986 24.5199C35.5495 24.5413 35.3365 24.6268 35.0809 24.7337C34.8465 24.8406 34.6548 24.9262 34.5057 24.9689C34.3353 25.0117 34.1861 24.9903 34.0583 24.9262C33.9944 24.8834 33.9305 24.8406 33.8879 24.7979C33.824 24.7123 33.7601 24.6054 33.7175 24.4771C33.6749 24.3488 33.6536 24.1777 33.611 23.9853C33.5684 23.7715 33.5471 23.6218 33.5258 23.5362C33.5045 23.4293 33.4619 23.3438 33.3979 23.2796C33.334 23.1941 33.2275 23.1513 33.0997 23.1513C32.9719 23.1513 32.8654 23.1727 32.8015 23.2369C32.7376 23.301 32.6737 23.3865 32.6311 23.4721C32.5884 23.579 32.5245 23.7073 32.4606 23.8998C32.3967 24.0922 32.3328 24.2419 32.2902 24.3702C32.2476 24.4985 32.1624 24.584 32.0772 24.6696C32.0133 24.7123 31.9707 24.7551 31.8855 24.7765C31.7363 24.8192 31.5872 24.8192 31.4594 24.7551C31.3316 24.6909 31.1186 24.6054 30.8629 24.4557C30.6286 24.306 30.4369 24.1991 30.3091 24.1564C30.1599 24.1136 30.0321 24.135 29.9256 24.2419C29.7978 24.3488 29.7552 24.4771 29.7765 24.6054C29.7978 24.7551 29.883 24.9475 30.0108 25.1828C30.1386 25.418 30.2239 25.6318 30.2665 25.7815C30.3091 25.9312 30.2878 26.0809 30.2239 26.2305C30.2026 26.2947 30.1386 26.3375 30.096 26.4016C30.0108 26.4658 29.9043 26.5299 29.7765 26.5727C29.6487 26.6154 29.4783 26.6368 29.2865 26.6796C29.0735 26.7224 28.9244 26.7437 28.8392 26.7651C28.7327 26.7865 28.6475 26.8293 28.5835 26.8934C28.4983 26.9576 28.4557 27.0645 28.4557 27.1928C28.4557 27.3211 28.477 27.428 28.5409 27.4922C28.6049 27.5563 28.6901 27.6205 28.7753 27.6632C28.8818 27.706 29.0096 27.7701 29.2013 27.8343C29.393 27.8984 29.5422 27.9626 29.67 28.0054C29.7978 28.0695 29.883 28.1337 29.9682 28.2192C30.0108 28.2833 30.0534 28.3261 30.0747 28.4116C30.1173 28.5613 30.096 28.711 30.0321 28.8607C29.9682 29.0104 29.8617 29.1814 29.7126 29.3953C29.5422 29.6305 29.4357 29.8229 29.393 29.9726C29.3504 30.1223 29.3717 30.2506 29.4783 30.3789C29.5209 30.5072 29.6487 30.55 29.7978 30.5286Z" fill="#BDFB0F"/>
<path d="M51.9938 42.7168C54.2252 43.7496 56.8759 43.0394 58.292 41.0292C59.1242 39.8478 60.8758 39.8478 61.708 41.0292C63.1241 43.0394 65.7748 43.7496 68.0062 42.7168C69.3177 42.1098 70.8345 42.9856 70.9646 44.4248C71.1858 46.8737 73.1263 48.8142 75.5752 49.0354C77.0144 49.1655 77.8902 50.6823 77.2832 51.9938C76.2504 54.2252 76.9606 56.8759 78.9708 58.292C80.1522 59.1242 80.1522 60.8758 78.9708 61.708C76.9606 63.1241 76.2504 65.7748 77.2832 68.0062C77.8902 69.3177 77.0144 70.8345 75.5752 70.9646C73.1263 71.1858 71.1858 73.1263 70.9646 75.5752C70.8345 77.0144 69.3177 77.8902 68.0062 77.2832C65.7748 76.2504 63.1241 76.9606 61.708 78.9708C60.8758 80.1522 59.1242 80.1522 58.292 78.9708C56.8759 76.9606 54.2252 76.2504 51.9938 77.2832C50.6823 77.8902 49.1655 77.0144 49.0354 75.5752C48.8142 73.1263 46.8737 71.1858 44.4248 70.9646C42.9856 70.8345 42.1098 69.3177 42.7168 68.0062C43.7496 65.7748 43.0394 63.1241 41.0292 61.708C39.8478 60.8758 39.8478 59.1242 41.0292 58.292C43.0394 56.8759 43.7496 54.2252 42.7168 51.9938C42.1098 50.6823 42.9856 49.1655 44.4248 49.0354C46.8737 48.8142 48.8142 46.8737 49.0354 44.4248C49.1655 42.9856 50.6823 42.1098 51.9938 42.7168Z" stroke="#BDFB0F" stroke-width="3"/>
</svg>
