<svg width="485" height="277" viewBox="0 0 485 277" fill="none" xmlns="http://www.w3.org/2000/svg">
<path d="M50.2245 194.444C42.6291 184.578 28.4736 182.737 18.6075 190.333C8.74128 197.928 6.90049 212.084 14.4959 221.95" stroke="white" stroke-width="8" stroke-linecap="round"/>
<path d="M308.549 194.444C300.953 184.578 286.798 182.737 276.932 190.333C267.065 197.928 265.225 212.084 272.82 221.95" stroke="white" stroke-width="8" stroke-linecap="round"/>
<path d="M71.5637 215.629C61.033 208.985 47.1105 212.136 40.4669 222.667C33.8232 233.197 36.9743 247.12 47.5049 253.763" stroke="white" stroke-width="8" stroke-linecap="round"/>
<path d="M329.887 215.629C319.356 208.985 305.434 212.136 298.79 222.667C292.146 233.197 295.298 247.12 305.828 253.763" stroke="white" stroke-width="8" stroke-linecap="round"/>
<path d="M98.3098 228.84C86.1331 226.24 74.1543 234.003 71.5543 246.18C68.9544 258.357 76.7179 270.336 88.8946 272.936" stroke="white" stroke-width="8" stroke-linecap="round"/>
<path d="M356.635 228.84C344.458 226.24 332.479 234.003 329.879 246.18C327.28 258.357 335.043 270.336 347.22 272.936" stroke="white" stroke-width="8" stroke-linecap="round"/>
<path d="M222.676 136.49C222.676 189.616 179.608 232.684 126.481 232.684C73.3548 232.684 30.2871 189.616 30.2871 136.49" stroke="white" stroke-width="8" stroke-linecap="round"/>
<path d="M481 136.49C481 189.616 437.932 232.684 384.806 232.684C331.679 232.684 288.611 189.616 288.611 136.49" stroke="white" stroke-width="8" stroke-linecap="round"/>
<path d="M325.244 51.8355C350.202 23.6084 393.317 20.9583 421.544 45.9162" stroke="white" stroke-width="8" stroke-linecap="round"/>
<path d="M87.5949 43.2504C118.466 21.6489 161.004 29.1635 182.606 60.0349" stroke="white" stroke-width="8" stroke-linecap="round"/>
</svg>
