<svg width="1159" height="119" viewBox="0 0 1159 119" fill="none" xmlns="http://www.w3.org/2000/svg">
<path d="M51.24 114.2C86.184 114.2 102.824 93.336 102.824 63.128H52.52V80.024H81.704C76.328 92.056 64.68 97.176 51.24 97.176C31.784 97.176 18.088 81.688 18.088 59.8C18.088 37.912 31.784 22.424 51.24 22.424C69.8 22.424 82.984 32.664 82.984 47H101.544C101.544 22.68 80.68 5.39999 51.24 5.39999C21.288 5.39999 0.0400004 27.928 0.0400004 59.8C0.0400004 91.672 21.288 114.2 51.24 114.2ZM122.675 111H212.275V94.104H140.595V62.104C142.643 65.176 145.459 69.4 146.995 70.936C150.579 74.392 154.803 76.184 159.411 76.184C164.147 76.184 168.371 74.392 171.827 70.936C174.259 68.504 179.891 59.416 180.915 58.392C181.299 57.88 181.427 57.88 181.683 57.88C181.811 57.88 181.939 57.88 182.451 58.392C183.475 59.416 188.979 68.504 191.411 70.936C194.995 74.392 199.091 76.184 203.827 76.184V59.544C203.699 59.544 200.883 56.216 199.859 54.424C195.251 47.384 190.643 41.368 181.683 41.368C176.947 41.368 172.723 43.16 169.267 46.616C166.835 49.048 161.203 58.136 160.179 59.16C159.795 59.544 159.667 59.544 159.411 59.544C159.283 59.544 159.155 59.544 158.643 59.16C157.619 58.136 152.115 49.048 149.683 46.616C146.995 44.056 143.923 42.392 140.595 41.624V25.496H212.275V8.6H122.675V111ZM259.266 111H277.186V25.496H313.922V8.6H222.53V25.496H259.266V111ZM373.55 111H390.19L394.542 107.928C396.846 106.392 399.534 104.856 401.71 102.552C405.038 99.096 406.702 95.128 406.702 90.648C406.702 86.168 405.038 82.2 401.71 78.872C399.534 76.568 396.846 74.904 394.542 73.496C393.006 72.6 390.19 71.32 390.19 70.296C390.19 69.4 393.006 68.12 394.542 67.224C396.846 65.816 399.534 64.152 401.71 61.848C405.038 58.52 406.702 54.552 406.702 50.072C406.702 45.592 405.038 41.624 401.71 38.168C399.534 35.864 396.846 34.2 394.542 32.792C393.006 31.896 390.19 30.616 390.19 29.72C390.19 28.824 393.006 27.416 394.542 26.648C396.846 25.112 399.534 23.576 401.71 21.144C405.038 17.816 406.702 13.848 406.702 9.368H390.19C389.806 10.008 387.246 11.544 385.838 12.44C383.534 13.976 380.846 15.512 378.542 17.944C375.214 21.272 373.55 25.24 373.55 29.72C373.55 34.2 375.214 38.168 378.542 41.496C380.846 43.8 383.534 45.464 385.838 46.872C387.246 47.768 390.19 49.176 390.19 50.072C390.19 50.968 387.246 52.248 385.838 53.144C383.534 54.552 380.846 56.216 378.542 58.52C375.214 61.848 373.55 65.816 373.55 70.296C373.55 74.776 375.214 78.872 378.542 82.2C380.846 84.504 383.534 86.168 385.838 87.576C387.246 88.472 390.19 89.752 390.19 90.648C390.19 91.544 387.246 92.952 385.838 93.848C383.534 95.256 380.846 96.92 378.542 99.224C375.214 102.552 373.55 106.52 373.55 111ZM432.3 111H450.22V30.616L505.004 111H528.3V8.6H510.38V88.984L455.596 8.6H432.3V111ZM624.641 111H642.561V25.496H679.297V8.6H587.905V25.496H624.641V111ZM746.801 118.68C754.737 118.68 761.137 114.84 764.977 107.928C765.361 107.288 765.745 106.648 766.001 106.008C773.553 108.952 782.257 107.8 788.657 101.4C793.905 96.152 795.953 88.088 793.777 80.92C793.649 80.152 793.393 79.512 793.137 78.872L795.057 77.848C801.713 74.264 805.937 67.224 805.937 59.672C805.937 52.12 801.713 44.952 795.057 41.368C794.417 40.984 793.777 40.728 793.137 40.472C793.393 39.704 793.649 39.064 793.777 38.424C795.953 31.256 794.033 23.192 788.657 17.816C781.873 11.288 772.913 10.52 765.361 13.464C764.977 12.696 764.593 11.928 764.081 11.16C760.241 4.632 753.841 0.919998 746.289 0.919998C738.097 0.919998 731.569 5.52799 728.241 11.8L727.473 13.208C720.305 10.52 711.473 11.544 704.945 17.816C699.569 23.192 697.649 31.256 699.825 38.424C699.953 39.064 700.209 39.704 700.465 40.472C699.825 40.728 699.185 40.984 698.545 41.368C691.889 44.952 687.665 52.12 687.665 59.672C687.665 67.224 691.889 74.264 698.545 77.848L700.465 78.872C700.209 79.512 699.953 80.152 699.825 80.92C697.649 88.088 699.697 96.152 704.945 101.4C711.089 107.544 719.665 109.08 727.601 106.008C730.161 112.408 737.329 118.68 746.801 118.68ZM704.305 59.672C704.305 52.632 718.257 55.448 720.945 48.92C723.633 42.52 711.729 34.456 716.721 29.592C717.617 28.696 718.513 28.312 719.537 28.312C723.761 28.312 729.265 34.2 734.001 34.2C734.769 34.2 735.409 34.072 736.049 33.816C742.577 31.128 739.505 17.432 746.289 17.432C752.689 17.432 751.025 31.128 757.553 33.816C758.193 34.072 758.833 34.2 759.601 34.2C764.337 34.2 769.841 28.312 774.065 28.312C775.089 28.312 775.985 28.696 776.881 29.592C781.873 34.456 769.969 42.52 772.657 48.92C775.345 55.448 789.297 52.632 789.297 59.672C789.297 66.584 775.345 63.896 772.657 70.296C769.969 76.824 781.873 84.76 776.881 89.752C775.985 90.648 775.089 90.904 774.065 90.904C769.841 90.904 764.337 85.016 759.601 85.016C758.833 85.016 758.193 85.144 757.553 85.4C751.025 88.088 753.841 102.168 746.801 102.168C739.761 102.168 742.577 88.088 736.049 85.4C735.409 85.144 734.769 85.016 734.001 85.016C729.265 85.016 723.761 90.904 719.537 90.904C718.513 90.904 717.617 90.648 716.721 89.752C711.729 84.76 723.633 76.824 720.945 70.296C718.257 63.896 704.305 66.584 704.305 59.672ZM875.976 118.168C880.072 118.168 883.784 116.504 887.112 113.304C890.824 109.976 892.616 102.68 901.576 101.656C904.136 101.4 907.08 101.016 909.896 100.248C914.248 98.84 917.448 96.536 919.496 93.08C921.416 89.752 921.8 85.784 920.776 81.432C920.136 78.616 919.112 76.184 917.96 73.624C917.192 71.96 915.912 69.016 915.912 67.992C915.912 66.84 916.04 66.712 918.472 64.28C921.288 61.592 926.152 56.856 926.152 48.28C926.152 39.576 921.288 34.968 918.472 32.152C916.04 29.848 915.912 29.592 915.912 28.44C915.912 27.416 916.04 27.16 918.472 24.856C921.288 22.04 926.152 17.304 926.152 8.728H908.872C908.872 9.88 898.632 19.864 898.632 28.44C898.632 37.144 903.496 41.752 906.44 44.568C908.872 46.872 908.872 47.128 908.872 48.28C908.872 49.304 908.872 49.56 906.44 51.864C903.496 54.68 898.632 59.416 898.632 67.992C898.632 72.6 900.552 76.824 902.088 80.536C902.6 81.56 903.112 82.84 903.496 83.992L899.656 84.504C895.688 84.888 891.208 85.4 887.368 87.704C883.528 89.88 880.968 93.464 878.664 96.536C877.896 97.56 876.872 99.096 875.976 100.12C875.08 99.096 874.056 97.56 873.288 96.536C870.984 93.464 868.424 89.88 864.712 87.704C859.592 84.632 853.064 84.76 848.456 83.992C849.992 79.64 853.32 74.008 853.32 67.992C853.32 59.416 848.456 54.68 845.512 51.864C843.08 49.56 843.08 49.304 843.08 48.28C843.08 47.128 843.08 46.872 845.512 44.568C848.456 41.752 853.32 37.144 853.32 28.44C853.32 19.864 843.08 9.88 843.08 8.728H825.8C825.8 17.304 830.664 22.04 833.48 24.856C835.912 27.16 836.04 27.416 836.04 28.44C836.04 29.592 835.912 29.848 833.48 32.152C830.664 34.968 825.8 39.576 825.8 48.28C825.8 56.856 830.664 61.592 833.48 64.28C835.912 66.712 836.04 66.84 836.04 67.992C836.04 69.016 831.816 78.616 831.176 81.432C830.152 85.784 830.536 89.752 832.456 93.08C834.504 96.536 837.704 98.84 842.184 100.248C844.872 101.016 847.816 101.4 850.376 101.656C859.464 102.68 861.128 109.976 864.84 113.304C868.168 116.504 872.008 118.168 875.976 118.168ZM997.24 114.2C1026.68 114.2 1047.54 96.92 1047.54 72.6H1028.98C1028.98 86.936 1015.8 97.176 997.24 97.176C977.784 97.176 964.088 81.688 964.088 59.8C964.088 37.912 977.784 22.424 997.24 22.424C1015.8 22.424 1028.98 32.664 1028.98 47H1047.54C1047.54 22.68 1026.68 5.39999 997.24 5.39999C967.288 5.39999 946.04 27.928 946.04 59.8C946.04 91.672 967.288 114.2 997.24 114.2ZM1066.05 111H1083.97V68.248H1140.55V111H1158.47V8.6H1140.55V51.352H1083.97V8.6H1066.05V111Z" fill="black"/>
</svg>
