<svg width="164" height="88" viewBox="0 0 164 88" fill="none" xmlns="http://www.w3.org/2000/svg">
<path d="M134.188 71.1114C136.171 71.9562 138.359 72.2058 140.483 71.8294C145.07 71.1456 148.406 68.2507 147.959 65.3901C147.909 65.03 147.792 64.6823 147.615 64.3643C153.176 61.5037 156.593 56.3864 155.779 51.1437C155.679 50.4996 155.506 49.8687 155.263 49.2632C159.173 46.7444 161.443 43.2455 160.927 39.7694C160.518 37.7071 159.307 35.8886 157.556 34.7091C158.838 32.5916 159.356 30.1034 159.024 27.6543C157.969 20.93 150.367 16.4624 141.767 17.2944C140.076 14.4001 137.547 12.0791 134.51 10.6338C131.473 9.18843 128.068 8.68569 124.74 9.19104C121.914 9.61628 119.247 10.7629 117 12.519" fill="black"/>
<path d="M134.188 71.1114C136.171 71.9562 138.359 72.2058 140.483 71.8294C145.07 71.1456 148.406 68.2507 147.959 65.3901C147.909 65.03 147.792 64.6823 147.615 64.3643C153.176 61.5037 156.593 56.3864 155.779 51.1437C155.679 50.4996 155.506 49.8687 155.263 49.2632C159.173 46.7444 161.443 43.2455 160.927 39.7694C160.518 37.7071 159.307 35.8886 157.556 34.7091C158.838 32.5916 159.356 30.1034 159.024 27.6543C157.969 20.93 150.367 16.4624 141.767 17.2944C140.076 14.4001 137.547 12.0791 134.51 10.6338C131.473 9.18843 128.068 8.68569 124.74 9.19104C121.914 9.61628 119.247 10.7629 117 12.519" stroke="#BDFB0F" stroke-width="4" stroke-linecap="round" stroke-linejoin="round"/>
<path d="M46 12.5174C43.8019 10.7613 41.193 9.61457 38.4283 9.18932C35.1847 8.68826 31.8677 9.1872 28.9062 10.6217C25.9446 12.0561 23.4746 14.3601 21.8153 17.2359C13.4022 16.4039 5.96511 20.8717 4.9892 27.5961C4.63493 30.0573 5.12192 32.5676 6.36894 34.7081C4.65643 35.8876 3.47127 37.7062 3.07103 39.7685C2.56624 43.1878 4.78729 46.7437 8.61242 49.2626C8.37496 49.8681 8.20563 50.499 8.10764 51.1431C7.3112 56.3973 10.654 61.5034 16.0944 64.3641C15.921 64.6821 15.807 65.0298 15.7579 65.3899C15.3204 68.2506 18.5959 71.0886 23.0716 71.8294C25.1494 72.2058 27.2902 71.9562 29.23 71.1114" fill="black"/>
<path d="M46 12.5174C43.8019 10.7613 41.193 9.61457 38.4283 9.18932C35.1847 8.68826 31.8677 9.1872 28.9062 10.6217C25.9446 12.0561 23.4746 14.3601 21.8153 17.2359C13.4022 16.4039 5.96511 20.8717 4.9892 27.5961C4.63493 30.0573 5.12192 32.5676 6.36894 34.7081C4.65643 35.8876 3.47127 37.7062 3.07103 39.7685C2.56624 43.1878 4.78729 46.7437 8.61242 49.2626C8.37496 49.8681 8.20563 50.499 8.10764 51.1431C7.3112 56.3973 10.654 61.5034 16.0944 64.3641C15.921 64.6821 15.807 65.0298 15.7579 65.3899C15.3204 68.2506 18.5959 71.0886 23.0716 71.8294C25.1494 72.2058 27.2902 71.9562 29.23 71.1114" stroke="#BDFB0F" stroke-width="4" stroke-linecap="round" stroke-linejoin="round"/>
<path d="M142.795 48.5974C141.993 44.9694 138.954 42.271 134.886 41.0466C137.959 36.2054 136.378 28.8814 130.864 23.8815C128.238 21.4502 124.912 19.9145 121.363 19.4939C121.115 15.6731 116.844 11.3535 110.698 9.14266C105.49 7.27197 100.383 7.43069 97.3556 9.22203C95.7061 5.08382 89.2439 2 81.4937 2C73.7435 2 67.3264 5.08382 65.6769 9.22203C62.6379 7.43069 57.5426 7.27197 52.3231 9.14266C46.1772 11.4102 41.9067 15.6731 41.6581 19.4939C38.0973 19.9076 34.7589 21.4437 32.1229 23.8815C26.6209 28.8814 25.0053 36.2054 28.1009 41.0466C24.0789 42.271 21.0399 44.9694 20.1925 48.5974C19.0628 53.926 23.0057 59.4701 29.3775 62.0097C28.7424 62.8807 28.2949 63.8749 28.0634 64.9289C27.832 65.9829 27.8216 67.0738 28.0331 68.132C29.0725 72.5423 34.2355 75.1613 40.0538 74.5491C39.9634 78.007 45.5784 81.635 52.9784 82.7801C58.2996 83.6078 63.1463 82.9275 65.7786 81.2382C67.7105 83.9819 74.0033 86 81.4711 86C88.9388 86 95.2316 83.9819 97.1748 81.2382C99.8185 82.9275 104.654 83.6078 109.964 82.7801C117.364 81.6464 122.979 78.007 122.888 74.5491C128.707 75.1613 133.881 72.5423 134.909 68.132C135.121 67.0738 135.11 65.9829 134.879 64.9289C134.647 63.8749 134.2 62.8807 133.565 62.0097C139.993 59.4701 143.97 53.926 142.795 48.5974Z" fill="black" stroke="#BDFB0F" stroke-width="4" stroke-linecap="round" stroke-linejoin="round"/>
<path d="M71.5004 51.0907C70.584 50.474 69.3412 50.717 68.7245 51.6334C68.1078 52.5498 68.3508 53.7926 69.2672 54.4093L71.5004 51.0907ZM81.5038 55.98L81.5584 53.9807C81.5222 53.9798 81.486 53.9798 81.4499 53.9807L81.5038 55.98ZM93.7686 54.4105C94.6856 53.7948 94.93 52.5523 94.3143 51.6352C93.6986 50.7182 92.4561 50.4738 91.539 51.0895L93.7686 54.4105ZM69.2672 54.4093C72.8928 56.8491 77.1892 58.0971 81.5577 57.9793L81.4499 53.9807C77.9135 54.0761 74.4354 53.0658 71.5004 51.0907L69.2672 54.4093ZM81.4492 57.9793C85.8267 58.0988 90.1328 56.8514 93.7686 54.4105L91.539 51.0895C88.5934 53.067 85.1049 54.0776 81.5584 53.9807L81.4492 57.9793Z" fill="#BDFB0F"/>
<path d="M82.3136 48.4799C83.3685 48.4799 84.2236 47.6248 84.2236 46.5699C84.2236 45.515 83.3685 44.6599 82.3136 44.6599H80.2436C79.1888 44.6599 78.3336 45.515 78.3336 46.5699C78.3336 47.6248 79.1888 48.4799 80.2436 48.4799H82.3136Z" fill="#BDFB0F" stroke="#BDFB0F" stroke-width="4" stroke-miterlimit="10"/>
<path d="M71.5037 40.1701C71.5037 39.5626 71.0112 39.0701 70.4037 39.0701C69.7962 39.0701 69.3037 39.5626 69.3037 40.1701V40.9001C69.3037 41.5076 69.7962 42.0001 70.4037 42.0001C71.0112 42.0001 71.5037 41.5076 71.5037 40.9001V40.1701Z" fill="#BDFB0F" stroke="#BDFB0F" stroke-width="4" stroke-miterlimit="10"/>
<path d="M93.243 40.1701C93.243 39.5626 92.7505 39.0701 92.143 39.0701C91.5355 39.0701 91.043 39.5626 91.043 40.1701V40.9001C91.043 41.5076 91.5355 42.0001 92.143 42.0001C92.7505 42.0001 93.243 41.5076 93.243 40.9001V40.1701Z" fill="#BDFB0F" stroke="#BDFB0F" stroke-width="4" stroke-miterlimit="10"/>
</svg>
