<svg width="117" height="79" viewBox="0 0 117 79" fill="none" xmlns="http://www.w3.org/2000/svg">
<path d="M114.5 39.5C114.5 39.5 95.75 77 58.25 77C20.75 77 2 39.5 2 39.5C2 39.5 20.75 2 58.25 2C95.75 2 114.5 39.5 114.5 39.5Z" fill="white" stroke="#BDFB0F" stroke-width="4" stroke-linecap="round" stroke-linejoin="round"/>
<path d="M58.2501 67.63C73.7859 67.63 86.3801 55.0358 86.3801 39.5C86.3801 23.9642 73.7859 11.37 58.2501 11.37C42.7143 11.37 30.1201 23.9642 30.1201 39.5C30.1201 55.0358 42.7143 67.63 58.2501 67.63Z" fill="#BDFB0F" stroke="#BDFB0F" stroke-width="4" stroke-linecap="round" stroke-linejoin="round"/>
<path d="M58.5 55C67.0604 55 74 48.0604 74 39.5C74 30.9396 67.0604 24 58.5 24C49.9396 24 43 30.9396 43 39.5C43 48.0604 49.9396 55 58.5 55Z" fill="black" stroke="black" stroke-width="4" stroke-miterlimit="10"/>
</svg>
