<svg width="131" height="38" viewBox="0 0 131 38" fill="none" xmlns="http://www.w3.org/2000/svg">
<path d="M85 19.0349L130.192 19.0349M130.192 19.0272C121.332 19.0272 114.155 10.8361 114.155 0.730826M130.192 18.9729C121.332 18.9729 114.155 27.1641 114.155 37.2693" stroke="black" stroke-width="3" stroke-miterlimit="10"/>
<path d="M16.2549 36C13.1615 36 10.4015 35.28 7.97488 33.84C5.54822 32.4 3.65488 30.3866 2.29488 27.8C0.934883 25.2133 0.254883 22.28 0.254883 19C0.254883 15.72 0.934883 12.7866 2.29488 10.2C3.65488 7.61331 5.54822 5.59998 7.97488 4.15998C10.4015 2.71998 13.1615 1.99998 16.2549 1.99998C19.2949 1.99998 22.0015 2.55997 24.3749 3.67997C26.7749 4.77331 28.6416 6.30664 29.9749 8.27998C31.3082 10.2533 31.9749 12.4933 31.9749 15H26.1749C26.1749 13.5333 25.7482 12.2133 24.8949 11.04C24.0682 9.86664 22.8949 8.95998 21.3749 8.31998C19.8815 7.65331 18.1749 7.31998 16.2549 7.31998C14.2549 7.31998 12.4682 7.82664 10.8949 8.83997C9.32155 9.82664 8.09488 11.2 7.21488 12.96C6.33488 14.72 5.89488 16.7333 5.89488 19C5.89488 21.2666 6.33488 23.28 7.21488 25.04C8.09488 26.8 9.32155 28.1866 10.8949 29.2C12.4682 30.1866 14.2549 30.68 16.2549 30.68C18.4682 30.68 20.4015 30.24 22.0549 29.36C23.7349 28.48 24.9749 27.1333 25.7749 25.32H16.6549V20.04H32.3749C32.3749 23.24 31.7749 26.04 30.5749 28.44C29.4015 30.8133 27.6016 32.6666 25.1749 34C22.7749 35.3333 19.8015 36 16.2549 36Z" fill="black"/>
<path d="M55.2583 37.4C53.8717 37.4 52.6317 37.0133 51.5383 36.24C50.445 35.4666 49.685 34.5333 49.2583 33.44C48.4317 33.76 47.5917 33.92 46.7383 33.92C44.9783 33.92 43.4583 33.28 42.1783 32C41.5917 31.4133 41.125 30.72 40.7783 29.92C40.4583 29.12 40.2983 28.2933 40.2983 27.44C40.2983 26.7733 40.3917 26.16 40.5783 25.6C40.605 25.44 40.6717 25.2266 40.7783 24.96L40.1783 24.64C39.1383 24.08 38.3117 23.2933 37.6983 22.28C37.085 21.24 36.7783 20.1333 36.7783 18.96C36.7783 17.7866 37.085 16.68 37.6983 15.64C38.3117 14.6 39.1383 13.8 40.1783 13.24C40.3117 13.16 40.5117 13.0666 40.7783 12.96C40.6717 12.5866 40.605 12.3733 40.5783 12.32C40.3917 11.76 40.2983 11.1333 40.2983 10.44C40.2983 9.58664 40.4583 8.77331 40.7783 7.99998C41.0983 7.19998 41.565 6.49331 42.1783 5.87997C43.5117 4.62664 45.0583 3.99998 46.8183 3.99998C47.6183 3.99998 48.4183 4.14664 49.2183 4.43998L49.4583 3.99998C49.9917 2.98664 50.7517 2.17331 51.7383 1.55997C52.7517 0.919975 53.8717 0.599976 55.0983 0.599976C56.2717 0.599976 57.3383 0.879977 58.2983 1.43998C59.2583 1.99998 60.045 2.78664 60.6583 3.79998C60.765 3.95998 60.8983 4.19998 61.0583 4.51998C61.965 4.17331 62.8583 3.99998 63.7383 3.99998C65.525 3.99998 67.0583 4.62664 68.3383 5.87997C68.9517 6.49331 69.4183 7.19998 69.7383 7.99998C70.0583 8.77331 70.2183 9.58664 70.2183 10.44C70.2183 11.1333 70.125 11.76 69.9383 12.32C69.9383 12.3733 69.8717 12.5866 69.7383 12.96C70.005 13.0666 70.205 13.16 70.3383 13.24C71.3783 13.8 72.205 14.6 72.8183 15.64C73.4317 16.68 73.7383 17.7866 73.7383 18.96C73.7383 20.1333 73.4317 21.24 72.8183 22.28C72.205 23.2933 71.3783 24.08 70.3383 24.64L69.7383 24.96C69.845 25.2266 69.9117 25.44 69.9383 25.6C70.125 26.16 70.2183 26.7733 70.2183 27.44C70.2183 28.2933 70.045 29.12 69.6983 29.92C69.3783 30.72 68.925 31.4133 68.3383 32C67.0583 33.28 65.5383 33.92 63.7783 33.92C62.8983 33.92 62.0583 33.76 61.2583 33.44C61.205 33.5733 61.0983 33.7733 60.9383 34.04C60.325 35.1333 59.525 35.96 58.5383 36.52C57.5783 37.1066 56.485 37.4 55.2583 37.4ZM41.9783 18.96C41.9783 19.4666 42.1783 19.84 42.5783 20.08C42.9783 20.2933 43.5917 20.5066 44.4183 20.72C45.165 20.9066 45.765 21.1066 46.2183 21.32C46.6717 21.5333 46.9917 21.8533 47.1783 22.28C47.2583 22.4666 47.2983 22.68 47.2983 22.92C47.2983 23.2666 47.2183 23.64 47.0583 24.04C46.8983 24.4133 46.6583 24.8533 46.3383 25.36C46.285 25.44 46.165 25.64 45.9783 25.96C45.8183 26.2533 45.685 26.5333 45.5783 26.8C45.4983 27.04 45.4583 27.2533 45.4583 27.44C45.4583 27.7866 45.5917 28.0933 45.8583 28.36C46.0983 28.6 46.3917 28.72 46.7383 28.72C47.0317 28.72 47.325 28.6533 47.6183 28.52C47.9117 28.3866 48.325 28.16 48.8583 27.84C49.365 27.52 49.805 27.28 50.1783 27.12C50.5517 26.96 50.9117 26.88 51.2583 26.88C51.4983 26.88 51.7117 26.92 51.8983 27C52.325 27.1866 52.645 27.5066 52.8583 27.96C53.0717 28.4133 53.2717 29.0133 53.4583 29.76C53.6983 30.64 53.925 31.28 54.1383 31.68C54.3783 32.0533 54.7517 32.24 55.2583 32.24C55.765 32.24 56.125 32.0533 56.3383 31.68C56.5783 31.28 56.8183 30.64 57.0583 29.76C57.245 29.0133 57.445 28.4133 57.6583 27.96C57.8717 27.5066 58.1917 27.1866 58.6183 27C58.8317 26.92 59.045 26.88 59.2583 26.88C59.605 26.88 59.965 26.96 60.3383 27.12C60.7117 27.28 61.1517 27.52 61.6583 27.84C62.1917 28.16 62.605 28.3866 62.8983 28.52C63.1917 28.6533 63.485 28.72 63.7783 28.72C64.125 28.72 64.4183 28.6 64.6583 28.36C64.925 28.0933 65.0583 27.7866 65.0583 27.44C65.0583 27.1466 64.9917 26.8533 64.8583 26.56C64.725 26.2666 64.4983 25.8533 64.1783 25.32C63.8583 24.7866 63.6183 24.3466 63.4583 24C63.2983 23.6266 63.2183 23.2666 63.2183 22.92C63.2183 22.68 63.2583 22.4666 63.3383 22.28C63.525 21.8533 63.845 21.5333 64.2983 21.32C64.7517 21.1066 65.3517 20.9066 66.0983 20.72C66.925 20.5066 67.5383 20.2933 67.9383 20.08C68.3383 19.84 68.5383 19.4666 68.5383 18.96C68.5383 18.4533 68.3383 18.0933 67.9383 17.88C67.565 17.64 66.9517 17.4 66.0983 17.16C65.3517 16.9733 64.7517 16.7733 64.2983 16.56C63.845 16.3466 63.525 16.0266 63.3383 15.6C63.2583 15.3866 63.2183 15.1733 63.2183 14.96C63.2183 14.6133 63.2983 14.2666 63.4583 13.92C63.6183 13.5466 63.8583 13.0933 64.1783 12.56C64.4983 12.0266 64.725 11.6133 64.8583 11.32C64.9917 11.0266 65.0583 10.7333 65.0583 10.44C65.0583 10.12 64.925 9.82664 64.6583 9.55997C64.3917 9.29331 64.0983 9.15998 63.7783 9.15998C63.485 9.15998 63.1917 9.22664 62.8983 9.35998C62.605 9.49331 62.1917 9.71998 61.6583 10.04C61.1517 10.36 60.7117 10.6 60.3383 10.76C59.965 10.92 59.605 11 59.2583 11C59.045 11 58.8317 10.96 58.6183 10.88C58.1917 10.6933 57.8583 10.4 57.6183 9.99998C57.405 9.59998 57.1517 8.97331 56.8583 8.11998C56.6183 7.31998 56.3783 6.73331 56.1383 6.35998C55.8983 5.95998 55.5517 5.75998 55.0983 5.75998C54.6183 5.75998 54.2717 5.95998 54.0583 6.35998C53.845 6.73331 53.645 7.31998 53.4583 8.11998C53.2717 8.91998 53.0717 9.53331 52.8583 9.95998C52.6717 10.3866 52.3517 10.6933 51.8983 10.88C51.7117 10.96 51.4983 11 51.2583 11C50.9117 11 50.5517 10.92 50.1783 10.76C49.805 10.6 49.365 10.36 48.8583 10.04C48.325 9.71998 47.9117 9.49331 47.6183 9.35998C47.325 9.22664 47.0317 9.15998 46.7383 9.15998C46.4183 9.15998 46.125 9.29331 45.8583 9.55997C45.5917 9.82664 45.4583 10.12 45.4583 10.44C45.4583 10.7333 45.525 11.0266 45.6583 11.32C45.7917 11.6133 46.0183 12.0266 46.3383 12.56C46.6583 13.0666 46.8983 13.5066 47.0583 13.88C47.2183 14.2533 47.2983 14.6133 47.2983 14.96C47.2983 15.1733 47.2583 15.3866 47.1783 15.6C46.9917 16.0266 46.6717 16.3466 46.2183 16.56C45.765 16.7733 45.165 16.9733 44.4183 17.16C43.565 17.4 42.9383 17.64 42.5383 17.88C42.165 18.0933 41.9783 18.4533 41.9783 18.96Z" fill="black"/>
</svg>
