<svg width="150" height="150" viewBox="0 0 150 150" fill="none" xmlns="http://www.w3.org/2000/svg">
<path d="M75 12.5C109.462 12.5 137.5 40.5375 137.5 75C137.5 109.462 109.462 137.5 75 137.5C40.5375 137.5 12.5 109.462 12.5 75C12.5 40.5375 40.5375 12.5 75 12.5ZM75 0C33.5813 0 0 33.5813 0 75C0 116.419 33.5813 150 75 150C116.419 150 150 116.419 150 75C150 33.5813 116.419 0 75 0ZM62.5 50C62.5 53.4812 59.7062 56.3 56.25 56.3C52.7938 56.3 50 53.4875 50 50C50 46.5188 52.7938 43.7 56.25 43.7C59.7062 43.7 62.5 46.525 62.5 50V50ZM62.5 62.5H50V100H62.5V62.5ZM81.25 62.5H68.75V100H81.25V82.1187C81.25 71.3562 93.7625 70.3625 93.7625 82.1187V100H106.25V79.0062C106.25 58.4812 86.7 59.2313 81.25 69.3313V62.5Z" fill="white"/>
</svg>
