<svg width="256" height="27" viewBox="0 0 256 27" fill="none" xmlns="http://www.w3.org/2000/svg">
<path d="M0.482422 25H4.68242V16.57L9.03242 12.52L8.97242 12.88C8.85242 13.54 8.73242 14.32 8.82242 15.16C8.91242 16.27 9.36242 17.26 10.1424 18.1C11.2224 19.27 12.9324 19.45 14.6124 19.6C17.1924 19.84 16.9824 19.87 15.9024 22.24C15.4824 23.2 15.0624 24.1 15.0624 25H18.9624L19.4424 23.86C19.8024 23.08 20.1924 22.18 20.4024 21.22C20.7024 19.81 20.4924 18.58 19.7724 17.59C18.6924 16.09 16.7124 15.91 14.9724 15.73C12.8424 15.55 12.4224 15.64 12.8124 13.54C12.9024 12.88 13.0524 12.13 12.9624 11.32C12.8724 10.63 12.6624 10.03 12.3024 9.46L21.3924 1H15.7224L4.68242 11.23V1H0.482422V25ZM21.2492 25H25.2992C25.5692 23.65 26.0492 22.33 26.7692 21.1C27.2492 20.32 27.7892 19.57 28.3892 18.88C29.1692 20.56 30.5192 21.85 32.1092 22.42C33.1892 22.84 34.4492 22.87 35.5892 22.51C36.8492 22.12 37.8692 21.31 38.4692 20.23C39.1892 18.94 39.1892 17.35 38.5292 15.91C37.7792 14.2 36.1892 12.91 34.4492 12.55C33.5792 12.37 32.6792 12.34 31.7492 12.52C32.0492 10.93 32.5592 9.37 33.2192 7.87C33.6992 6.82 34.2692 5.83 34.9292 4.87L44.0792 25H48.7292L37.9292 1H33.1592C31.7792 2.65 30.6092 4.3 29.7092 6.28C28.8092 8.23 28.1792 10.3 27.8192 12.43C27.7292 13.12 27.6392 13.78 27.6092 14.38C27.3692 14.59 27.1292 14.77 26.8592 14.98C25.5092 16.18 24.3392 17.56 23.4092 19.15C22.4792 20.74 21.6092 23.23 21.2492 25ZM31.6592 16.54C32.6192 16.21 33.2792 16.27 33.6392 16.33C34.1792 16.45 34.7492 16.93 35.0192 17.5C35.1092 17.74 35.2292 18.07 35.0492 18.37C34.8092 18.79 34.0292 19 33.4292 18.79C32.6792 18.52 32.0192 17.71 31.7192 16.72C31.6892 16.66 31.6892 16.6 31.6592 16.54ZM52.0156 25H55.9156L56.9356 24.28C57.4756 23.92 58.1056 23.56 58.6156 23.02C59.3956 22.21 59.7856 21.28 59.7856 20.23C59.7856 19.18 59.3956 18.25 58.6156 17.47C58.1056 16.93 57.4756 16.54 56.9356 16.21C56.5756 16 55.9156 15.7 55.9156 15.46C55.9156 15.25 56.5756 14.95 56.9356 14.74C57.4756 14.41 58.1056 14.02 58.6156 13.48C59.3956 12.7 59.7856 11.77 59.7856 10.72C59.7856 9.67 59.3956 8.74 58.6156 7.93C58.1056 7.39 57.4756 7 56.9356 6.67C56.5756 6.46 55.9156 6.16 55.9156 5.95C55.9156 5.74 56.5756 5.41 56.9356 5.23C57.4756 4.87 58.1056 4.51 58.6156 3.94C59.3956 3.16 59.7856 2.23 59.7856 1.18H55.9156C55.8256 1.33 55.2256 1.69 54.8956 1.9C54.3556 2.26 53.7256 2.62 53.1856 3.19C52.4056 3.97 52.0156 4.9 52.0156 5.95C52.0156 7 52.4056 7.93 53.1856 8.71C53.7256 9.25 54.3556 9.64 54.8956 9.97C55.2256 10.18 55.9156 10.51 55.9156 10.72C55.9156 10.93 55.2256 11.23 54.8956 11.44C54.3556 11.77 53.7256 12.16 53.1856 12.7C52.4056 13.48 52.0156 14.41 52.0156 15.46C52.0156 16.51 52.4056 17.47 53.1856 18.25C53.7256 18.79 54.3556 19.18 54.8956 19.51C55.2256 19.72 55.9156 20.02 55.9156 20.23C55.9156 20.44 55.2256 20.77 54.8956 20.98C54.3556 21.31 53.7256 21.7 53.1856 22.24C52.4056 23.02 52.0156 23.95 52.0156 25ZM82.3592 25H86.5592V4.96H95.1692V1H73.7492V4.96H82.3592V25ZM97.8945 25H101.795L102.815 24.28C103.355 23.92 103.985 23.56 104.495 23.02C105.275 22.21 105.665 21.28 105.665 20.23C105.665 19.18 105.275 18.25 104.495 17.47C103.985 16.93 103.355 16.54 102.815 16.21C102.455 16 101.795 15.7 101.795 15.46C101.795 15.25 102.455 14.95 102.815 14.74C103.355 14.41 103.985 14.02 104.495 13.48C105.275 12.7 105.665 11.77 105.665 10.72C105.665 9.67 105.275 8.74 104.495 7.93C103.985 7.39 103.355 7 102.815 6.67C102.455 6.46 101.795 6.16 101.795 5.95C101.795 5.74 102.455 5.41 102.815 5.23C103.355 4.87 103.985 4.51 104.495 3.94C105.275 3.16 105.665 2.23 105.665 1.18H101.795C101.705 1.33 101.105 1.69 100.775 1.9C100.235 2.26 99.6045 2.62 99.0645 3.19C98.2845 3.97 97.8945 4.9 97.8945 5.95C97.8945 7 98.2845 7.93 99.0645 8.71C99.6045 9.25 100.235 9.64 100.775 9.97C101.105 10.18 101.795 10.51 101.795 10.72C101.795 10.93 101.105 11.23 100.775 11.44C100.235 11.77 99.6045 12.16 99.0645 12.7C98.2845 13.48 97.8945 14.41 97.8945 15.46C97.8945 16.51 98.2845 17.47 99.0645 18.25C99.6045 18.79 100.235 19.18 100.775 19.51C101.105 19.72 101.795 20.02 101.795 20.23C101.795 20.44 101.105 20.77 100.775 20.98C100.235 21.31 99.6045 21.7 99.0645 22.24C98.2845 23.02 97.8945 23.95 97.8945 25ZM111.664 25H115.864V6.16L128.704 25H134.164V1H129.964V19.84L117.124 1H111.664V25ZM150.82 25.75C159.01 25.75 162.91 20.86 162.91 13.78H151.12V17.74H157.96C156.7 20.56 153.97 21.76 150.82 21.76C146.26 21.76 143.05 18.13 143.05 13C143.05 7.87 146.26 4.24 150.82 4.24C155.17 4.24 158.26 6.64 158.26 10H162.61C162.61 4.3 157.72 0.249999 150.82 0.249999C143.8 0.249999 138.82 5.53 138.82 13C138.82 20.47 143.8 25.75 150.82 25.75ZM178.227 25H182.427V14.98H195.687V25H199.887V1H195.687V11.02H182.427V1H178.227V25ZM215.933 25.6C222.713 25.6 227.483 22.48 227.483 18.07C227.483 6.82 209.183 14.23 209.183 7.6C209.183 5.68 211.973 4.3 215.933 4.3C219.533 4.3 222.083 5.68 222.083 7.6H226.283C226.283 3.37 221.993 0.399998 215.933 0.399998C209.513 0.399998 204.983 3.37 204.983 7.6C204.983 18.97 223.283 11.32 223.283 18.07C223.283 20.2 220.253 21.7 215.933 21.7C211.613 21.7 208.583 20.2 208.583 18.07H204.383C204.383 22.48 209.153 25.6 215.933 25.6ZM243.746 26.68C244.706 26.68 245.576 26.29 246.356 25.54C247.226 24.76 247.646 23.05 249.746 22.81C250.346 22.75 251.036 22.66 251.696 22.48C252.716 22.15 253.466 21.61 253.946 20.8C254.396 20.02 254.486 19.09 254.246 18.07C254.096 17.41 253.856 16.84 253.586 16.24C253.406 15.85 253.106 15.16 253.106 14.92C253.106 14.65 253.136 14.62 253.706 14.05C254.366 13.42 255.506 12.31 255.506 10.3C255.506 8.26 254.366 7.18 253.706 6.52C253.136 5.98 253.106 5.92 253.106 5.65C253.106 5.41 253.136 5.35 253.706 4.81C254.366 4.15 255.506 3.04 255.506 1.03H251.456C251.456 1.3 249.056 3.64 249.056 5.65C249.056 7.69 250.196 8.77 250.886 9.43C251.456 9.97 251.456 10.03 251.456 10.3C251.456 10.54 251.456 10.6 250.886 11.14C250.196 11.8 249.056 12.91 249.056 14.92C249.056 16 249.506 16.99 249.866 17.86C249.986 18.1 250.106 18.4 250.196 18.67L249.296 18.79C248.366 18.88 247.316 19 246.416 19.54C245.516 20.05 244.916 20.89 244.376 21.61C244.196 21.85 243.956 22.21 243.746 22.45C243.536 22.21 243.296 21.85 243.116 21.61C242.576 20.89 241.976 20.05 241.106 19.54C239.906 18.82 238.376 18.85 237.296 18.67C237.656 17.65 238.436 16.33 238.436 14.92C238.436 12.91 237.296 11.8 236.606 11.14C236.036 10.6 236.036 10.54 236.036 10.3C236.036 10.03 236.036 9.97 236.606 9.43C237.296 8.77 238.436 7.69 238.436 5.65C238.436 3.64 236.036 1.3 236.036 1.03H231.986C231.986 3.04 233.126 4.15 233.786 4.81C234.356 5.35 234.386 5.41 234.386 5.65C234.386 5.92 234.356 5.98 233.786 6.52C233.126 7.18 231.986 8.26 231.986 10.3C231.986 12.31 233.126 13.42 233.786 14.05C234.356 14.62 234.386 14.65 234.386 14.92C234.386 15.16 233.396 17.41 233.246 18.07C233.006 19.09 233.096 20.02 233.546 20.8C234.026 21.61 234.776 22.15 235.826 22.48C236.456 22.66 237.146 22.75 237.746 22.81C239.876 23.05 240.266 24.76 241.136 25.54C241.916 26.29 242.816 26.68 243.746 26.68Z" fill="white"/>
</svg>
