<?xml version="1.0" encoding="utf-8"?>
<!-- Generator: Adobe Illustrator 25.0.1, SVG Export Plug-In . SVG Version: 6.00 Build 0)  -->
<svg version="1.1" id="圖層_1" xmlns="http://www.w3.org/2000/svg" xmlns:xlink="http://www.w3.org/1999/xlink" x="0px" y="0px"
	 viewBox="0 0 20.9 24" style="enable-background:new 0 0 20.9 24;" xml:space="preserve">
<style type="text/css">
	.st0{fill:#BDFB0F;}
</style>
<path class="st0" d="M0,24h4.2v-8.4l4.4-4l-0.1,0.4c-0.1,0.7-0.2,1.4-0.1,2.3c0.1,1.1,0.5,2.1,1.3,2.9c1.1,1.2,2.8,1.4,4.5,1.5
	c2.6,0.2,2.4,0.3,1.3,2.6c-0.4,1-0.8,1.9-0.8,2.8h3.9l0.5-1.1c0.4-0.8,0.8-1.7,1-2.6c0.3-1.4,0.1-2.6-0.6-3.6
	c-1.1-1.5-3.1-1.7-4.8-1.9c-2.1-0.2-2.5-0.1-2.2-2.2c0.1-0.7,0.2-1.4,0.2-2.2c-0.1-0.7-0.3-1.3-0.7-1.9L20.9,0h-5.7l-11,10.2V0H0V24
	z"/>
</svg>
