<svg width="4126" height="140" viewBox="0 0 4126 140" fill="none" xmlns="http://www.w3.org/2000/svg">
<path d="M0.36 55.2H5.688L12.78 78.348L19.836 55.2H25.164L32.22 78.348L39.312 55.2H44.64L34.92 84H29.52L22.5 63.192L15.48 84H10.08L0.36 55.2ZM61.4675 86.16C60.2195 86.16 59.1035 85.812 58.1195 85.116C57.1355 84.42 56.4515 83.58 56.0675 82.596C55.3235 82.884 54.5675 83.028 53.7995 83.028C52.2155 83.028 50.8475 82.452 49.6955 81.3C49.1675 80.772 48.7475 80.148 48.4355 79.428C48.1475 78.708 48.0035 77.964 48.0035 77.196C48.0035 76.596 48.0875 76.044 48.2555 75.54C48.2795 75.396 48.3395 75.204 48.4355 74.964L47.8955 74.676C46.9595 74.172 46.2155 73.464 45.6635 72.552C45.1115 71.616 44.8355 70.62 44.8355 69.564C44.8355 68.508 45.1115 67.512 45.6635 66.576C46.2155 65.64 46.9595 64.92 47.8955 64.416C48.0155 64.344 48.1955 64.26 48.4355 64.164C48.3395 63.828 48.2795 63.636 48.2555 63.588C48.0875 63.084 48.0035 62.52 48.0035 61.896C48.0035 61.128 48.1475 60.396 48.4355 59.7C48.7235 58.98 49.1435 58.344 49.6955 57.792C50.8955 56.664 52.2875 56.1 53.8715 56.1C54.5915 56.1 55.3115 56.232 56.0315 56.496L56.2475 56.1C56.7275 55.188 57.4115 54.456 58.2995 53.904C59.2115 53.328 60.2195 53.04 61.3235 53.04C62.3795 53.04 63.3395 53.292 64.2035 53.796C65.0675 54.3 65.7755 55.008 66.3275 55.92C66.4235 56.064 66.5435 56.28 66.6875 56.568C67.5035 56.256 68.3075 56.1 69.0995 56.1C70.7075 56.1 72.0875 56.664 73.2395 57.792C73.7915 58.344 74.2115 58.98 74.4995 59.7C74.7875 60.396 74.9315 61.128 74.9315 61.896C74.9315 62.52 74.8475 63.084 74.6795 63.588C74.6795 63.636 74.6195 63.828 74.4995 64.164C74.7395 64.26 74.9195 64.344 75.0395 64.416C75.9755 64.92 76.7195 65.64 77.2715 66.576C77.8235 67.512 78.0995 68.508 78.0995 69.564C78.0995 70.62 77.8235 71.616 77.2715 72.552C76.7195 73.464 75.9755 74.172 75.0395 74.676L74.4995 74.964C74.5955 75.204 74.6555 75.396 74.6795 75.54C74.8475 76.044 74.9315 76.596 74.9315 77.196C74.9315 77.964 74.7755 78.708 74.4635 79.428C74.1755 80.148 73.7675 80.772 73.2395 81.3C72.0875 82.452 70.7195 83.028 69.1355 83.028C68.3435 83.028 67.5875 82.884 66.8675 82.596C66.8195 82.716 66.7235 82.896 66.5795 83.136C66.0275 84.12 65.3075 84.864 64.4195 85.368C63.5555 85.896 62.5715 86.16 61.4675 86.16ZM49.5155 69.564C49.5155 70.02 49.6955 70.356 50.0555 70.572C50.4155 70.764 50.9675 70.956 51.7115 71.148C52.3835 71.316 52.9235 71.496 53.3315 71.688C53.7395 71.88 54.0275 72.168 54.1955 72.552C54.2675 72.72 54.3035 72.912 54.3035 73.128C54.3035 73.44 54.2315 73.776 54.0875 74.136C53.9435 74.472 53.7275 74.868 53.4395 75.324C53.3915 75.396 53.2835 75.576 53.1155 75.864C52.9715 76.128 52.8515 76.38 52.7555 76.62C52.6835 76.836 52.6475 77.028 52.6475 77.196C52.6475 77.508 52.7675 77.784 53.0075 78.024C53.2235 78.24 53.4875 78.348 53.7995 78.348C54.0635 78.348 54.3275 78.288 54.5915 78.168C54.8555 78.048 55.2275 77.844 55.7075 77.556C56.1635 77.268 56.5595 77.052 56.8955 76.908C57.2315 76.764 57.5555 76.692 57.8675 76.692C58.0835 76.692 58.2755 76.728 58.4435 76.8C58.8275 76.968 59.1155 77.256 59.3075 77.664C59.4995 78.072 59.6795 78.612 59.8475 79.284C60.0635 80.076 60.2675 80.652 60.4595 81.012C60.6755 81.348 61.0115 81.516 61.4675 81.516C61.9235 81.516 62.2475 81.348 62.4395 81.012C62.6555 80.652 62.8715 80.076 63.0875 79.284C63.2555 78.612 63.4355 78.072 63.6275 77.664C63.8195 77.256 64.1075 76.968 64.4915 76.8C64.6835 76.728 64.8755 76.692 65.0675 76.692C65.3795 76.692 65.7035 76.764 66.0395 76.908C66.3755 77.052 66.7715 77.268 67.2275 77.556C67.7075 77.844 68.0795 78.048 68.3435 78.168C68.6075 78.288 68.8715 78.348 69.1355 78.348C69.4475 78.348 69.7115 78.24 69.9275 78.024C70.1675 77.784 70.2875 77.508 70.2875 77.196C70.2875 76.932 70.2275 76.668 70.1075 76.404C69.9875 76.14 69.7835 75.768 69.4955 75.288C69.2075 74.808 68.9915 74.412 68.8475 74.1C68.7035 73.764 68.6315 73.44 68.6315 73.128C68.6315 72.912 68.6675 72.72 68.7395 72.552C68.9075 72.168 69.1955 71.88 69.6035 71.688C70.0115 71.496 70.5515 71.316 71.2235 71.148C71.9675 70.956 72.5195 70.764 72.8795 70.572C73.2395 70.356 73.4195 70.02 73.4195 69.564C73.4195 69.108 73.2395 68.784 72.8795 68.592C72.5435 68.376 71.9915 68.16 71.2235 67.944C70.5515 67.776 70.0115 67.596 69.6035 67.404C69.1955 67.212 68.9075 66.924 68.7395 66.54C68.6675 66.348 68.6315 66.156 68.6315 65.964C68.6315 65.652 68.7035 65.34 68.8475 65.028C68.9915 64.692 69.2075 64.284 69.4955 63.804C69.7835 63.324 69.9875 62.952 70.1075 62.688C70.2275 62.424 70.2875 62.16 70.2875 61.896C70.2875 61.608 70.1675 61.344 69.9275 61.104C69.6875 60.864 69.4235 60.744 69.1355 60.744C68.8715 60.744 68.6075 60.804 68.3435 60.924C68.0795 61.044 67.7075 61.248 67.2275 61.536C66.7715 61.824 66.3755 62.04 66.0395 62.184C65.7035 62.328 65.3795 62.4 65.0675 62.4C64.8755 62.4 64.6835 62.364 64.4915 62.292C64.1075 62.124 63.8075 61.86 63.5915 61.5C63.3995 61.14 63.1715 60.576 62.9075 59.808C62.6915 59.088 62.4755 58.56 62.2595 58.224C62.0435 57.864 61.7315 57.684 61.3235 57.684C60.8915 57.684 60.5795 57.864 60.3875 58.224C60.1955 58.56 60.0155 59.088 59.8475 59.808C59.6795 60.528 59.4995 61.08 59.3075 61.464C59.1395 61.848 58.8515 62.124 58.4435 62.292C58.2755 62.364 58.0835 62.4 57.8675 62.4C57.5555 62.4 57.2315 62.328 56.8955 62.184C56.5595 62.04 56.1635 61.824 55.7075 61.536C55.2275 61.248 54.8555 61.044 54.5915 60.924C54.3275 60.804 54.0635 60.744 53.7995 60.744C53.5115 60.744 53.2475 60.864 53.0075 61.104C52.7675 61.344 52.6475 61.608 52.6475 61.896C52.6475 62.16 52.7075 62.424 52.8275 62.688C52.9475 62.952 53.1515 63.324 53.4395 63.804C53.7275 64.26 53.9435 64.656 54.0875 64.992C54.2315 65.328 54.3035 65.652 54.3035 65.964C54.3035 66.156 54.2675 66.348 54.1955 66.54C54.0275 66.924 53.7395 67.212 53.3315 67.404C52.9235 67.596 52.3835 67.776 51.7115 67.944C50.9435 68.16 50.3795 68.376 50.0195 68.592C49.6835 68.784 49.5155 69.108 49.5155 69.564ZM83.6859 56.748L85.7379 56.316L85.9539 56.244C87.3939 55.932 88.7619 55.656 90.0579 55.416C91.3779 55.176 92.8299 54.996 94.4139 54.876C94.8219 54.852 95.4339 54.84 96.2499 54.84C97.8339 54.84 99.1539 54.936 100.21 55.128C102.466 55.536 104.29 56.292 105.682 57.396C106.762 58.26 107.59 59.316 108.166 60.564C108.742 61.812 109.03 63.264 109.03 64.92C109.03 66.672 108.346 68.412 106.978 70.14C106.522 70.764 105.862 71.46 104.998 72.228C105.91 73.908 106.57 75.66 106.978 77.484C107.41 79.284 107.77 81.456 108.058 84H103.198C102.91 81.648 102.562 79.74 102.154 78.276C101.818 77.052 101.41 75.96 100.93 75C99.7299 75.672 98.4459 76.236 97.0779 76.692C94.9659 77.412 93.0699 77.772 91.3899 77.772C90.4059 77.772 89.5179 77.664 88.7259 77.448V84H83.6859V56.748ZM88.7259 71.22C88.7979 71.772 88.9779 72.156 89.2659 72.372C89.6739 72.708 90.3819 72.876 91.3899 72.876C92.3019 72.876 93.3099 72.72 94.4139 72.408C95.5419 72.096 96.6699 71.664 97.7979 71.112C97.0059 70.536 96.0699 70.044 94.9899 69.636C93.6699 69.132 92.4099 68.88 91.2099 68.88C90.7059 68.88 90.2379 68.94 89.8059 69.06C89.4699 69.18 89.2179 69.324 89.0499 69.492C88.8819 69.66 88.7739 69.924 88.7259 70.284V71.22ZM88.7259 64.308C89.5179 64.092 90.3579 63.984 91.2459 63.984C91.5099 63.984 91.9299 64.008 92.5059 64.056C93.9699 64.2 95.3619 64.536 96.6819 65.064C98.7699 65.808 100.558 66.876 102.046 68.268C102.502 67.836 102.874 67.452 103.162 67.116C103.834 66.252 104.17 65.52 104.17 64.92C104.17 63.264 103.666 62.028 102.658 61.212C101.362 60.204 99.2979 59.7 96.4659 59.7C96.1299 59.7 95.5539 59.724 94.7379 59.772C92.9379 59.892 90.9339 60.18 88.7259 60.636V64.308ZM115.151 55.2H120.191V67.476L133.439 55.2H140.243L129.335 65.352C129.887 66.24 130.163 67.188 130.163 68.196C130.163 68.556 130.127 68.952 130.055 69.384C130.007 69.792 129.971 70.08 129.947 70.248C129.851 70.728 129.803 71.16 129.803 71.544C129.803 71.928 129.887 72.204 130.055 72.372C130.223 72.54 130.451 72.648 130.739 72.696C131.027 72.744 131.627 72.804 132.539 72.876C134.003 73.02 135.179 73.236 136.067 73.524C136.979 73.788 137.723 74.316 138.299 75.108C138.899 75.924 139.199 76.896 139.199 78.024C139.199 78.528 139.151 79.008 139.055 79.464C138.863 80.304 138.479 81.36 137.903 82.632L137.327 84H132.647C132.647 83.52 132.719 83.052 132.863 82.596C133.031 82.14 133.295 81.504 133.655 80.688C133.727 80.544 133.859 80.268 134.051 79.86C134.243 79.428 134.375 79.104 134.447 78.888C134.519 78.672 134.555 78.492 134.555 78.348C134.555 78.084 134.399 77.904 134.087 77.808C133.775 77.712 133.115 77.616 132.107 77.52C130.787 77.4 129.707 77.232 128.867 77.016C128.027 76.776 127.319 76.344 126.743 75.72C125.663 74.568 125.123 73.152 125.123 71.472C125.123 70.944 125.195 70.272 125.339 69.456L125.411 69.024L120.191 73.884V84H115.151V55.2Z" fill="black"/>
<path d="M1044.36 55.2H1049.69L1056.78 78.348L1063.84 55.2H1069.16L1076.22 78.348L1083.31 55.2H1088.64L1078.92 84H1073.52L1066.5 63.192L1059.48 84H1054.08L1044.36 55.2ZM1105.47 86.16C1104.22 86.16 1103.1 85.812 1102.12 85.116C1101.14 84.42 1100.45 83.58 1100.07 82.596C1099.32 82.884 1098.57 83.028 1097.8 83.028C1096.22 83.028 1094.85 82.452 1093.7 81.3C1093.17 80.772 1092.75 80.148 1092.44 79.428C1092.15 78.708 1092 77.964 1092 77.196C1092 76.596 1092.09 76.044 1092.26 75.54C1092.28 75.396 1092.34 75.204 1092.44 74.964L1091.9 74.676C1090.96 74.172 1090.22 73.464 1089.66 72.552C1089.11 71.616 1088.84 70.62 1088.84 69.564C1088.84 68.508 1089.11 67.512 1089.66 66.576C1090.22 65.64 1090.96 64.92 1091.9 64.416C1092.02 64.344 1092.2 64.26 1092.44 64.164C1092.34 63.828 1092.28 63.636 1092.26 63.588C1092.09 63.084 1092 62.52 1092 61.896C1092 61.128 1092.15 60.396 1092.44 59.7C1092.72 58.98 1093.14 58.344 1093.7 57.792C1094.9 56.664 1096.29 56.1 1097.87 56.1C1098.59 56.1 1099.31 56.232 1100.03 56.496L1100.25 56.1C1100.73 55.188 1101.41 54.456 1102.3 53.904C1103.21 53.328 1104.22 53.04 1105.32 53.04C1106.38 53.04 1107.34 53.292 1108.2 53.796C1109.07 54.3 1109.78 55.008 1110.33 55.92C1110.42 56.064 1110.54 56.28 1110.69 56.568C1111.5 56.256 1112.31 56.1 1113.1 56.1C1114.71 56.1 1116.09 56.664 1117.24 57.792C1117.79 58.344 1118.21 58.98 1118.5 59.7C1118.79 60.396 1118.93 61.128 1118.93 61.896C1118.93 62.52 1118.85 63.084 1118.68 63.588C1118.68 63.636 1118.62 63.828 1118.5 64.164C1118.74 64.26 1118.92 64.344 1119.04 64.416C1119.98 64.92 1120.72 65.64 1121.27 66.576C1121.82 67.512 1122.1 68.508 1122.1 69.564C1122.1 70.62 1121.82 71.616 1121.27 72.552C1120.72 73.464 1119.98 74.172 1119.04 74.676L1118.5 74.964C1118.6 75.204 1118.66 75.396 1118.68 75.54C1118.85 76.044 1118.93 76.596 1118.93 77.196C1118.93 77.964 1118.78 78.708 1118.46 79.428C1118.18 80.148 1117.77 80.772 1117.24 81.3C1116.09 82.452 1114.72 83.028 1113.14 83.028C1112.34 83.028 1111.59 82.884 1110.87 82.596C1110.82 82.716 1110.72 82.896 1110.58 83.136C1110.03 84.12 1109.31 84.864 1108.42 85.368C1107.56 85.896 1106.57 86.16 1105.47 86.16ZM1093.52 69.564C1093.52 70.02 1093.7 70.356 1094.06 70.572C1094.42 70.764 1094.97 70.956 1095.71 71.148C1096.38 71.316 1096.92 71.496 1097.33 71.688C1097.74 71.88 1098.03 72.168 1098.2 72.552C1098.27 72.72 1098.3 72.912 1098.3 73.128C1098.3 73.44 1098.23 73.776 1098.09 74.136C1097.94 74.472 1097.73 74.868 1097.44 75.324C1097.39 75.396 1097.28 75.576 1097.12 75.864C1096.97 76.128 1096.85 76.38 1096.76 76.62C1096.68 76.836 1096.65 77.028 1096.65 77.196C1096.65 77.508 1096.77 77.784 1097.01 78.024C1097.22 78.24 1097.49 78.348 1097.8 78.348C1098.06 78.348 1098.33 78.288 1098.59 78.168C1098.86 78.048 1099.23 77.844 1099.71 77.556C1100.16 77.268 1100.56 77.052 1100.9 76.908C1101.23 76.764 1101.56 76.692 1101.87 76.692C1102.08 76.692 1102.28 76.728 1102.44 76.8C1102.83 76.968 1103.12 77.256 1103.31 77.664C1103.5 78.072 1103.68 78.612 1103.85 79.284C1104.06 80.076 1104.27 80.652 1104.46 81.012C1104.68 81.348 1105.01 81.516 1105.47 81.516C1105.92 81.516 1106.25 81.348 1106.44 81.012C1106.66 80.652 1106.87 80.076 1107.09 79.284C1107.26 78.612 1107.44 78.072 1107.63 77.664C1107.82 77.256 1108.11 76.968 1108.49 76.8C1108.68 76.728 1108.88 76.692 1109.07 76.692C1109.38 76.692 1109.7 76.764 1110.04 76.908C1110.38 77.052 1110.77 77.268 1111.23 77.556C1111.71 77.844 1112.08 78.048 1112.34 78.168C1112.61 78.288 1112.87 78.348 1113.14 78.348C1113.45 78.348 1113.71 78.24 1113.93 78.024C1114.17 77.784 1114.29 77.508 1114.29 77.196C1114.29 76.932 1114.23 76.668 1114.11 76.404C1113.99 76.14 1113.78 75.768 1113.5 75.288C1113.21 74.808 1112.99 74.412 1112.85 74.1C1112.7 73.764 1112.63 73.44 1112.63 73.128C1112.63 72.912 1112.67 72.72 1112.74 72.552C1112.91 72.168 1113.2 71.88 1113.6 71.688C1114.01 71.496 1114.55 71.316 1115.22 71.148C1115.97 70.956 1116.52 70.764 1116.88 70.572C1117.24 70.356 1117.42 70.02 1117.42 69.564C1117.42 69.108 1117.24 68.784 1116.88 68.592C1116.54 68.376 1115.99 68.16 1115.22 67.944C1114.55 67.776 1114.01 67.596 1113.6 67.404C1113.2 67.212 1112.91 66.924 1112.74 66.54C1112.67 66.348 1112.63 66.156 1112.63 65.964C1112.63 65.652 1112.7 65.34 1112.85 65.028C1112.99 64.692 1113.21 64.284 1113.5 63.804C1113.78 63.324 1113.99 62.952 1114.11 62.688C1114.23 62.424 1114.29 62.16 1114.29 61.896C1114.29 61.608 1114.17 61.344 1113.93 61.104C1113.69 60.864 1113.42 60.744 1113.14 60.744C1112.87 60.744 1112.61 60.804 1112.34 60.924C1112.08 61.044 1111.71 61.248 1111.23 61.536C1110.77 61.824 1110.38 62.04 1110.04 62.184C1109.7 62.328 1109.38 62.4 1109.07 62.4C1108.88 62.4 1108.68 62.364 1108.49 62.292C1108.11 62.124 1107.81 61.86 1107.59 61.5C1107.4 61.14 1107.17 60.576 1106.91 59.808C1106.69 59.088 1106.48 58.56 1106.26 58.224C1106.04 57.864 1105.73 57.684 1105.32 57.684C1104.89 57.684 1104.58 57.864 1104.39 58.224C1104.2 58.56 1104.02 59.088 1103.85 59.808C1103.68 60.528 1103.5 61.08 1103.31 61.464C1103.14 61.848 1102.85 62.124 1102.44 62.292C1102.28 62.364 1102.08 62.4 1101.87 62.4C1101.56 62.4 1101.23 62.328 1100.9 62.184C1100.56 62.04 1100.16 61.824 1099.71 61.536C1099.23 61.248 1098.86 61.044 1098.59 60.924C1098.33 60.804 1098.06 60.744 1097.8 60.744C1097.51 60.744 1097.25 60.864 1097.01 61.104C1096.77 61.344 1096.65 61.608 1096.65 61.896C1096.65 62.16 1096.71 62.424 1096.83 62.688C1096.95 62.952 1097.15 63.324 1097.44 63.804C1097.73 64.26 1097.94 64.656 1098.09 64.992C1098.23 65.328 1098.3 65.652 1098.3 65.964C1098.3 66.156 1098.27 66.348 1098.2 66.54C1098.03 66.924 1097.74 67.212 1097.33 67.404C1096.92 67.596 1096.38 67.776 1095.71 67.944C1094.94 68.16 1094.38 68.376 1094.02 68.592C1093.68 68.784 1093.52 69.108 1093.52 69.564ZM1127.69 56.748L1129.74 56.316L1129.95 56.244C1131.39 55.932 1132.76 55.656 1134.06 55.416C1135.38 55.176 1136.83 54.996 1138.41 54.876C1138.82 54.852 1139.43 54.84 1140.25 54.84C1141.83 54.84 1143.15 54.936 1144.21 55.128C1146.47 55.536 1148.29 56.292 1149.68 57.396C1150.76 58.26 1151.59 59.316 1152.17 60.564C1152.74 61.812 1153.03 63.264 1153.03 64.92C1153.03 66.672 1152.35 68.412 1150.98 70.14C1150.52 70.764 1149.86 71.46 1149 72.228C1149.91 73.908 1150.57 75.66 1150.98 77.484C1151.41 79.284 1151.77 81.456 1152.06 84H1147.2C1146.91 81.648 1146.56 79.74 1146.15 78.276C1145.82 77.052 1145.41 75.96 1144.93 75C1143.73 75.672 1142.45 76.236 1141.08 76.692C1138.97 77.412 1137.07 77.772 1135.39 77.772C1134.41 77.772 1133.52 77.664 1132.73 77.448V84H1127.69V56.748ZM1132.73 71.22C1132.8 71.772 1132.98 72.156 1133.27 72.372C1133.67 72.708 1134.38 72.876 1135.39 72.876C1136.3 72.876 1137.31 72.72 1138.41 72.408C1139.54 72.096 1140.67 71.664 1141.8 71.112C1141.01 70.536 1140.07 70.044 1138.99 69.636C1137.67 69.132 1136.41 68.88 1135.21 68.88C1134.71 68.88 1134.24 68.94 1133.81 69.06C1133.47 69.18 1133.22 69.324 1133.05 69.492C1132.88 69.66 1132.77 69.924 1132.73 70.284V71.22ZM1132.73 64.308C1133.52 64.092 1134.36 63.984 1135.25 63.984C1135.51 63.984 1135.93 64.008 1136.51 64.056C1137.97 64.2 1139.36 64.536 1140.68 65.064C1142.77 65.808 1144.56 66.876 1146.05 68.268C1146.5 67.836 1146.87 67.452 1147.16 67.116C1147.83 66.252 1148.17 65.52 1148.17 64.92C1148.17 63.264 1147.67 62.028 1146.66 61.212C1145.36 60.204 1143.3 59.7 1140.47 59.7C1140.13 59.7 1139.55 59.724 1138.74 59.772C1136.94 59.892 1134.93 60.18 1132.73 60.636V64.308ZM1159.15 55.2H1164.19V67.476L1177.44 55.2H1184.24L1173.33 65.352C1173.89 66.24 1174.16 67.188 1174.16 68.196C1174.16 68.556 1174.13 68.952 1174.05 69.384C1174.01 69.792 1173.97 70.08 1173.95 70.248C1173.85 70.728 1173.8 71.16 1173.8 71.544C1173.8 71.928 1173.89 72.204 1174.05 72.372C1174.22 72.54 1174.45 72.648 1174.74 72.696C1175.03 72.744 1175.63 72.804 1176.54 72.876C1178 73.02 1179.18 73.236 1180.07 73.524C1180.98 73.788 1181.72 74.316 1182.3 75.108C1182.9 75.924 1183.2 76.896 1183.2 78.024C1183.2 78.528 1183.15 79.008 1183.05 79.464C1182.86 80.304 1182.48 81.36 1181.9 82.632L1181.33 84H1176.65C1176.65 83.52 1176.72 83.052 1176.86 82.596C1177.03 82.14 1177.29 81.504 1177.65 80.688C1177.73 80.544 1177.86 80.268 1178.05 79.86C1178.24 79.428 1178.37 79.104 1178.45 78.888C1178.52 78.672 1178.55 78.492 1178.55 78.348C1178.55 78.084 1178.4 77.904 1178.09 77.808C1177.77 77.712 1177.11 77.616 1176.11 77.52C1174.79 77.4 1173.71 77.232 1172.87 77.016C1172.03 76.776 1171.32 76.344 1170.74 75.72C1169.66 74.568 1169.12 73.152 1169.12 71.472C1169.12 70.944 1169.19 70.272 1169.34 69.456L1169.41 69.024L1164.19 73.884V84H1159.15V55.2Z" fill="black"/>
<path d="M522.36 55.2H527.688L534.78 78.348L541.836 55.2H547.164L554.22 78.348L561.312 55.2H566.64L556.92 84H551.52L544.5 63.192L537.48 84H532.08L522.36 55.2ZM583.467 86.16C582.219 86.16 581.103 85.812 580.119 85.116C579.135 84.42 578.451 83.58 578.067 82.596C577.323 82.884 576.567 83.028 575.799 83.028C574.215 83.028 572.847 82.452 571.695 81.3C571.167 80.772 570.747 80.148 570.435 79.428C570.147 78.708 570.003 77.964 570.003 77.196C570.003 76.596 570.087 76.044 570.255 75.54C570.279 75.396 570.339 75.204 570.435 74.964L569.895 74.676C568.959 74.172 568.215 73.464 567.663 72.552C567.111 71.616 566.835 70.62 566.835 69.564C566.835 68.508 567.111 67.512 567.663 66.576C568.215 65.64 568.959 64.92 569.895 64.416C570.015 64.344 570.195 64.26 570.435 64.164C570.339 63.828 570.279 63.636 570.255 63.588C570.087 63.084 570.003 62.52 570.003 61.896C570.003 61.128 570.147 60.396 570.435 59.7C570.723 58.98 571.143 58.344 571.695 57.792C572.895 56.664 574.287 56.1 575.871 56.1C576.591 56.1 577.311 56.232 578.031 56.496L578.247 56.1C578.727 55.188 579.411 54.456 580.299 53.904C581.211 53.328 582.219 53.04 583.323 53.04C584.379 53.04 585.339 53.292 586.203 53.796C587.067 54.3 587.775 55.008 588.327 55.92C588.423 56.064 588.543 56.28 588.687 56.568C589.503 56.256 590.307 56.1 591.099 56.1C592.707 56.1 594.087 56.664 595.239 57.792C595.791 58.344 596.211 58.98 596.499 59.7C596.787 60.396 596.931 61.128 596.931 61.896C596.931 62.52 596.847 63.084 596.679 63.588C596.679 63.636 596.619 63.828 596.499 64.164C596.739 64.26 596.919 64.344 597.039 64.416C597.975 64.92 598.719 65.64 599.271 66.576C599.823 67.512 600.099 68.508 600.099 69.564C600.099 70.62 599.823 71.616 599.271 72.552C598.719 73.464 597.975 74.172 597.039 74.676L596.499 74.964C596.595 75.204 596.655 75.396 596.679 75.54C596.847 76.044 596.931 76.596 596.931 77.196C596.931 77.964 596.775 78.708 596.463 79.428C596.175 80.148 595.767 80.772 595.239 81.3C594.087 82.452 592.719 83.028 591.135 83.028C590.343 83.028 589.587 82.884 588.867 82.596C588.819 82.716 588.723 82.896 588.579 83.136C588.027 84.12 587.307 84.864 586.419 85.368C585.555 85.896 584.571 86.16 583.467 86.16ZM571.515 69.564C571.515 70.02 571.695 70.356 572.055 70.572C572.415 70.764 572.967 70.956 573.711 71.148C574.383 71.316 574.923 71.496 575.331 71.688C575.739 71.88 576.027 72.168 576.195 72.552C576.267 72.72 576.303 72.912 576.303 73.128C576.303 73.44 576.231 73.776 576.087 74.136C575.943 74.472 575.727 74.868 575.439 75.324C575.391 75.396 575.283 75.576 575.115 75.864C574.971 76.128 574.851 76.38 574.755 76.62C574.683 76.836 574.647 77.028 574.647 77.196C574.647 77.508 574.767 77.784 575.007 78.024C575.223 78.24 575.487 78.348 575.799 78.348C576.063 78.348 576.327 78.288 576.591 78.168C576.855 78.048 577.227 77.844 577.707 77.556C578.163 77.268 578.559 77.052 578.895 76.908C579.231 76.764 579.555 76.692 579.867 76.692C580.083 76.692 580.275 76.728 580.443 76.8C580.827 76.968 581.115 77.256 581.307 77.664C581.499 78.072 581.679 78.612 581.847 79.284C582.063 80.076 582.267 80.652 582.459 81.012C582.675 81.348 583.011 81.516 583.467 81.516C583.923 81.516 584.247 81.348 584.439 81.012C584.655 80.652 584.871 80.076 585.087 79.284C585.255 78.612 585.435 78.072 585.627 77.664C585.819 77.256 586.107 76.968 586.491 76.8C586.683 76.728 586.875 76.692 587.067 76.692C587.379 76.692 587.703 76.764 588.039 76.908C588.375 77.052 588.771 77.268 589.227 77.556C589.707 77.844 590.079 78.048 590.343 78.168C590.607 78.288 590.871 78.348 591.135 78.348C591.447 78.348 591.711 78.24 591.927 78.024C592.167 77.784 592.287 77.508 592.287 77.196C592.287 76.932 592.227 76.668 592.107 76.404C591.987 76.14 591.783 75.768 591.495 75.288C591.207 74.808 590.991 74.412 590.847 74.1C590.703 73.764 590.631 73.44 590.631 73.128C590.631 72.912 590.667 72.72 590.739 72.552C590.907 72.168 591.195 71.88 591.603 71.688C592.011 71.496 592.551 71.316 593.223 71.148C593.967 70.956 594.519 70.764 594.879 70.572C595.239 70.356 595.419 70.02 595.419 69.564C595.419 69.108 595.239 68.784 594.879 68.592C594.543 68.376 593.991 68.16 593.223 67.944C592.551 67.776 592.011 67.596 591.603 67.404C591.195 67.212 590.907 66.924 590.739 66.54C590.667 66.348 590.631 66.156 590.631 65.964C590.631 65.652 590.703 65.34 590.847 65.028C590.991 64.692 591.207 64.284 591.495 63.804C591.783 63.324 591.987 62.952 592.107 62.688C592.227 62.424 592.287 62.16 592.287 61.896C592.287 61.608 592.167 61.344 591.927 61.104C591.687 60.864 591.423 60.744 591.135 60.744C590.871 60.744 590.607 60.804 590.343 60.924C590.079 61.044 589.707 61.248 589.227 61.536C588.771 61.824 588.375 62.04 588.039 62.184C587.703 62.328 587.379 62.4 587.067 62.4C586.875 62.4 586.683 62.364 586.491 62.292C586.107 62.124 585.807 61.86 585.591 61.5C585.399 61.14 585.171 60.576 584.907 59.808C584.691 59.088 584.475 58.56 584.259 58.224C584.043 57.864 583.731 57.684 583.323 57.684C582.891 57.684 582.579 57.864 582.387 58.224C582.195 58.56 582.015 59.088 581.847 59.808C581.679 60.528 581.499 61.08 581.307 61.464C581.139 61.848 580.851 62.124 580.443 62.292C580.275 62.364 580.083 62.4 579.867 62.4C579.555 62.4 579.231 62.328 578.895 62.184C578.559 62.04 578.163 61.824 577.707 61.536C577.227 61.248 576.855 61.044 576.591 60.924C576.327 60.804 576.063 60.744 575.799 60.744C575.511 60.744 575.247 60.864 575.007 61.104C574.767 61.344 574.647 61.608 574.647 61.896C574.647 62.16 574.707 62.424 574.827 62.688C574.947 62.952 575.151 63.324 575.439 63.804C575.727 64.26 575.943 64.656 576.087 64.992C576.231 65.328 576.303 65.652 576.303 65.964C576.303 66.156 576.267 66.348 576.195 66.54C576.027 66.924 575.739 67.212 575.331 67.404C574.923 67.596 574.383 67.776 573.711 67.944C572.943 68.16 572.379 68.376 572.019 68.592C571.683 68.784 571.515 69.108 571.515 69.564ZM605.686 56.748L607.738 56.316L607.954 56.244C609.394 55.932 610.762 55.656 612.058 55.416C613.378 55.176 614.83 54.996 616.414 54.876C616.822 54.852 617.434 54.84 618.25 54.84C619.834 54.84 621.154 54.936 622.21 55.128C624.466 55.536 626.29 56.292 627.682 57.396C628.762 58.26 629.59 59.316 630.166 60.564C630.742 61.812 631.03 63.264 631.03 64.92C631.03 66.672 630.346 68.412 628.978 70.14C628.522 70.764 627.862 71.46 626.998 72.228C627.91 73.908 628.57 75.66 628.978 77.484C629.41 79.284 629.77 81.456 630.058 84H625.198C624.91 81.648 624.562 79.74 624.154 78.276C623.818 77.052 623.41 75.96 622.93 75C621.73 75.672 620.446 76.236 619.078 76.692C616.966 77.412 615.07 77.772 613.39 77.772C612.406 77.772 611.518 77.664 610.726 77.448V84H605.686V56.748ZM610.726 71.22C610.798 71.772 610.978 72.156 611.266 72.372C611.674 72.708 612.382 72.876 613.39 72.876C614.302 72.876 615.31 72.72 616.414 72.408C617.542 72.096 618.67 71.664 619.798 71.112C619.006 70.536 618.07 70.044 616.99 69.636C615.67 69.132 614.41 68.88 613.21 68.88C612.706 68.88 612.238 68.94 611.806 69.06C611.47 69.18 611.218 69.324 611.05 69.492C610.882 69.66 610.774 69.924 610.726 70.284V71.22ZM610.726 64.308C611.518 64.092 612.358 63.984 613.246 63.984C613.51 63.984 613.93 64.008 614.506 64.056C615.97 64.2 617.362 64.536 618.682 65.064C620.77 65.808 622.558 66.876 624.046 68.268C624.502 67.836 624.874 67.452 625.162 67.116C625.834 66.252 626.17 65.52 626.17 64.92C626.17 63.264 625.666 62.028 624.658 61.212C623.362 60.204 621.298 59.7 618.466 59.7C618.13 59.7 617.554 59.724 616.738 59.772C614.938 59.892 612.934 60.18 610.726 60.636V64.308ZM637.151 55.2H642.191V67.476L655.439 55.2H662.243L651.335 65.352C651.887 66.24 652.163 67.188 652.163 68.196C652.163 68.556 652.127 68.952 652.055 69.384C652.007 69.792 651.971 70.08 651.947 70.248C651.851 70.728 651.803 71.16 651.803 71.544C651.803 71.928 651.887 72.204 652.055 72.372C652.223 72.54 652.451 72.648 652.739 72.696C653.027 72.744 653.627 72.804 654.539 72.876C656.003 73.02 657.179 73.236 658.067 73.524C658.979 73.788 659.723 74.316 660.299 75.108C660.899 75.924 661.199 76.896 661.199 78.024C661.199 78.528 661.151 79.008 661.055 79.464C660.863 80.304 660.479 81.36 659.903 82.632L659.327 84H654.647C654.647 83.52 654.719 83.052 654.863 82.596C655.031 82.14 655.295 81.504 655.655 80.688C655.727 80.544 655.859 80.268 656.051 79.86C656.243 79.428 656.375 79.104 656.447 78.888C656.519 78.672 656.555 78.492 656.555 78.348C656.555 78.084 656.399 77.904 656.087 77.808C655.775 77.712 655.115 77.616 654.107 77.52C652.787 77.4 651.707 77.232 650.867 77.016C650.027 76.776 649.319 76.344 648.743 75.72C647.663 74.568 647.123 73.152 647.123 71.472C647.123 70.944 647.195 70.272 647.339 69.456L647.411 69.024L642.191 73.884V84H637.151V55.2Z" fill="black"/>
<path d="M1566.36 55.2H1571.69L1578.78 78.348L1585.84 55.2H1591.16L1598.22 78.348L1605.31 55.2H1610.64L1600.92 84H1595.52L1588.5 63.192L1581.48 84H1576.08L1566.36 55.2ZM1627.47 86.16C1626.22 86.16 1625.1 85.812 1624.12 85.116C1623.14 84.42 1622.45 83.58 1622.07 82.596C1621.32 82.884 1620.57 83.028 1619.8 83.028C1618.22 83.028 1616.85 82.452 1615.7 81.3C1615.17 80.772 1614.75 80.148 1614.44 79.428C1614.15 78.708 1614 77.964 1614 77.196C1614 76.596 1614.09 76.044 1614.26 75.54C1614.28 75.396 1614.34 75.204 1614.44 74.964L1613.9 74.676C1612.96 74.172 1612.22 73.464 1611.66 72.552C1611.11 71.616 1610.84 70.62 1610.84 69.564C1610.84 68.508 1611.11 67.512 1611.66 66.576C1612.22 65.64 1612.96 64.92 1613.9 64.416C1614.02 64.344 1614.2 64.26 1614.44 64.164C1614.34 63.828 1614.28 63.636 1614.26 63.588C1614.09 63.084 1614 62.52 1614 61.896C1614 61.128 1614.15 60.396 1614.44 59.7C1614.72 58.98 1615.14 58.344 1615.7 57.792C1616.9 56.664 1618.29 56.1 1619.87 56.1C1620.59 56.1 1621.31 56.232 1622.03 56.496L1622.25 56.1C1622.73 55.188 1623.41 54.456 1624.3 53.904C1625.21 53.328 1626.22 53.04 1627.32 53.04C1628.38 53.04 1629.34 53.292 1630.2 53.796C1631.07 54.3 1631.78 55.008 1632.33 55.92C1632.42 56.064 1632.54 56.28 1632.69 56.568C1633.5 56.256 1634.31 56.1 1635.1 56.1C1636.71 56.1 1638.09 56.664 1639.24 57.792C1639.79 58.344 1640.21 58.98 1640.5 59.7C1640.79 60.396 1640.93 61.128 1640.93 61.896C1640.93 62.52 1640.85 63.084 1640.68 63.588C1640.68 63.636 1640.62 63.828 1640.5 64.164C1640.74 64.26 1640.92 64.344 1641.04 64.416C1641.98 64.92 1642.72 65.64 1643.27 66.576C1643.82 67.512 1644.1 68.508 1644.1 69.564C1644.1 70.62 1643.82 71.616 1643.27 72.552C1642.72 73.464 1641.98 74.172 1641.04 74.676L1640.5 74.964C1640.6 75.204 1640.66 75.396 1640.68 75.54C1640.85 76.044 1640.93 76.596 1640.93 77.196C1640.93 77.964 1640.78 78.708 1640.46 79.428C1640.18 80.148 1639.77 80.772 1639.24 81.3C1638.09 82.452 1636.72 83.028 1635.14 83.028C1634.34 83.028 1633.59 82.884 1632.87 82.596C1632.82 82.716 1632.72 82.896 1632.58 83.136C1632.03 84.12 1631.31 84.864 1630.42 85.368C1629.56 85.896 1628.57 86.16 1627.47 86.16ZM1615.52 69.564C1615.52 70.02 1615.7 70.356 1616.06 70.572C1616.42 70.764 1616.97 70.956 1617.71 71.148C1618.38 71.316 1618.92 71.496 1619.33 71.688C1619.74 71.88 1620.03 72.168 1620.2 72.552C1620.27 72.72 1620.3 72.912 1620.3 73.128C1620.3 73.44 1620.23 73.776 1620.09 74.136C1619.94 74.472 1619.73 74.868 1619.44 75.324C1619.39 75.396 1619.28 75.576 1619.12 75.864C1618.97 76.128 1618.85 76.38 1618.76 76.62C1618.68 76.836 1618.65 77.028 1618.65 77.196C1618.65 77.508 1618.77 77.784 1619.01 78.024C1619.22 78.24 1619.49 78.348 1619.8 78.348C1620.06 78.348 1620.33 78.288 1620.59 78.168C1620.86 78.048 1621.23 77.844 1621.71 77.556C1622.16 77.268 1622.56 77.052 1622.9 76.908C1623.23 76.764 1623.56 76.692 1623.87 76.692C1624.08 76.692 1624.28 76.728 1624.44 76.8C1624.83 76.968 1625.12 77.256 1625.31 77.664C1625.5 78.072 1625.68 78.612 1625.85 79.284C1626.06 80.076 1626.27 80.652 1626.46 81.012C1626.68 81.348 1627.01 81.516 1627.47 81.516C1627.92 81.516 1628.25 81.348 1628.44 81.012C1628.66 80.652 1628.87 80.076 1629.09 79.284C1629.26 78.612 1629.44 78.072 1629.63 77.664C1629.82 77.256 1630.11 76.968 1630.49 76.8C1630.68 76.728 1630.88 76.692 1631.07 76.692C1631.38 76.692 1631.7 76.764 1632.04 76.908C1632.38 77.052 1632.77 77.268 1633.23 77.556C1633.71 77.844 1634.08 78.048 1634.34 78.168C1634.61 78.288 1634.87 78.348 1635.14 78.348C1635.45 78.348 1635.71 78.24 1635.93 78.024C1636.17 77.784 1636.29 77.508 1636.29 77.196C1636.29 76.932 1636.23 76.668 1636.11 76.404C1635.99 76.14 1635.78 75.768 1635.5 75.288C1635.21 74.808 1634.99 74.412 1634.85 74.1C1634.7 73.764 1634.63 73.44 1634.63 73.128C1634.63 72.912 1634.67 72.72 1634.74 72.552C1634.91 72.168 1635.2 71.88 1635.6 71.688C1636.01 71.496 1636.55 71.316 1637.22 71.148C1637.97 70.956 1638.52 70.764 1638.88 70.572C1639.24 70.356 1639.42 70.02 1639.42 69.564C1639.42 69.108 1639.24 68.784 1638.88 68.592C1638.54 68.376 1637.99 68.16 1637.22 67.944C1636.55 67.776 1636.01 67.596 1635.6 67.404C1635.2 67.212 1634.91 66.924 1634.74 66.54C1634.67 66.348 1634.63 66.156 1634.63 65.964C1634.63 65.652 1634.7 65.34 1634.85 65.028C1634.99 64.692 1635.21 64.284 1635.5 63.804C1635.78 63.324 1635.99 62.952 1636.11 62.688C1636.23 62.424 1636.29 62.16 1636.29 61.896C1636.29 61.608 1636.17 61.344 1635.93 61.104C1635.69 60.864 1635.42 60.744 1635.14 60.744C1634.87 60.744 1634.61 60.804 1634.34 60.924C1634.08 61.044 1633.71 61.248 1633.23 61.536C1632.77 61.824 1632.38 62.04 1632.04 62.184C1631.7 62.328 1631.38 62.4 1631.07 62.4C1630.88 62.4 1630.68 62.364 1630.49 62.292C1630.11 62.124 1629.81 61.86 1629.59 61.5C1629.4 61.14 1629.17 60.576 1628.91 59.808C1628.69 59.088 1628.48 58.56 1628.26 58.224C1628.04 57.864 1627.73 57.684 1627.32 57.684C1626.89 57.684 1626.58 57.864 1626.39 58.224C1626.2 58.56 1626.02 59.088 1625.85 59.808C1625.68 60.528 1625.5 61.08 1625.31 61.464C1625.14 61.848 1624.85 62.124 1624.44 62.292C1624.28 62.364 1624.08 62.4 1623.87 62.4C1623.56 62.4 1623.23 62.328 1622.9 62.184C1622.56 62.04 1622.16 61.824 1621.71 61.536C1621.23 61.248 1620.86 61.044 1620.59 60.924C1620.33 60.804 1620.06 60.744 1619.8 60.744C1619.51 60.744 1619.25 60.864 1619.01 61.104C1618.77 61.344 1618.65 61.608 1618.65 61.896C1618.65 62.16 1618.71 62.424 1618.83 62.688C1618.95 62.952 1619.15 63.324 1619.44 63.804C1619.73 64.26 1619.94 64.656 1620.09 64.992C1620.23 65.328 1620.3 65.652 1620.3 65.964C1620.3 66.156 1620.27 66.348 1620.2 66.54C1620.03 66.924 1619.74 67.212 1619.33 67.404C1618.92 67.596 1618.38 67.776 1617.71 67.944C1616.94 68.16 1616.38 68.376 1616.02 68.592C1615.68 68.784 1615.52 69.108 1615.52 69.564ZM1649.69 56.748L1651.74 56.316L1651.95 56.244C1653.39 55.932 1654.76 55.656 1656.06 55.416C1657.38 55.176 1658.83 54.996 1660.41 54.876C1660.82 54.852 1661.43 54.84 1662.25 54.84C1663.83 54.84 1665.15 54.936 1666.21 55.128C1668.47 55.536 1670.29 56.292 1671.68 57.396C1672.76 58.26 1673.59 59.316 1674.17 60.564C1674.74 61.812 1675.03 63.264 1675.03 64.92C1675.03 66.672 1674.35 68.412 1672.98 70.14C1672.52 70.764 1671.86 71.46 1671 72.228C1671.91 73.908 1672.57 75.66 1672.98 77.484C1673.41 79.284 1673.77 81.456 1674.06 84H1669.2C1668.91 81.648 1668.56 79.74 1668.15 78.276C1667.82 77.052 1667.41 75.96 1666.93 75C1665.73 75.672 1664.45 76.236 1663.08 76.692C1660.97 77.412 1659.07 77.772 1657.39 77.772C1656.41 77.772 1655.52 77.664 1654.73 77.448V84H1649.69V56.748ZM1654.73 71.22C1654.8 71.772 1654.98 72.156 1655.27 72.372C1655.67 72.708 1656.38 72.876 1657.39 72.876C1658.3 72.876 1659.31 72.72 1660.41 72.408C1661.54 72.096 1662.67 71.664 1663.8 71.112C1663.01 70.536 1662.07 70.044 1660.99 69.636C1659.67 69.132 1658.41 68.88 1657.21 68.88C1656.71 68.88 1656.24 68.94 1655.81 69.06C1655.47 69.18 1655.22 69.324 1655.05 69.492C1654.88 69.66 1654.77 69.924 1654.73 70.284V71.22ZM1654.73 64.308C1655.52 64.092 1656.36 63.984 1657.25 63.984C1657.51 63.984 1657.93 64.008 1658.51 64.056C1659.97 64.2 1661.36 64.536 1662.68 65.064C1664.77 65.808 1666.56 66.876 1668.05 68.268C1668.5 67.836 1668.87 67.452 1669.16 67.116C1669.83 66.252 1670.17 65.52 1670.17 64.92C1670.17 63.264 1669.67 62.028 1668.66 61.212C1667.36 60.204 1665.3 59.7 1662.47 59.7C1662.13 59.7 1661.55 59.724 1660.74 59.772C1658.94 59.892 1656.93 60.18 1654.73 60.636V64.308ZM1681.15 55.2H1686.19V67.476L1699.44 55.2H1706.24L1695.33 65.352C1695.89 66.24 1696.16 67.188 1696.16 68.196C1696.16 68.556 1696.13 68.952 1696.05 69.384C1696.01 69.792 1695.97 70.08 1695.95 70.248C1695.85 70.728 1695.8 71.16 1695.8 71.544C1695.8 71.928 1695.89 72.204 1696.05 72.372C1696.22 72.54 1696.45 72.648 1696.74 72.696C1697.03 72.744 1697.63 72.804 1698.54 72.876C1700 73.02 1701.18 73.236 1702.07 73.524C1702.98 73.788 1703.72 74.316 1704.3 75.108C1704.9 75.924 1705.2 76.896 1705.2 78.024C1705.2 78.528 1705.15 79.008 1705.05 79.464C1704.86 80.304 1704.48 81.36 1703.9 82.632L1703.33 84H1698.65C1698.65 83.52 1698.72 83.052 1698.86 82.596C1699.03 82.14 1699.29 81.504 1699.65 80.688C1699.73 80.544 1699.86 80.268 1700.05 79.86C1700.24 79.428 1700.37 79.104 1700.45 78.888C1700.52 78.672 1700.55 78.492 1700.55 78.348C1700.55 78.084 1700.4 77.904 1700.09 77.808C1699.77 77.712 1699.11 77.616 1698.11 77.52C1696.79 77.4 1695.71 77.232 1694.87 77.016C1694.03 76.776 1693.32 76.344 1692.74 75.72C1691.66 74.568 1691.12 73.152 1691.12 71.472C1691.12 70.944 1691.19 70.272 1691.34 69.456L1691.41 69.024L1686.19 73.884V84H1681.15V55.2Z" fill="black"/>
<path d="M192 68H472" stroke="black" stroke-width="2"/>
<path d="M1236 68H1516" stroke="black" stroke-width="2"/>
<path d="M714 68H994" stroke="black" stroke-width="2"/>
<path d="M1758 68H2038" stroke="black" stroke-width="2"/>
<path d="M2088.36 55.2H2093.69L2100.78 78.348L2107.84 55.2H2113.16L2120.22 78.348L2127.31 55.2H2132.64L2122.92 84H2117.52L2110.5 63.192L2103.48 84H2098.08L2088.36 55.2ZM2149.47 86.16C2148.22 86.16 2147.1 85.812 2146.12 85.116C2145.14 84.42 2144.45 83.58 2144.07 82.596C2143.32 82.884 2142.57 83.028 2141.8 83.028C2140.22 83.028 2138.85 82.452 2137.7 81.3C2137.17 80.772 2136.75 80.148 2136.44 79.428C2136.15 78.708 2136 77.964 2136 77.196C2136 76.596 2136.09 76.044 2136.26 75.54C2136.28 75.396 2136.34 75.204 2136.44 74.964L2135.9 74.676C2134.96 74.172 2134.22 73.464 2133.66 72.552C2133.11 71.616 2132.84 70.62 2132.84 69.564C2132.84 68.508 2133.11 67.512 2133.66 66.576C2134.22 65.64 2134.96 64.92 2135.9 64.416C2136.02 64.344 2136.2 64.26 2136.44 64.164C2136.34 63.828 2136.28 63.636 2136.26 63.588C2136.09 63.084 2136 62.52 2136 61.896C2136 61.128 2136.15 60.396 2136.44 59.7C2136.72 58.98 2137.14 58.344 2137.7 57.792C2138.9 56.664 2140.29 56.1 2141.87 56.1C2142.59 56.1 2143.31 56.232 2144.03 56.496L2144.25 56.1C2144.73 55.188 2145.41 54.456 2146.3 53.904C2147.21 53.328 2148.22 53.04 2149.32 53.04C2150.38 53.04 2151.34 53.292 2152.2 53.796C2153.07 54.3 2153.78 55.008 2154.33 55.92C2154.42 56.064 2154.54 56.28 2154.69 56.568C2155.5 56.256 2156.31 56.1 2157.1 56.1C2158.71 56.1 2160.09 56.664 2161.24 57.792C2161.79 58.344 2162.21 58.98 2162.5 59.7C2162.79 60.396 2162.93 61.128 2162.93 61.896C2162.93 62.52 2162.85 63.084 2162.68 63.588C2162.68 63.636 2162.62 63.828 2162.5 64.164C2162.74 64.26 2162.92 64.344 2163.04 64.416C2163.98 64.92 2164.72 65.64 2165.27 66.576C2165.82 67.512 2166.1 68.508 2166.1 69.564C2166.1 70.62 2165.82 71.616 2165.27 72.552C2164.72 73.464 2163.98 74.172 2163.04 74.676L2162.5 74.964C2162.6 75.204 2162.66 75.396 2162.68 75.54C2162.85 76.044 2162.93 76.596 2162.93 77.196C2162.93 77.964 2162.78 78.708 2162.46 79.428C2162.18 80.148 2161.77 80.772 2161.24 81.3C2160.09 82.452 2158.72 83.028 2157.14 83.028C2156.34 83.028 2155.59 82.884 2154.87 82.596C2154.82 82.716 2154.72 82.896 2154.58 83.136C2154.03 84.12 2153.31 84.864 2152.42 85.368C2151.56 85.896 2150.57 86.16 2149.47 86.16ZM2137.52 69.564C2137.52 70.02 2137.7 70.356 2138.06 70.572C2138.42 70.764 2138.97 70.956 2139.71 71.148C2140.38 71.316 2140.92 71.496 2141.33 71.688C2141.74 71.88 2142.03 72.168 2142.2 72.552C2142.27 72.72 2142.3 72.912 2142.3 73.128C2142.3 73.44 2142.23 73.776 2142.09 74.136C2141.94 74.472 2141.73 74.868 2141.44 75.324C2141.39 75.396 2141.28 75.576 2141.12 75.864C2140.97 76.128 2140.85 76.38 2140.76 76.62C2140.68 76.836 2140.65 77.028 2140.65 77.196C2140.65 77.508 2140.77 77.784 2141.01 78.024C2141.22 78.24 2141.49 78.348 2141.8 78.348C2142.06 78.348 2142.33 78.288 2142.59 78.168C2142.86 78.048 2143.23 77.844 2143.71 77.556C2144.16 77.268 2144.56 77.052 2144.9 76.908C2145.23 76.764 2145.56 76.692 2145.87 76.692C2146.08 76.692 2146.28 76.728 2146.44 76.8C2146.83 76.968 2147.12 77.256 2147.31 77.664C2147.5 78.072 2147.68 78.612 2147.85 79.284C2148.06 80.076 2148.27 80.652 2148.46 81.012C2148.68 81.348 2149.01 81.516 2149.47 81.516C2149.92 81.516 2150.25 81.348 2150.44 81.012C2150.66 80.652 2150.87 80.076 2151.09 79.284C2151.26 78.612 2151.44 78.072 2151.63 77.664C2151.82 77.256 2152.11 76.968 2152.49 76.8C2152.68 76.728 2152.88 76.692 2153.07 76.692C2153.38 76.692 2153.7 76.764 2154.04 76.908C2154.38 77.052 2154.77 77.268 2155.23 77.556C2155.71 77.844 2156.08 78.048 2156.34 78.168C2156.61 78.288 2156.87 78.348 2157.14 78.348C2157.45 78.348 2157.71 78.24 2157.93 78.024C2158.17 77.784 2158.29 77.508 2158.29 77.196C2158.29 76.932 2158.23 76.668 2158.11 76.404C2157.99 76.14 2157.78 75.768 2157.5 75.288C2157.21 74.808 2156.99 74.412 2156.85 74.1C2156.7 73.764 2156.63 73.44 2156.63 73.128C2156.63 72.912 2156.67 72.72 2156.74 72.552C2156.91 72.168 2157.2 71.88 2157.6 71.688C2158.01 71.496 2158.55 71.316 2159.22 71.148C2159.97 70.956 2160.52 70.764 2160.88 70.572C2161.24 70.356 2161.42 70.02 2161.42 69.564C2161.42 69.108 2161.24 68.784 2160.88 68.592C2160.54 68.376 2159.99 68.16 2159.22 67.944C2158.55 67.776 2158.01 67.596 2157.6 67.404C2157.2 67.212 2156.91 66.924 2156.74 66.54C2156.67 66.348 2156.63 66.156 2156.63 65.964C2156.63 65.652 2156.7 65.34 2156.85 65.028C2156.99 64.692 2157.21 64.284 2157.5 63.804C2157.78 63.324 2157.99 62.952 2158.11 62.688C2158.23 62.424 2158.29 62.16 2158.29 61.896C2158.29 61.608 2158.17 61.344 2157.93 61.104C2157.69 60.864 2157.42 60.744 2157.14 60.744C2156.87 60.744 2156.61 60.804 2156.34 60.924C2156.08 61.044 2155.71 61.248 2155.23 61.536C2154.77 61.824 2154.38 62.04 2154.04 62.184C2153.7 62.328 2153.38 62.4 2153.07 62.4C2152.88 62.4 2152.68 62.364 2152.49 62.292C2152.11 62.124 2151.81 61.86 2151.59 61.5C2151.4 61.14 2151.17 60.576 2150.91 59.808C2150.69 59.088 2150.48 58.56 2150.26 58.224C2150.04 57.864 2149.73 57.684 2149.32 57.684C2148.89 57.684 2148.58 57.864 2148.39 58.224C2148.2 58.56 2148.02 59.088 2147.85 59.808C2147.68 60.528 2147.5 61.08 2147.31 61.464C2147.14 61.848 2146.85 62.124 2146.44 62.292C2146.28 62.364 2146.08 62.4 2145.87 62.4C2145.56 62.4 2145.23 62.328 2144.9 62.184C2144.56 62.04 2144.16 61.824 2143.71 61.536C2143.23 61.248 2142.86 61.044 2142.59 60.924C2142.33 60.804 2142.06 60.744 2141.8 60.744C2141.51 60.744 2141.25 60.864 2141.01 61.104C2140.77 61.344 2140.65 61.608 2140.65 61.896C2140.65 62.16 2140.71 62.424 2140.83 62.688C2140.95 62.952 2141.15 63.324 2141.44 63.804C2141.73 64.26 2141.94 64.656 2142.09 64.992C2142.23 65.328 2142.3 65.652 2142.3 65.964C2142.3 66.156 2142.27 66.348 2142.2 66.54C2142.03 66.924 2141.74 67.212 2141.33 67.404C2140.92 67.596 2140.38 67.776 2139.71 67.944C2138.94 68.16 2138.38 68.376 2138.02 68.592C2137.68 68.784 2137.52 69.108 2137.52 69.564ZM2171.69 56.748L2173.74 56.316L2173.95 56.244C2175.39 55.932 2176.76 55.656 2178.06 55.416C2179.38 55.176 2180.83 54.996 2182.41 54.876C2182.82 54.852 2183.43 54.84 2184.25 54.84C2185.83 54.84 2187.15 54.936 2188.21 55.128C2190.47 55.536 2192.29 56.292 2193.68 57.396C2194.76 58.26 2195.59 59.316 2196.17 60.564C2196.74 61.812 2197.03 63.264 2197.03 64.92C2197.03 66.672 2196.35 68.412 2194.98 70.14C2194.52 70.764 2193.86 71.46 2193 72.228C2193.91 73.908 2194.57 75.66 2194.98 77.484C2195.41 79.284 2195.77 81.456 2196.06 84H2191.2C2190.91 81.648 2190.56 79.74 2190.15 78.276C2189.82 77.052 2189.41 75.96 2188.93 75C2187.73 75.672 2186.45 76.236 2185.08 76.692C2182.97 77.412 2181.07 77.772 2179.39 77.772C2178.41 77.772 2177.52 77.664 2176.73 77.448V84H2171.69V56.748ZM2176.73 71.22C2176.8 71.772 2176.98 72.156 2177.27 72.372C2177.67 72.708 2178.38 72.876 2179.39 72.876C2180.3 72.876 2181.31 72.72 2182.41 72.408C2183.54 72.096 2184.67 71.664 2185.8 71.112C2185.01 70.536 2184.07 70.044 2182.99 69.636C2181.67 69.132 2180.41 68.88 2179.21 68.88C2178.71 68.88 2178.24 68.94 2177.81 69.06C2177.47 69.18 2177.22 69.324 2177.05 69.492C2176.88 69.66 2176.77 69.924 2176.73 70.284V71.22ZM2176.73 64.308C2177.52 64.092 2178.36 63.984 2179.25 63.984C2179.51 63.984 2179.93 64.008 2180.51 64.056C2181.97 64.2 2183.36 64.536 2184.68 65.064C2186.77 65.808 2188.56 66.876 2190.05 68.268C2190.5 67.836 2190.87 67.452 2191.16 67.116C2191.83 66.252 2192.17 65.52 2192.17 64.92C2192.17 63.264 2191.67 62.028 2190.66 61.212C2189.36 60.204 2187.3 59.7 2184.47 59.7C2184.13 59.7 2183.55 59.724 2182.74 59.772C2180.94 59.892 2178.93 60.18 2176.73 60.636V64.308ZM2203.15 55.2H2208.19V67.476L2221.44 55.2H2228.24L2217.33 65.352C2217.89 66.24 2218.16 67.188 2218.16 68.196C2218.16 68.556 2218.13 68.952 2218.05 69.384C2218.01 69.792 2217.97 70.08 2217.95 70.248C2217.85 70.728 2217.8 71.16 2217.8 71.544C2217.8 71.928 2217.89 72.204 2218.05 72.372C2218.22 72.54 2218.45 72.648 2218.74 72.696C2219.03 72.744 2219.63 72.804 2220.54 72.876C2222 73.02 2223.18 73.236 2224.07 73.524C2224.98 73.788 2225.72 74.316 2226.3 75.108C2226.9 75.924 2227.2 76.896 2227.2 78.024C2227.2 78.528 2227.15 79.008 2227.05 79.464C2226.86 80.304 2226.48 81.36 2225.9 82.632L2225.33 84H2220.65C2220.65 83.52 2220.72 83.052 2220.86 82.596C2221.03 82.14 2221.29 81.504 2221.65 80.688C2221.73 80.544 2221.86 80.268 2222.05 79.86C2222.24 79.428 2222.37 79.104 2222.45 78.888C2222.52 78.672 2222.55 78.492 2222.55 78.348C2222.55 78.084 2222.4 77.904 2222.09 77.808C2221.77 77.712 2221.11 77.616 2220.11 77.52C2218.79 77.4 2217.71 77.232 2216.87 77.016C2216.03 76.776 2215.32 76.344 2214.74 75.72C2213.66 74.568 2213.12 73.152 2213.12 71.472C2213.12 70.944 2213.19 70.272 2213.34 69.456L2213.41 69.024L2208.19 73.884V84H2203.15V55.2Z" fill="black"/>
<path d="M2620.08 84H2625.48L2632.5 63.192L2639.52 84H2644.92L2654.64 55.2H2649.31L2642.22 78.348L2635.16 55.2H2629.84L2622.78 78.348L2615.69 55.2H2610.36L2620.08 84ZM2671.47 86.16C2673.7 86.16 2675.5 85.08 2676.58 83.136C2676.69 82.956 2676.8 82.776 2676.87 82.596C2678.99 83.424 2681.44 83.1 2683.24 81.3C2684.72 79.824 2685.29 77.556 2684.68 75.54C2684.64 75.324 2684.57 75.144 2684.5 74.964L2685.04 74.676C2686.91 73.668 2688.1 71.688 2688.1 69.564C2688.1 67.44 2686.91 65.424 2685.04 64.416C2684.86 64.308 2684.68 64.236 2684.5 64.164C2684.57 63.948 2684.64 63.768 2684.68 63.588C2685.29 61.572 2684.75 59.304 2683.24 57.792C2681.33 55.956 2678.81 55.74 2676.69 56.568C2676.58 56.352 2676.47 56.136 2676.33 55.92C2675.25 54.084 2673.45 53.04 2671.32 53.04C2669.02 53.04 2667.18 54.336 2666.25 56.1L2666.03 56.496C2664.02 55.74 2661.53 56.028 2659.7 57.792C2658.18 59.304 2657.64 61.572 2658.26 63.588C2658.29 63.768 2658.36 63.948 2658.44 64.164C2658.26 64.236 2658.08 64.308 2657.9 64.416C2656.02 65.424 2654.84 67.44 2654.84 69.564C2654.84 71.688 2656.02 73.668 2657.9 74.676L2658.44 74.964C2658.36 75.144 2658.29 75.324 2658.26 75.54C2657.64 77.556 2658.22 79.824 2659.7 81.3C2661.42 83.028 2663.84 83.46 2666.07 82.596C2666.79 84.396 2668.8 86.16 2671.47 86.16ZM2659.52 69.564C2659.52 67.584 2663.44 68.376 2664.2 66.54C2664.95 64.74 2661.6 62.472 2663.01 61.104C2663.26 60.852 2663.51 60.744 2663.8 60.744C2664.99 60.744 2666.54 62.4 2667.87 62.4C2668.08 62.4 2668.26 62.364 2668.44 62.292C2670.28 61.536 2669.42 57.684 2671.32 57.684C2673.12 57.684 2672.66 61.536 2674.49 62.292C2674.67 62.364 2674.85 62.4 2675.07 62.4C2676.4 62.4 2677.95 60.744 2679.14 60.744C2679.42 60.744 2679.68 60.852 2679.93 61.104C2681.33 62.472 2677.98 64.74 2678.74 66.54C2679.5 68.376 2683.42 67.584 2683.42 69.564C2683.42 71.508 2679.5 70.752 2678.74 72.552C2677.98 74.388 2681.33 76.62 2679.93 78.024C2679.68 78.276 2679.42 78.348 2679.14 78.348C2677.95 78.348 2676.4 76.692 2675.07 76.692C2674.85 76.692 2674.67 76.728 2674.49 76.8C2672.66 77.556 2673.45 81.516 2671.47 81.516C2669.49 81.516 2670.28 77.556 2668.44 76.8C2668.26 76.728 2668.08 76.692 2667.87 76.692C2666.54 76.692 2664.99 78.348 2663.8 78.348C2663.51 78.348 2663.26 78.276 2663.01 78.024C2661.6 76.62 2664.95 74.388 2664.2 72.552C2663.44 70.752 2659.52 71.508 2659.52 69.564ZM2693.69 84H2698.73V77.448C2699.52 77.664 2700.42 77.772 2701.39 77.772C2703.08 77.772 2705.06 77.376 2707.08 76.692C2708.37 76.26 2709.71 75.684 2710.93 75C2711.43 76.008 2711.83 77.088 2712.15 78.276C2712.69 80.22 2712.95 81.948 2713.2 84H2718.06C2717.59 79.932 2717.01 75.936 2715 72.228C2715.75 71.544 2716.44 70.86 2716.98 70.14C2718.35 68.412 2719.03 66.648 2719.03 64.92C2719.03 63.3 2718.74 61.824 2718.17 60.564C2717.59 59.304 2716.76 58.26 2715.68 57.396C2714.28 56.28 2712.41 55.524 2710.21 55.128C2708.52 54.84 2706.57 54.768 2704.41 54.876C2700.74 55.128 2697.39 55.92 2695.95 56.244C2695.88 56.28 2695.81 56.28 2695.74 56.316L2693.69 56.748V84ZM2698.73 71.22V70.284C2698.83 69.528 2699.23 69.276 2699.81 69.06C2701.07 68.7 2703.05 68.916 2704.99 69.636C2706.03 70.032 2707.01 70.536 2707.8 71.112C2705.57 72.228 2703.23 72.876 2701.39 72.876C2700.42 72.876 2699.66 72.696 2699.27 72.372C2699.12 72.264 2698.83 72.012 2698.73 71.22ZM2698.73 64.308V60.636C2700.27 60.312 2702.47 59.916 2704.74 59.772C2708.41 59.52 2711.15 60.06 2712.66 61.212C2713.99 62.292 2714.17 63.84 2714.17 64.92C2714.17 65.532 2713.81 66.288 2713.16 67.116C2712.84 67.512 2712.48 67.872 2712.05 68.268C2710.64 66.972 2708.77 65.82 2706.68 65.064C2705.31 64.524 2703.87 64.2 2702.51 64.056C2702.07 64.02 2701.68 63.984 2701.25 63.984C2700.35 63.984 2699.52 64.092 2698.73 64.308ZM2725.15 84H2730.19V73.884L2735.41 69.024L2735.34 69.456C2735.19 70.248 2735.05 71.184 2735.16 72.192C2735.27 73.524 2735.81 74.712 2736.74 75.72C2738.04 77.124 2740.09 77.34 2742.11 77.52C2745.2 77.808 2744.95 77.844 2743.65 80.688C2743.15 81.84 2742.65 82.92 2742.65 84H2747.33L2747.9 82.632C2748.33 81.696 2748.8 80.616 2749.05 79.464C2749.41 77.772 2749.16 76.296 2748.3 75.108C2747 73.308 2744.63 73.092 2742.54 72.876C2739.98 72.66 2739.48 72.768 2739.95 70.248C2740.05 69.456 2740.23 68.556 2740.13 67.584C2740.02 66.756 2739.77 66.036 2739.33 65.352L2750.24 55.2H2743.44L2730.19 67.476V55.2H2725.15V84Z" fill="black"/>
<path d="M3142.08 84H3147.48L3154.5 63.192L3161.52 84H3166.92L3176.64 55.2H3171.31L3164.22 78.348L3157.16 55.2H3151.84L3144.78 78.348L3137.69 55.2H3132.36L3142.08 84ZM3193.47 86.16C3195.7 86.16 3197.5 85.08 3198.58 83.136C3198.69 82.956 3198.8 82.776 3198.87 82.596C3200.99 83.424 3203.44 83.1 3205.24 81.3C3206.72 79.824 3207.29 77.556 3206.68 75.54C3206.64 75.324 3206.57 75.144 3206.5 74.964L3207.04 74.676C3208.91 73.668 3210.1 71.688 3210.1 69.564C3210.1 67.44 3208.91 65.424 3207.04 64.416C3206.86 64.308 3206.68 64.236 3206.5 64.164C3206.57 63.948 3206.64 63.768 3206.68 63.588C3207.29 61.572 3206.75 59.304 3205.24 57.792C3203.33 55.956 3200.81 55.74 3198.69 56.568C3198.58 56.352 3198.47 56.136 3198.33 55.92C3197.25 54.084 3195.45 53.04 3193.32 53.04C3191.02 53.04 3189.18 54.336 3188.25 56.1L3188.03 56.496C3186.02 55.74 3183.53 56.028 3181.7 57.792C3180.18 59.304 3179.64 61.572 3180.26 63.588C3180.29 63.768 3180.36 63.948 3180.44 64.164C3180.26 64.236 3180.08 64.308 3179.9 64.416C3178.02 65.424 3176.84 67.44 3176.84 69.564C3176.84 71.688 3178.02 73.668 3179.9 74.676L3180.44 74.964C3180.36 75.144 3180.29 75.324 3180.26 75.54C3179.64 77.556 3180.22 79.824 3181.7 81.3C3183.42 83.028 3185.84 83.46 3188.07 82.596C3188.79 84.396 3190.8 86.16 3193.47 86.16ZM3181.52 69.564C3181.52 67.584 3185.44 68.376 3186.2 66.54C3186.95 64.74 3183.6 62.472 3185.01 61.104C3185.26 60.852 3185.51 60.744 3185.8 60.744C3186.99 60.744 3188.54 62.4 3189.87 62.4C3190.08 62.4 3190.26 62.364 3190.44 62.292C3192.28 61.536 3191.42 57.684 3193.32 57.684C3195.12 57.684 3194.66 61.536 3196.49 62.292C3196.67 62.364 3196.85 62.4 3197.07 62.4C3198.4 62.4 3199.95 60.744 3201.14 60.744C3201.42 60.744 3201.68 60.852 3201.93 61.104C3203.33 62.472 3199.98 64.74 3200.74 66.54C3201.5 68.376 3205.42 67.584 3205.42 69.564C3205.42 71.508 3201.5 70.752 3200.74 72.552C3199.98 74.388 3203.33 76.62 3201.93 78.024C3201.68 78.276 3201.42 78.348 3201.14 78.348C3199.95 78.348 3198.4 76.692 3197.07 76.692C3196.85 76.692 3196.67 76.728 3196.49 76.8C3194.66 77.556 3195.45 81.516 3193.47 81.516C3191.49 81.516 3192.28 77.556 3190.44 76.8C3190.26 76.728 3190.08 76.692 3189.87 76.692C3188.54 76.692 3186.99 78.348 3185.8 78.348C3185.51 78.348 3185.26 78.276 3185.01 78.024C3183.6 76.62 3186.95 74.388 3186.2 72.552C3185.44 70.752 3181.52 71.508 3181.52 69.564ZM3215.69 84H3220.73V77.448C3221.52 77.664 3222.42 77.772 3223.39 77.772C3225.08 77.772 3227.06 77.376 3229.08 76.692C3230.37 76.26 3231.71 75.684 3232.93 75C3233.43 76.008 3233.83 77.088 3234.15 78.276C3234.69 80.22 3234.95 81.948 3235.2 84H3240.06C3239.59 79.932 3239.01 75.936 3237 72.228C3237.75 71.544 3238.44 70.86 3238.98 70.14C3240.35 68.412 3241.03 66.648 3241.03 64.92C3241.03 63.3 3240.74 61.824 3240.17 60.564C3239.59 59.304 3238.76 58.26 3237.68 57.396C3236.28 56.28 3234.41 55.524 3232.21 55.128C3230.52 54.84 3228.57 54.768 3226.41 54.876C3222.74 55.128 3219.39 55.92 3217.95 56.244C3217.88 56.28 3217.81 56.28 3217.74 56.316L3215.69 56.748V84ZM3220.73 71.22V70.284C3220.83 69.528 3221.23 69.276 3221.81 69.06C3223.07 68.7 3225.05 68.916 3226.99 69.636C3228.03 70.032 3229.01 70.536 3229.8 71.112C3227.57 72.228 3225.23 72.876 3223.39 72.876C3222.42 72.876 3221.66 72.696 3221.27 72.372C3221.12 72.264 3220.83 72.012 3220.73 71.22ZM3220.73 64.308V60.636C3222.27 60.312 3224.47 59.916 3226.74 59.772C3230.41 59.52 3233.15 60.06 3234.66 61.212C3235.99 62.292 3236.17 63.84 3236.17 64.92C3236.17 65.532 3235.81 66.288 3235.16 67.116C3234.84 67.512 3234.48 67.872 3234.05 68.268C3232.64 66.972 3230.77 65.82 3228.68 65.064C3227.31 64.524 3225.87 64.2 3224.51 64.056C3224.07 64.02 3223.68 63.984 3223.25 63.984C3222.35 63.984 3221.52 64.092 3220.73 64.308ZM3247.15 84H3252.19V73.884L3257.41 69.024L3257.34 69.456C3257.19 70.248 3257.05 71.184 3257.16 72.192C3257.27 73.524 3257.81 74.712 3258.74 75.72C3260.04 77.124 3262.09 77.34 3264.11 77.52C3267.2 77.808 3266.95 77.844 3265.65 80.688C3265.15 81.84 3264.65 82.92 3264.65 84H3269.33L3269.9 82.632C3270.33 81.696 3270.8 80.616 3271.05 79.464C3271.41 77.772 3271.16 76.296 3270.3 75.108C3269 73.308 3266.63 73.092 3264.54 72.876C3261.98 72.66 3261.48 72.768 3261.95 70.248C3262.05 69.456 3262.23 68.556 3262.13 67.584C3262.02 66.756 3261.77 66.036 3261.33 65.352L3272.24 55.2H3265.44L3252.19 67.476V55.2H3247.15V84Z" fill="black"/>
<path d="M2280 68H2560" stroke="black" stroke-width="2"/>
<path d="M2802 68H3082" stroke="black" stroke-width="2"/>
<path d="M3324 68H3604" stroke="black" stroke-width="2"/>
<path d="M3664.08 84H3669.48L3676.5 63.192L3683.52 84H3688.92L3698.64 55.2H3693.31L3686.22 78.348L3679.16 55.2H3673.84L3666.78 78.348L3659.69 55.2H3654.36L3664.08 84ZM3715.47 86.16C3717.7 86.16 3719.5 85.08 3720.58 83.136C3720.69 82.956 3720.8 82.776 3720.87 82.596C3722.99 83.424 3725.44 83.1 3727.24 81.3C3728.72 79.824 3729.29 77.556 3728.68 75.54C3728.64 75.324 3728.57 75.144 3728.5 74.964L3729.04 74.676C3730.91 73.668 3732.1 71.688 3732.1 69.564C3732.1 67.44 3730.91 65.424 3729.04 64.416C3728.86 64.308 3728.68 64.236 3728.5 64.164C3728.57 63.948 3728.64 63.768 3728.68 63.588C3729.29 61.572 3728.75 59.304 3727.24 57.792C3725.33 55.956 3722.81 55.74 3720.69 56.568C3720.58 56.352 3720.47 56.136 3720.33 55.92C3719.25 54.084 3717.45 53.04 3715.32 53.04C3713.02 53.04 3711.18 54.336 3710.25 56.1L3710.03 56.496C3708.02 55.74 3705.53 56.028 3703.7 57.792C3702.18 59.304 3701.64 61.572 3702.26 63.588C3702.29 63.768 3702.36 63.948 3702.44 64.164C3702.26 64.236 3702.08 64.308 3701.9 64.416C3700.02 65.424 3698.84 67.44 3698.84 69.564C3698.84 71.688 3700.02 73.668 3701.9 74.676L3702.44 74.964C3702.36 75.144 3702.29 75.324 3702.26 75.54C3701.64 77.556 3702.22 79.824 3703.7 81.3C3705.42 83.028 3707.84 83.46 3710.07 82.596C3710.79 84.396 3712.8 86.16 3715.47 86.16ZM3703.52 69.564C3703.52 67.584 3707.44 68.376 3708.2 66.54C3708.95 64.74 3705.6 62.472 3707.01 61.104C3707.26 60.852 3707.51 60.744 3707.8 60.744C3708.99 60.744 3710.54 62.4 3711.87 62.4C3712.08 62.4 3712.26 62.364 3712.44 62.292C3714.28 61.536 3713.42 57.684 3715.32 57.684C3717.12 57.684 3716.66 61.536 3718.49 62.292C3718.67 62.364 3718.85 62.4 3719.07 62.4C3720.4 62.4 3721.95 60.744 3723.14 60.744C3723.42 60.744 3723.68 60.852 3723.93 61.104C3725.33 62.472 3721.98 64.74 3722.74 66.54C3723.5 68.376 3727.42 67.584 3727.42 69.564C3727.42 71.508 3723.5 70.752 3722.74 72.552C3721.98 74.388 3725.33 76.62 3723.93 78.024C3723.68 78.276 3723.42 78.348 3723.14 78.348C3721.95 78.348 3720.4 76.692 3719.07 76.692C3718.85 76.692 3718.67 76.728 3718.49 76.8C3716.66 77.556 3717.45 81.516 3715.47 81.516C3713.49 81.516 3714.28 77.556 3712.44 76.8C3712.26 76.728 3712.08 76.692 3711.87 76.692C3710.54 76.692 3708.99 78.348 3707.8 78.348C3707.51 78.348 3707.26 78.276 3707.01 78.024C3705.6 76.62 3708.95 74.388 3708.2 72.552C3707.44 70.752 3703.52 71.508 3703.52 69.564ZM3737.69 84H3742.73V77.448C3743.52 77.664 3744.42 77.772 3745.39 77.772C3747.08 77.772 3749.06 77.376 3751.08 76.692C3752.37 76.26 3753.71 75.684 3754.93 75C3755.43 76.008 3755.83 77.088 3756.15 78.276C3756.69 80.22 3756.95 81.948 3757.2 84H3762.06C3761.59 79.932 3761.01 75.936 3759 72.228C3759.75 71.544 3760.44 70.86 3760.98 70.14C3762.35 68.412 3763.03 66.648 3763.03 64.92C3763.03 63.3 3762.74 61.824 3762.17 60.564C3761.59 59.304 3760.76 58.26 3759.68 57.396C3758.28 56.28 3756.41 55.524 3754.21 55.128C3752.52 54.84 3750.57 54.768 3748.41 54.876C3744.74 55.128 3741.39 55.92 3739.95 56.244C3739.88 56.28 3739.81 56.28 3739.74 56.316L3737.69 56.748V84ZM3742.73 71.22V70.284C3742.83 69.528 3743.23 69.276 3743.81 69.06C3745.07 68.7 3747.05 68.916 3748.99 69.636C3750.03 70.032 3751.01 70.536 3751.8 71.112C3749.57 72.228 3747.23 72.876 3745.39 72.876C3744.42 72.876 3743.66 72.696 3743.27 72.372C3743.12 72.264 3742.83 72.012 3742.73 71.22ZM3742.73 64.308V60.636C3744.27 60.312 3746.47 59.916 3748.74 59.772C3752.41 59.52 3755.15 60.06 3756.66 61.212C3757.99 62.292 3758.17 63.84 3758.17 64.92C3758.17 65.532 3757.81 66.288 3757.16 67.116C3756.84 67.512 3756.48 67.872 3756.05 68.268C3754.64 66.972 3752.77 65.82 3750.68 65.064C3749.31 64.524 3747.87 64.2 3746.51 64.056C3746.07 64.02 3745.68 63.984 3745.25 63.984C3744.35 63.984 3743.52 64.092 3742.73 64.308ZM3769.15 84H3774.19V73.884L3779.41 69.024L3779.34 69.456C3779.19 70.248 3779.05 71.184 3779.16 72.192C3779.27 73.524 3779.81 74.712 3780.74 75.72C3782.04 77.124 3784.09 77.34 3786.11 77.52C3789.2 77.808 3788.95 77.844 3787.65 80.688C3787.15 81.84 3786.65 82.92 3786.65 84H3791.33L3791.9 82.632C3792.33 81.696 3792.8 80.616 3793.05 79.464C3793.41 77.772 3793.16 76.296 3792.3 75.108C3791 73.308 3788.63 73.092 3786.54 72.876C3783.98 72.66 3783.48 72.768 3783.95 70.248C3784.05 69.456 3784.23 68.556 3784.13 67.584C3784.02 66.756 3783.77 66.036 3783.33 65.352L3794.24 55.2H3787.44L3774.19 67.476V55.2H3769.15V84Z" fill="black"/>
<path d="M3846 68H4126" stroke="black" stroke-width="2"/>
</svg>
