<svg width="544" height="490" viewBox="0 0 544 490" fill="none" xmlns="http://www.w3.org/2000/svg">
<path d="M61.1372 108.32C55.3389 122.298 39.3026 128.934 25.3192 123.144C11.3358 117.353 4.70047 101.327 10.4988 87.3493" stroke="#BDFB0F" stroke-width="8" stroke-linecap="round"/>
<path d="M283.712 108.32C277.914 122.298 261.878 128.934 247.894 123.144C233.911 117.353 227.276 101.327 233.074 87.3493" stroke="#BDFB0F" stroke-width="8" stroke-linecap="round"/>
<path d="M79.4927 76.7178C69.23 87.843 51.8894 88.5495 40.7613 78.2957C29.6333 68.0418 28.9319 50.7107 39.1946 39.5854" stroke="#BDFB0F" stroke-width="8" stroke-linecap="round"/>
<path d="M302.068 76.7178C291.805 87.843 274.465 88.5495 263.337 78.2957C252.209 68.0418 251.507 50.7107 261.77 39.5854" stroke="#BDFB0F" stroke-width="8" stroke-linecap="round"/>
<path d="M106.716 52.7576C93.2425 59.6592 76.7258 54.3394 69.8247 40.8753C62.9236 27.4113 68.2514 10.9017 81.7247 4.00012" stroke="#BDFB0F" stroke-width="8" stroke-linecap="round"/>
<path d="M329.291 52.7576C315.818 59.6592 299.301 54.3394 292.4 40.8753C285.499 27.4113 290.827 10.9017 304.3 4.00012" stroke="#BDFB0F" stroke-width="8" stroke-linecap="round"/>
<path d="M274.355 266.122C285.956 326.421 283.787 380.818 271.085 419.995C258.312 459.391 235.334 482.316 206.233 482.316C177.132 482.316 145.333 459.391 117.401 419.995C89.6253 380.818 66.5251 326.421 54.9242 266.122C43.3232 205.823 45.4929 151.426 58.1946 112.249C70.9672 72.8535 93.9456 49.928 123.046 49.928C152.147 49.928 183.947 72.8535 211.878 112.249C239.654 151.426 262.754 205.823 274.355 266.122Z" fill="white" stroke="#BDFB0F" stroke-width="8"/>
<path d="M496.93 266.122C508.531 326.421 506.362 380.818 493.66 419.995C480.887 459.391 457.909 482.316 428.808 482.316C399.707 482.316 367.908 459.391 339.976 419.995C312.2 380.818 289.1 326.421 277.499 266.122C265.898 205.823 268.068 151.426 280.77 112.249C293.542 72.8535 316.521 49.928 345.622 49.928C374.722 49.928 406.522 72.8535 434.453 112.249C462.229 151.426 485.33 205.823 496.93 266.122Z" fill="white" stroke="#BDFB0F" stroke-width="8"/>
<path d="M257.951 321.344C266.654 366.576 265.032 407.405 255.49 436.835C245.904 466.402 228.602 483.789 206.516 483.789C184.43 483.789 160.438 466.402 139.475 436.835C118.61 407.405 101.278 366.576 92.5756 321.344C83.8733 276.111 85.4951 235.282 95.0368 205.852C104.623 176.285 121.925 158.898 144.011 158.898C166.097 158.898 190.089 176.285 211.052 205.852C231.917 235.282 249.249 276.111 257.951 321.344Z" fill="#BDFB0F" stroke="white" stroke-width="5"/>
<path d="M480.527 321.344C489.229 366.576 487.607 407.405 478.065 436.835C468.479 466.402 451.177 483.789 429.091 483.789C407.005 483.789 383.013 466.402 362.051 436.835C341.185 407.405 323.853 366.576 315.151 321.344C306.449 276.111 308.07 235.282 317.612 205.852C327.198 176.285 344.5 158.898 366.586 158.898C388.672 158.898 412.664 176.285 433.627 205.852C454.493 235.282 471.824 276.111 480.527 321.344Z" fill="#BDFB0F" stroke="white" stroke-width="5"/>
<ellipse rx="62.1546" ry="122.52" transform="matrix(1 0 0.188924 0.981992 175.686 347.113)" fill="#A5D816"/>
<ellipse rx="62.1546" ry="122.52" transform="matrix(1 0 0.188924 0.981992 398.262 347.113)" fill="#A5D816"/>
<ellipse rx="38.0368" ry="74.979" transform="matrix(1 0 0.188924 0.981992 183.492 245.616)" fill="white"/>
<ellipse rx="38.0368" ry="74.979" transform="matrix(1 0 0.188924 0.981992 406.067 245.616)" fill="white"/>
<ellipse rx="19.0184" ry="37.4895" transform="matrix(1 0 0.188924 0.981992 149.209 310.246)" fill="white"/>
<ellipse rx="19.0184" ry="37.4895" transform="matrix(1 0 0.188924 0.981992 371.785 310.246)" fill="white"/>
<ellipse rx="8.87525" ry="17.4951" transform="matrix(1 0 0.188924 0.981992 242.46 412.66)" fill="white"/>
<ellipse rx="8.87525" ry="17.4951" transform="matrix(1 0 0.188924 0.981992 465.035 412.66)" fill="white"/>
<ellipse rx="19.0184" ry="37.4895" transform="matrix(0.962606 0.270904 -0.0841655 0.996452 105.302 266.036)" fill="white"/>
<ellipse rx="19.0184" ry="37.4895" transform="matrix(0.962606 0.270904 -0.0841655 0.996452 327.878 266.036)" fill="white"/>
<ellipse rx="10.152" ry="20.0118" transform="matrix(0.962606 0.270904 -0.0841655 0.996452 119.839 323.119)" fill="white"/>
<ellipse rx="10.152" ry="20.0118" transform="matrix(0.962606 0.270904 -0.0841655 0.996452 342.414 323.119)" fill="white"/>
<path d="M186.829 409.851C187.456 405.328 193.973 405.328 196.34 409.851L203.985 424.461C205.043 426.484 207.227 427.854 209.393 427.854H225.037C229.88 427.854 233.065 433.941 229.684 436.736L218.766 445.766C217.254 447.016 216.947 449.232 218.005 451.255L225.65 465.866C228.017 470.389 223.469 474.151 219.012 471.355L204.619 462.326C202.626 461.075 200.253 461.075 198.741 462.326L187.822 471.355C184.442 474.151 178.445 470.389 179.072 465.866L181.095 451.255C181.375 449.232 180.216 447.016 178.223 445.766L163.829 436.736C159.373 433.941 160.216 427.854 165.06 427.854H180.703C182.869 427.854 184.526 426.484 184.806 424.461L186.829 409.851Z" fill="#FE5D26"/>
<path d="M409.404 409.851C410.031 405.328 416.548 405.328 418.915 409.851L426.56 424.461C427.619 426.484 429.802 427.854 431.968 427.854H447.612C452.456 427.854 455.64 433.941 452.26 436.736L441.341 445.766C439.829 447.016 439.522 449.232 440.581 451.255L448.226 465.866C450.593 470.389 446.044 474.151 441.587 471.355L427.194 462.326C425.201 461.075 422.828 461.075 421.316 462.326L410.397 471.355C407.017 474.151 401.021 470.389 401.647 465.866L403.67 451.255C403.951 449.232 402.791 447.016 400.798 445.766L386.405 436.736C381.948 433.941 382.791 427.854 387.635 427.854H403.279C405.445 427.854 407.101 426.484 407.381 424.461L409.404 409.851Z" fill="#FE5D26"/>
</svg>
