<svg width="817" height="86" viewBox="0 0 817 86" fill="none" xmlns="http://www.w3.org/2000/svg">
<path d="M0.6 80H14.04V53.024L27.96 40.064L27.768 41.216C27.384 43.328 27 45.824 27.288 48.512C27.576 52.064 29.016 55.232 31.512 57.92C34.968 61.664 40.44 62.24 45.816 62.72C54.072 63.488 53.4 63.584 49.944 71.168C48.6 74.24 47.256 77.12 47.256 80H59.736L61.272 76.352C62.424 73.856 63.672 70.976 64.344 67.904C65.304 63.392 64.632 59.456 62.328 56.288C58.872 51.488 52.536 50.912 46.968 50.336C40.152 49.76 38.808 50.048 40.056 43.328C40.344 41.216 40.824 38.816 40.536 36.224C40.248 34.016 39.576 32.096 38.424 30.272L67.512 3.2H49.368L14.04 35.936V3.2H0.6V80ZM67.0538 80H80.0138C80.8778 75.68 82.4138 71.456 84.7178 67.52C86.2538 65.024 87.9818 62.624 89.9018 60.416C92.3978 65.792 96.7178 69.92 101.806 71.744C105.262 73.088 109.294 73.184 112.942 72.032C116.974 70.784 120.238 68.192 122.158 64.736C124.462 60.608 124.462 55.52 122.35 50.912C119.95 45.44 114.862 41.312 109.294 40.16C106.51 39.584 103.63 39.488 100.654 40.064C101.614 34.976 103.246 29.984 105.358 25.184C106.894 21.824 108.718 18.656 110.83 15.584L140.11 80H154.99L120.43 3.2H105.166C100.75 8.47999 97.0058 13.76 94.1258 20.096C91.2458 26.336 89.2298 32.96 88.0778 39.776C87.7898 41.984 87.5018 44.096 87.4058 46.016C86.6378 46.688 85.8698 47.264 85.0058 47.936C80.6858 51.776 76.9418 56.192 73.9658 61.28C70.9898 66.368 68.2058 74.336 67.0538 80ZM100.366 52.928C103.438 51.872 105.55 52.064 106.702 52.256C108.43 52.64 110.254 54.176 111.118 56C111.406 56.768 111.79 57.824 111.214 58.784C110.446 60.128 107.95 60.8 106.03 60.128C103.63 59.264 101.518 56.672 100.558 53.504C100.462 53.312 100.462 53.12 100.366 52.928ZM165.506 80H177.986L181.25 77.696C182.978 76.544 184.994 75.392 186.626 73.664C189.122 71.072 190.37 68.096 190.37 64.736C190.37 61.376 189.122 58.4 186.626 55.904C184.994 54.176 182.978 52.928 181.25 51.872C180.098 51.2 177.986 50.24 177.986 49.472C177.986 48.8 180.098 47.84 181.25 47.168C182.978 46.112 184.994 44.864 186.626 43.136C189.122 40.64 190.37 37.664 190.37 34.304C190.37 30.944 189.122 27.968 186.626 25.376C184.994 23.648 182.978 22.4 181.25 21.344C180.098 20.672 177.986 19.712 177.986 19.04C177.986 18.368 180.098 17.312 181.25 16.736C182.978 15.584 184.994 14.432 186.626 12.608C189.122 10.112 190.37 7.13599 190.37 3.776H177.986C177.698 4.256 175.778 5.408 174.722 6.08C172.994 7.232 170.978 8.384 169.25 10.208C166.754 12.704 165.506 15.68 165.506 19.04C165.506 22.4 166.754 25.376 169.25 27.872C170.978 29.6 172.994 30.848 174.722 31.904C175.778 32.576 177.986 33.632 177.986 34.304C177.986 34.976 175.778 35.936 174.722 36.608C172.994 37.664 170.978 38.912 169.25 40.64C166.754 43.136 165.506 46.112 165.506 49.472C165.506 52.832 166.754 55.904 169.25 58.4C170.978 60.128 172.994 61.376 174.722 62.432C175.778 63.104 177.986 64.064 177.986 64.736C177.986 65.408 175.778 66.464 174.722 67.136C172.994 68.192 170.978 69.44 169.25 71.168C166.754 73.664 165.506 76.64 165.506 80ZM262.606 80H276.046V15.872H303.598V3.2H235.054V15.872H262.606V80ZM312.319 80H324.799L328.063 77.696C329.791 76.544 331.807 75.392 333.439 73.664C335.935 71.072 337.183 68.096 337.183 64.736C337.183 61.376 335.935 58.4 333.439 55.904C331.807 54.176 329.791 52.928 328.063 51.872C326.911 51.2 324.799 50.24 324.799 49.472C324.799 48.8 326.911 47.84 328.063 47.168C329.791 46.112 331.807 44.864 333.439 43.136C335.935 40.64 337.183 37.664 337.183 34.304C337.183 30.944 335.935 27.968 333.439 25.376C331.807 23.648 329.791 22.4 328.063 21.344C326.911 20.672 324.799 19.712 324.799 19.04C324.799 18.368 326.911 17.312 328.063 16.736C329.791 15.584 331.807 14.432 333.439 12.608C335.935 10.112 337.183 7.13599 337.183 3.776H324.799C324.511 4.256 322.591 5.408 321.535 6.08C319.807 7.232 317.791 8.384 316.063 10.208C313.567 12.704 312.319 15.68 312.319 19.04C312.319 22.4 313.567 25.376 316.063 27.872C317.791 29.6 319.807 30.848 321.535 31.904C322.591 32.576 324.799 33.632 324.799 34.304C324.799 34.976 322.591 35.936 321.535 36.608C319.807 37.664 317.791 38.912 316.063 40.64C313.567 43.136 312.319 46.112 312.319 49.472C312.319 52.832 313.567 55.904 316.063 58.4C317.791 60.128 319.807 61.376 321.535 62.432C322.591 63.104 324.799 64.064 324.799 64.736C324.799 65.408 322.591 66.464 321.535 67.136C319.807 68.192 317.791 69.44 316.063 71.168C313.567 73.664 312.319 76.64 312.319 80ZM356.381 80H369.821V19.712L410.909 80H428.381V3.2H414.941V63.488L373.853 3.2H356.381V80ZM481.68 82.4C507.888 82.4 520.368 66.752 520.368 44.096H482.64V56.768H504.528C500.496 65.792 491.76 69.632 481.68 69.632C467.088 69.632 456.816 58.016 456.816 41.6C456.816 25.184 467.088 13.568 481.68 13.568C495.6 13.568 505.488 21.248 505.488 32H519.408C519.408 13.76 503.76 0.799995 481.68 0.799995C459.216 0.799995 443.28 17.696 443.28 41.6C443.28 65.504 459.216 82.4 481.68 82.4ZM569.381 80H582.821V47.936H625.253V80H638.693V3.2H625.253V35.264H582.821V3.2H569.381V80ZM690.041 81.92C711.737 81.92 727.001 71.936 727.001 57.824C727.001 21.824 668.441 45.536 668.441 24.32C668.441 18.176 677.369 13.76 690.041 13.76C701.561 13.76 709.721 18.176 709.721 24.32H723.161C723.161 10.784 709.433 1.27999 690.041 1.27999C669.497 1.27999 655.001 10.784 655.001 24.32C655.001 60.704 713.561 36.224 713.561 57.824C713.561 64.64 703.865 69.44 690.041 69.44C676.217 69.44 666.521 64.64 666.521 57.824H653.081C653.081 71.936 668.345 81.92 690.041 81.92ZM779.045 85.376C782.117 85.376 784.901 84.128 787.397 81.728C790.181 79.232 791.525 73.76 798.245 72.992C800.165 72.8 802.373 72.512 804.485 71.936C807.749 70.88 810.149 69.152 811.685 66.56C813.125 64.064 813.413 61.088 812.645 57.824C812.165 55.712 811.397 53.888 810.533 51.968C809.957 50.72 808.997 48.512 808.997 47.744C808.997 46.88 809.093 46.784 810.917 44.96C813.029 42.944 816.677 39.392 816.677 32.96C816.677 26.432 813.029 22.976 810.917 20.864C809.093 19.136 808.997 18.944 808.997 18.08C808.997 17.312 809.093 17.12 810.917 15.392C813.029 13.28 816.677 9.72799 816.677 3.296H803.717C803.717 4.16 796.037 11.648 796.037 18.08C796.037 24.608 799.685 28.064 801.893 30.176C803.717 31.904 803.717 32.096 803.717 32.96C803.717 33.728 803.717 33.92 801.893 35.648C799.685 37.76 796.037 41.312 796.037 47.744C796.037 51.2 797.477 54.368 798.629 57.152C799.013 57.92 799.397 58.88 799.685 59.744L796.805 60.128C793.829 60.416 790.469 60.8 787.589 62.528C784.708 64.16 782.789 66.848 781.061 69.152C780.485 69.92 779.717 71.072 779.045 71.84C778.373 71.072 777.605 69.92 777.029 69.152C775.301 66.848 773.381 64.16 770.597 62.528C766.757 60.224 761.861 60.32 758.405 59.744C759.557 56.48 762.053 52.256 762.053 47.744C762.053 41.312 758.405 37.76 756.197 35.648C754.373 33.92 754.373 33.728 754.373 32.96C754.373 32.096 754.373 31.904 756.197 30.176C758.405 28.064 762.053 24.608 762.053 18.08C762.053 11.648 754.373 4.16 754.373 3.296H741.413C741.413 9.72799 745.061 13.28 747.173 15.392C748.997 17.12 749.093 17.312 749.093 18.08C749.093 18.944 748.997 19.136 747.173 20.864C745.061 22.976 741.413 26.432 741.413 32.96C741.413 39.392 745.061 42.944 747.173 44.96C748.997 46.784 749.093 46.88 749.093 47.744C749.093 48.512 745.924 55.712 745.445 57.824C744.677 61.088 744.965 64.064 746.405 66.56C747.941 69.152 750.341 70.88 753.701 71.936C755.717 72.512 757.925 72.8 759.845 72.992C766.661 73.76 767.909 79.232 770.693 81.728C773.189 84.128 776.069 85.376 779.045 85.376Z" fill="#BDFB0F"/>
</svg>
