<svg width="129" height="85" viewBox="0 0 129 85" fill="none" xmlns="http://www.w3.org/2000/svg">
<path d="M126.05 2H2V82.11H126.05V2Z" fill="white" stroke="#BDFB0F" stroke-width="4" stroke-linecap="round" stroke-linejoin="round"/>
<path d="M126.05 2H2V15.79H126.05V2Z" fill="#BDFB0F" stroke="#BDFB0F" stroke-width="4" stroke-linecap="round" stroke-linejoin="round"/>
<path d="M8.94023 10.85C10.0172 10.85 10.8902 9.97691 10.8902 8.89995C10.8902 7.823 10.0172 6.94995 8.94023 6.94995C7.86328 6.94995 6.99023 7.823 6.99023 8.89995C6.99023 9.97691 7.86328 10.85 8.94023 10.85Z" fill="white" stroke="white" stroke-width="2" stroke-linecap="round" stroke-linejoin="round"/>
<path d="M17.0096 10.85C18.0865 10.85 18.9596 9.97691 18.9596 8.89995C18.9596 7.823 18.0865 6.94995 17.0096 6.94995C15.9326 6.94995 15.0596 7.823 15.0596 8.89995C15.0596 9.97691 15.9326 10.85 17.0096 10.85Z" fill="white" stroke="white" stroke-width="2" stroke-linecap="round" stroke-linejoin="round"/>
<path d="M25.0799 10.85C26.1568 10.85 27.0299 9.97691 27.0299 8.89995C27.0299 7.823 26.1568 6.94995 25.0799 6.94995C24.0029 6.94995 23.1299 7.823 23.1299 8.89995C23.1299 9.97691 24.0029 10.85 25.0799 10.85Z" fill="white" stroke="white" stroke-width="2" stroke-linecap="round" stroke-linejoin="round"/>
<path d="M126.05 15.79H117.41V82.11H126.05V15.79Z" fill="white" stroke="#BDFB0F" stroke-width="4" stroke-linecap="round" stroke-linejoin="round"/>
<path d="M126 47H118V82H126V47Z" fill="#BDFB0F" stroke="#BDFB0F" stroke-width="4" stroke-linecap="round" stroke-linejoin="round"/>
<path d="M61.42 68.84C73.2499 68.84 82.84 59.2499 82.84 47.42C82.84 35.5901 73.2499 26 61.42 26C49.5901 26 40 35.5901 40 47.42C40 59.2499 49.5901 68.84 61.42 68.84Z" fill="#BDFB0F"/>
<path d="M51.2803 50.27C54.2138 52.2397 57.6882 53.2464 61.2203 53.15C64.7524 53.2464 68.2268 52.2397 71.1603 50.27" stroke="black" stroke-width="4" stroke-linecap="round" stroke-linejoin="round"/>
<path d="M58.9203 43.96C58.9203 43.3691 58.4412 42.89 57.8503 42.89C57.2593 42.89 56.7803 43.3691 56.7803 43.96V45.12C56.7803 45.711 57.2593 46.19 57.8503 46.19C58.4412 46.19 58.9203 45.711 58.9203 45.12V43.96Z" fill="black" stroke="black" stroke-width="4" stroke-linecap="round" stroke-linejoin="round"/>
<path d="M65.6498 43.96C65.6498 43.3691 65.1707 42.89 64.5798 42.89C63.9888 42.89 63.5098 43.3691 63.5098 43.96V45.12C63.5098 45.711 63.9888 46.19 64.5798 46.19C65.1707 46.19 65.6498 45.711 65.6498 45.12V43.96Z" fill="black" stroke="black" stroke-width="4" stroke-linecap="round" stroke-linejoin="round"/>
</svg>
