<svg width="295" height="28" viewBox="0 0 295 28" fill="none" xmlns="http://www.w3.org/2000/svg">
<path d="M4.47035e-08 26H3.9L4.92 25.28C5.46 24.92 6.09 24.56 6.6 24.02C7.38 23.21 7.77 22.28 7.77 21.23C7.77 20.18 7.38 19.25 6.6 18.47C6.09 17.93 5.46 17.54 4.92 17.21C4.56 17 3.9 16.7 3.9 16.46C3.9 16.25 4.56 15.95 4.92 15.74C5.46 15.41 6.09 15.02 6.6 14.48C7.38 13.7 7.77 12.77 7.77 11.72C7.77 10.67 7.38 9.74 6.6 8.93C6.09 8.39 5.46 8 4.92 7.67C4.56 7.46 3.9 7.16 3.9 6.95C3.9 6.74 4.56 6.41 4.92 6.23C5.46 5.87 6.09 5.51 6.6 4.94C7.38 4.16 7.77 3.23 7.77 2.18H3.9C3.81 2.33 3.21 2.69 2.88 2.9C2.34 3.26 1.71 3.62 1.17 4.19C0.39 4.97 4.47035e-08 5.9 4.47035e-08 6.95C4.47035e-08 8 0.39 8.93 1.17 9.71C1.71 10.25 2.34 10.64 2.88 10.97C3.21 11.18 3.9 11.51 3.9 11.72C3.9 11.93 3.21 12.23 2.88 12.44C2.34 12.77 1.71 13.16 1.17 13.7C0.39 14.48 4.47035e-08 15.41 4.47035e-08 16.46C4.47035e-08 17.51 0.39 18.47 1.17 19.25C1.71 19.79 2.34 20.18 2.88 20.51C3.21 20.72 3.9 21.02 3.9 21.23C3.9 21.44 3.21 21.77 2.88 21.98C2.34 22.31 1.71 22.7 1.17 23.24C0.39 24.02 4.47035e-08 24.95 4.47035e-08 26ZM13.7695 26H17.9695V7.16L30.8095 26H36.2695V2H32.0695V20.84L19.2295 2H13.7695V26ZM48.1854 26H52.3854V5.96H60.9954V2H39.5754V5.96H48.1854V26ZM64.3066 26H68.5066V20.54C69.1666 20.72 69.9166 20.81 70.7266 20.81C72.1366 20.81 73.7866 20.48 75.4666 19.91C76.5466 19.55 77.6566 19.07 78.6766 18.5C79.0966 19.34 79.4266 20.24 79.6966 21.23C80.1466 22.85 80.3566 24.29 80.5666 26H84.6166C84.2266 22.61 83.7466 19.28 82.0666 16.19C82.6966 15.62 83.2666 15.05 83.7166 14.45C84.8566 13.01 85.4266 11.54 85.4266 10.1C85.4266 8.75 85.1866 7.52 84.7066 6.47C84.2266 5.42 83.5366 4.55 82.6366 3.83C81.4666 2.9 79.9066 2.27 78.0766 1.94C76.6666 1.7 75.0466 1.64 73.2466 1.73C70.1866 1.94 67.3966 2.6 66.1966 2.87C66.1366 2.9 66.0766 2.9 66.0166 2.93L64.3066 3.29V26ZM68.5066 15.35V14.57C68.5966 13.94 68.9266 13.73 69.4066 13.55C70.4566 13.25 72.1066 13.43 73.7266 14.03C74.5966 14.36 75.4066 14.78 76.0666 15.26C74.2066 16.19 72.2566 16.73 70.7266 16.73C69.9166 16.73 69.2866 16.58 68.9566 16.31C68.8366 16.22 68.5966 16.01 68.5066 15.35ZM68.5066 9.59V6.53C69.7966 6.26 71.6266 5.93 73.5166 5.81C76.5766 5.6 78.8566 6.05 80.1166 7.01C81.2266 7.91 81.3766 9.2 81.3766 10.1C81.3766 10.61 81.0766 11.24 80.5366 11.93C80.2666 12.26 79.9666 12.56 79.6066 12.89C78.4366 11.81 76.8766 10.85 75.1366 10.22C73.9966 9.77 72.7966 9.5 71.6566 9.38C71.2966 9.35 70.9666 9.32 70.6066 9.32C69.8566 9.32 69.1666 9.41 68.5066 9.59ZM103.037 27.8C104.897 27.8 106.397 26.9 107.297 25.28C107.387 25.13 107.477 24.98 107.537 24.83C109.307 25.52 111.347 25.25 112.847 23.75C114.077 22.52 114.557 20.63 114.047 18.95C114.017 18.77 113.957 18.62 113.897 18.47L114.347 18.23C115.907 17.39 116.897 15.74 116.897 13.97C116.897 12.2 115.907 10.52 114.347 9.68C114.197 9.59 114.047 9.53 113.897 9.47C113.957 9.29 114.017 9.14 114.047 8.99C114.557 7.31 114.107 5.42 112.847 4.16C111.257 2.63 109.157 2.45 107.387 3.14C107.297 2.96 107.207 2.78 107.087 2.6C106.187 1.07 104.687 0.2 102.917 0.2C100.997 0.2 99.4673 1.28 98.6873 2.75L98.5073 3.08C96.8273 2.45 94.7573 2.69 93.2273 4.16C91.9673 5.42 91.5173 7.31 92.0273 8.99C92.0573 9.14 92.1173 9.29 92.1773 9.47C92.0273 9.53 91.8773 9.59 91.7273 9.68C90.1673 10.52 89.1773 12.2 89.1773 13.97C89.1773 15.74 90.1673 17.39 91.7273 18.23L92.1773 18.47C92.1173 18.62 92.0573 18.77 92.0273 18.95C91.5173 20.63 91.9973 22.52 93.2273 23.75C94.6673 25.19 96.6773 25.55 98.5373 24.83C99.1373 26.33 100.817 27.8 103.037 27.8ZM93.0773 13.97C93.0773 12.32 96.3473 12.98 96.9773 11.45C97.6073 9.95 94.8173 8.06 95.9873 6.92C96.1973 6.71 96.4073 6.62 96.6473 6.62C97.6373 6.62 98.9273 8 100.037 8C100.217 8 100.367 7.97 100.517 7.91C102.047 7.28 101.327 4.07 102.917 4.07C104.417 4.07 104.027 7.28 105.557 7.91C105.707 7.97 105.857 8 106.037 8C107.147 8 108.437 6.62 109.427 6.62C109.667 6.62 109.877 6.71 110.087 6.92C111.257 8.06 108.467 9.95 109.097 11.45C109.727 12.98 112.997 12.32 112.997 13.97C112.997 15.59 109.727 14.96 109.097 16.46C108.467 17.99 111.257 19.85 110.087 21.02C109.877 21.23 109.667 21.29 109.427 21.29C108.437 21.29 107.147 19.91 106.037 19.91C105.857 19.91 105.707 19.94 105.557 20C104.027 20.63 104.687 23.93 103.037 23.93C101.387 23.93 102.047 20.63 100.517 20C100.367 19.94 100.217 19.91 100.037 19.91C98.9273 19.91 97.6373 21.29 96.6473 21.29C96.4073 21.29 96.1973 21.23 95.9873 21.02C94.8173 19.85 97.6073 17.99 96.9773 16.46C96.3473 14.96 93.0773 15.59 93.0773 13.97ZM132.053 26.12C139.253 26.12 144.353 21.11 144.353 14C144.353 6.95 139.373 1.94 132.353 1.94C129.833 1.94 128.273 2 125.753 2H121.553V26H125.753C128.273 26 129.533 26.12 132.053 26.12ZM125.753 21.95V6.05C127.043 5.99 129.773 5.93 132.353 5.93C136.913 5.93 140.123 9.26 140.123 14C140.123 18.77 136.793 22.13 132.053 22.13C130.553 22.13 127.943 22.07 125.753 21.95ZM160.764 27.68C161.724 27.68 162.594 27.29 163.374 26.54C164.244 25.76 164.664 24.05 166.764 23.81C167.364 23.75 168.054 23.66 168.714 23.48C169.734 23.15 170.484 22.61 170.964 21.8C171.414 21.02 171.504 20.09 171.264 19.07C171.114 18.41 170.874 17.84 170.604 17.24C170.424 16.85 170.124 16.16 170.124 15.92C170.124 15.65 170.154 15.62 170.724 15.05C171.384 14.42 172.524 13.31 172.524 11.3C172.524 9.26 171.384 8.18 170.724 7.52C170.154 6.98 170.124 6.92 170.124 6.65C170.124 6.41 170.154 6.35 170.724 5.81C171.384 5.15 172.524 4.04 172.524 2.03H168.474C168.474 2.3 166.074 4.64 166.074 6.65C166.074 8.69 167.214 9.77 167.904 10.43C168.474 10.97 168.474 11.03 168.474 11.3C168.474 11.54 168.474 11.6 167.904 12.14C167.214 12.8 166.074 13.91 166.074 15.92C166.074 17 166.524 17.99 166.884 18.86C167.004 19.1 167.124 19.4 167.214 19.67L166.314 19.79C165.384 19.88 164.334 20 163.434 20.54C162.534 21.05 161.934 21.89 161.394 22.61C161.214 22.85 160.974 23.21 160.764 23.45C160.554 23.21 160.314 22.85 160.134 22.61C159.594 21.89 158.994 21.05 158.124 20.54C156.924 19.82 155.394 19.85 154.314 19.67C154.674 18.65 155.454 17.33 155.454 15.92C155.454 13.91 154.314 12.8 153.624 12.14C153.054 11.6 153.054 11.54 153.054 11.3C153.054 11.03 153.054 10.97 153.624 10.43C154.314 9.77 155.454 8.69 155.454 6.65C155.454 4.64 153.054 2.3 153.054 2.03H149.004C149.004 4.04 150.144 5.15 150.804 5.81C151.374 6.35 151.404 6.41 151.404 6.65C151.404 6.92 151.374 6.98 150.804 7.52C150.144 8.18 149.004 9.26 149.004 11.3C149.004 13.31 150.144 14.42 150.804 15.05C151.374 15.62 151.404 15.65 151.404 15.92C151.404 16.16 150.414 18.41 150.264 19.07C150.024 20.09 150.114 21.02 150.564 21.8C151.044 22.61 151.794 23.15 152.844 23.48C153.474 23.66 154.164 23.75 154.764 23.81C156.894 24.05 157.284 25.76 158.154 26.54C158.934 27.29 159.834 27.68 160.764 27.68ZM189.185 26.75C196.085 26.75 200.975 22.7 200.975 17H196.625C196.625 20.36 193.535 22.76 189.185 22.76C184.625 22.76 181.415 19.13 181.415 14C181.415 8.87 184.625 5.24 189.185 5.24C193.535 5.24 196.625 7.64 196.625 11H200.975C200.975 5.3 196.085 1.25 189.185 1.25C182.165 1.25 177.185 6.53 177.185 14C177.185 21.47 182.165 26.75 189.185 26.75ZM211.223 26H215.423V5.96H224.033V2H202.613V5.96H211.223V26ZM227.344 26H231.244L232.264 25.28C232.804 24.92 233.434 24.56 233.944 24.02C234.724 23.21 235.114 22.28 235.114 21.23C235.114 20.18 234.724 19.25 233.944 18.47C233.434 17.93 232.804 17.54 232.264 17.21C231.904 17 231.244 16.7 231.244 16.46C231.244 16.25 231.904 15.95 232.264 15.74C232.804 15.41 233.434 15.02 233.944 14.48C234.724 13.7 235.114 12.77 235.114 11.72C235.114 10.67 234.724 9.74 233.944 8.93C233.434 8.39 232.804 8 232.264 7.67C231.904 7.46 231.244 7.16 231.244 6.95C231.244 6.74 231.904 6.41 232.264 6.23C232.804 5.87 233.434 5.51 233.944 4.94C234.724 4.16 235.114 3.23 235.114 2.18H231.244C231.154 2.33 230.554 2.69 230.224 2.9C229.684 3.26 229.054 3.62 228.514 4.19C227.734 4.97 227.344 5.9 227.344 6.95C227.344 8 227.734 8.93 228.514 9.71C229.054 10.25 229.684 10.64 230.224 10.97C230.554 11.18 231.244 11.51 231.244 11.72C231.244 11.93 230.554 12.23 230.224 12.44C229.684 12.77 229.054 13.16 228.514 13.7C227.734 14.48 227.344 15.41 227.344 16.46C227.344 17.51 227.734 18.47 228.514 19.25C229.054 19.79 229.684 20.18 230.224 20.51C230.554 20.72 231.244 21.02 231.244 21.23C231.244 21.44 230.554 21.77 230.224 21.98C229.684 22.31 229.054 22.7 228.514 23.24C227.734 24.02 227.344 24.95 227.344 26ZM253.623 27.8C255.483 27.8 256.983 26.9 257.883 25.28C257.973 25.13 258.063 24.98 258.123 24.83C259.893 25.52 261.933 25.25 263.433 23.75C264.663 22.52 265.143 20.63 264.633 18.95C264.603 18.77 264.543 18.62 264.483 18.47L264.933 18.23C266.493 17.39 267.483 15.74 267.483 13.97C267.483 12.2 266.493 10.52 264.933 9.68C264.783 9.59 264.633 9.53 264.483 9.47C264.543 9.29 264.603 9.14 264.633 8.99C265.143 7.31 264.693 5.42 263.433 4.16C261.843 2.63 259.743 2.45 257.973 3.14C257.883 2.96 257.793 2.78 257.673 2.6C256.773 1.07 255.273 0.2 253.503 0.2C251.583 0.2 250.053 1.28 249.273 2.75L249.093 3.08C247.413 2.45 245.343 2.69 243.813 4.16C242.553 5.42 242.103 7.31 242.613 8.99C242.643 9.14 242.703 9.29 242.763 9.47C242.613 9.53 242.463 9.59 242.313 9.68C240.753 10.52 239.763 12.2 239.763 13.97C239.763 15.74 240.753 17.39 242.313 18.23L242.763 18.47C242.703 18.62 242.643 18.77 242.613 18.95C242.103 20.63 242.583 22.52 243.813 23.75C245.253 25.19 247.263 25.55 249.123 24.83C249.723 26.33 251.403 27.8 253.623 27.8ZM243.663 13.97C243.663 12.32 246.933 12.98 247.563 11.45C248.193 9.95 245.403 8.06 246.573 6.92C246.783 6.71 246.993 6.62 247.233 6.62C248.223 6.62 249.513 8 250.623 8C250.803 8 250.953 7.97 251.103 7.91C252.633 7.28 251.913 4.07 253.503 4.07C255.003 4.07 254.613 7.28 256.143 7.91C256.293 7.97 256.443 8 256.623 8C257.733 8 259.023 6.62 260.013 6.62C260.253 6.62 260.463 6.71 260.673 6.92C261.843 8.06 259.053 9.95 259.683 11.45C260.313 12.98 263.583 12.32 263.583 13.97C263.583 15.59 260.313 14.96 259.683 16.46C259.053 17.99 261.843 19.85 260.673 21.02C260.463 21.23 260.253 21.29 260.013 21.29C259.023 21.29 257.733 19.91 256.623 19.91C256.443 19.91 256.293 19.94 256.143 20C254.613 20.63 255.273 23.93 253.623 23.93C251.973 23.93 252.633 20.63 251.103 20C250.953 19.94 250.803 19.91 250.623 19.91C249.513 19.91 248.223 21.29 247.233 21.29C246.993 21.29 246.783 21.23 246.573 21.02C245.403 19.85 248.193 17.99 247.563 16.46C246.933 14.96 243.663 15.59 243.663 13.97ZM272.139 26H276.339V7.16L289.179 26H294.639V2H290.439V20.84L277.599 2H272.139V26Z" fill="black"/>
</svg>
